<?xml version="1.0" encoding="UTF-8"?>
<svg width="480px" height="325px" viewBox="0 0 480 325" version="1.1" xmlns="http://www.w3.org/2000/svg" xmlns:xlink="http://www.w3.org/1999/xlink">
    <title>image_WhatWeDo</title>
    <g id="Page-1" stroke="none" stroke-width="1" fill="none" fill-rule="evenodd">
        <g id="16GRID-web-기획안-1" transform="translate(-1217.000000, -1821.000000)">
            <g id="WhatWeDo" transform="translate(0.000000, 950.000000)">
                <g id="image_WhatWeDo" transform="translate(1217.000000, 871.000000)">
                    <rect id="Rectangle" fill="#3A3A3A" fill-rule="nonzero" opacity="0.3" style="mix-blend-mode: darken;" x="0" y="232.770053" width="396.24385" height="48.5903743" rx="8"></rect>
                    <path d="M140.877005,313.291979 L159.751872,279.486631 L164.731551,268.714439 L232.273797,268.714439 L237.279144,279.537968 L256.102674,313.291979 C257.287392,315.413825 257.258246,318.004743 256.026094,320.099401 C254.793942,322.194059 252.543548,323.478361 250.113369,323.473809 L146.849198,323.473809 C144.422072,323.472285 142.177246,322.185575 140.949259,320.092016 C139.721272,317.998457 139.693781,315.411158 140.877005,313.291979 Z" id="Path" fill="#3A3A3A" fill-rule="nonzero" opacity="0.3" style="mix-blend-mode: multiply;"></path>
                    <path d="M140.877005,309.869519 L159.751872,276.064171 L164.731551,265.291979 L232.273797,265.291979 L237.279144,276.115508 L256.102674,309.869519 C257.287392,311.991365 257.258246,314.582283 256.026094,316.676941 C254.793942,318.771599 252.543548,320.055901 250.113369,320.051349 L146.849198,320.051349 C144.422072,320.049825 142.177246,318.763115 140.949259,316.669556 C139.721272,314.575997 139.693781,311.988698 140.877005,309.869519 Z" id="Path" fill="#E6E6E6" fill-rule="nonzero"></path>
                    <polygon id="Path" fill="#E6E6E6" fill-rule="nonzero" points="164.731551 265.291979 160.393583 274.678075 236.611765 274.678075 232.273797 265.291979"></polygon>
                    <polygon id="Path" fill="#E6E6E6" fill-rule="nonzero" points="232.273797 265.291979 232.273797 265.291979 232.273797 265.300535"></polygon>
                    <polygon id="Path" fill="#E6E6E6" fill-rule="nonzero" points="242.686631 285.818182 242.618182 285.681283 237.279144 276.115508 232.273797 265.300535 232.273797 265.291979 164.731551 265.291979 159.751872 276.064171 154.438503 285.570053 154.318717 285.818182"></polygon>
                    <polygon id="Path" fill="#3A3A3A" fill-rule="nonzero" opacity="0.3" style="mix-blend-mode: darken;" points="242.686631 285.818182 242.618182 285.681283 237.279144 276.115508 232.273797 265.300535 232.273797 265.291979 164.731551 265.291979 159.751872 276.064171 154.438503 285.570053 154.318717 285.818182"></polygon>
                    <path d="M386.737968,5.17647059 L10.2673797,5.17647059 C4.59686246,5.17647059 0,9.77333305 0,15.4438503 L0,237.903743 L397.005348,237.903743 L397.005348,15.4438503 C397.005348,12.7207719 395.923609,10.1092237 393.998102,8.18371647 C392.072595,6.25820927 389.461046,5.17647059 386.737968,5.17647059 Z" id="Path" fill="#252525" fill-rule="nonzero"></path>
                    <path d="M0,255.016043 C0,260.68656 4.59686246,265.283422 10.2673797,265.283422 L386.737968,265.283422 C392.408485,265.283422 397.005348,260.68656 397.005348,255.016043 L397.005348,237.903743 L0,237.903743 L0,255.016043 Z" id="Path" fill="#E6E6E6" fill-rule="nonzero"></path>
                    <path d="M0,254.160428 C0,259.830945 4.59686246,264.427807 10.2673797,264.427807 L386.737968,264.427807 C392.408485,264.427807 397.005348,259.830945 397.005348,254.160428 L397.005348,237.048128 L0,237.048128 L0,254.160428 Z" id="Path" fill="#E6E6E6" fill-rule="nonzero"></path>
                    <rect id="Rectangle" fill="#FFFFFF" fill-rule="nonzero" x="10.2673797" y="16.2566845" width="376.470588" height="212.192513"></rect>
                    <circle id="Oval" fill="#FFF0B0" fill-rule="nonzero" cx="114.874866" cy="122.797861" r="82.8320856"></circle>
                    <circle id="Oval" fill="#FFF0B0" fill-rule="nonzero" cx="114.37861" cy="123.157219" r="27.3796791"></circle>
                    <circle id="Oval" fill="#FFF0B0" fill-rule="nonzero" cx="114.37861" cy="205.929412" r="13.6898396"></circle>
                    <circle id="Oval" fill="#FFF0B0" fill-rule="nonzero" cx="114.37861" cy="41.1893048" r="13.6898396"></circle>
                    <circle id="Oval" fill="#FFF0B0" fill-rule="nonzero" cx="32.0085561" cy="123.559358" r="13.6898396"></circle>
                    <circle id="Oval" fill="#FFF0B0" fill-rule="nonzero" cx="196.748663" cy="123.559358" r="13.6898396"></circle>
                    <circle id="Oval" fill="#FFF0B0" fill-rule="nonzero" cx="56.1283422" cy="65.3176471" r="13.6898396"></circle>
                    <circle id="Oval" fill="#FFF0B0" fill-rule="nonzero" cx="172.620321" cy="181.80107" r="13.6898396"></circle>
                    <circle id="Oval" fill="#FFF0B0" fill-rule="nonzero" cx="56.1283422" cy="181.80107" r="13.6898396"></circle>
                    <circle id="Oval" fill="#FFF0B0" fill-rule="nonzero" cx="172.620321" cy="65.3176471" r="13.6898396"></circle>
                    <path d="M108.868449,116.91123 C108.868449,116.91123 108.868449,116.834225 108.748663,116.817112 C108.341814,116.77276 107.930308,116.801739 107.53369,116.902674 L99.0631016,118.494118 L98.8834225,118.494118 C96.8162802,118.496333 94.7577729,118.760834 92.7572193,119.281283 L92.4663102,119.40107 L92.397861,119.40107 C92.3472477,119.425807 92.2986185,119.454412 92.2524064,119.486631 L92.1839572,119.486631 L92.0983957,119.563636 L92.0983957,119.606417 C92.0951745,119.631985 92.0951745,119.657855 92.0983957,119.683422 L92.0983957,119.683422 C92.0942434,119.708923 92.0942434,119.734927 92.0983957,119.760428 C92.094355,119.774402 92.094355,119.789235 92.0983957,119.803209 L92.1582888,119.88877 L92.1582888,119.88877 L92.3037433,120 C92.3264574,119.996944 92.3494784,119.996944 92.3721925,120 L92.5176471,120.068449 L92.6374332,120.119786 L92.7914439,120.179679 L92.9454545,120.22246 L93.1080214,120.273797 L82.1390374,124.35508 L71.0160428,124.449198 L71.0160428,123.841711 C71.0160428,123.730481 70.459893,123.64492 69.7754011,123.653476 L67.5508021,123.653476 L64.9839572,123.653476 L64.9839572,123.653476 C64.2994652,123.653476 63.7433155,123.747594 63.7433155,123.858824 L63.7433155,124.474866 L52.5518717,124.568984 L40.0770053,120.410695 C39.5374537,120.294938 38.9828823,120.266054 38.4342246,120.325134 L38.1433155,120.325134 L36.0385027,119.623529 L36.3294118,119.623529 C36.9540107,119.572193 37.1850267,119.452406 36.9283422,119.358289 L35.6877005,118.939037 C35.206188,118.819361 34.7174796,118.730765 34.2245989,118.673797 L26.2074866,117.450267 C26.05366,117.43962 25.8992812,117.43962 25.7454545,117.450267 C25.5315508,117.450267 25.4117647,117.450267 25.4459893,117.552941 L26.5240642,119.324064 C26.7026896,119.499952 26.9237412,119.626688 27.1657754,119.691979 L28.4064171,120.11123 C28.5545089,120.152499 28.7064797,120.178305 28.859893,120.188235 C29.0652406,120.188235 29.3048128,120.188235 29.544385,120.188235 L29.544385,120.188235 C29.7039802,120.196976 29.8639342,120.196976 30.0235294,120.188235 L30.3144385,120.188235 L32.4106952,120.88984 L32.1197861,120.88984 C31.5037433,120.941176 31.2641711,121.060963 31.5208556,121.163636 L32.7529412,121.574332 L30.1860963,121.788235 C29.5700535,121.839572 29.3304813,121.959358 29.5957219,122.053476 L32.9582888,123.208556 C33.4978404,123.324313 34.0524118,123.353197 34.6010695,123.294118 L37.1679144,123.080214 L42.1390374,124.740107 L36.0812834,124.791444 C34.7122995,124.791444 33.6,124.988235 33.6,125.210695 L33.6,125.287701 C33.6,125.51016 34.7208556,125.681283 36.0898396,125.664171 L44.6973262,125.595722 L55.3754011,129.15508 C53.7411765,129.548663 52.8085561,130.010695 52.8085561,130.506952 C52.8085561,131.610695 57.6,132.491979 64.0171123,132.680214 L64.0171123,133.57861 L63.1614973,133.57861 C62.4770053,133.57861 61.9208556,133.681283 61.9208556,133.792513 L61.9208556,135.726203 C61.9208556,135.837433 62.4855615,135.922995 63.1700535,135.914439 L65.7368984,135.914439 L71.7262032,135.854545 C72.4106952,135.854545 72.9668449,135.760428 72.9668449,135.649198 L72.9668449,133.706952 C72.9668449,133.604278 72.4106952,133.518717 71.7262032,133.518717 L70.8705882,133.518717 L70.8705882,132.663102 C77.2877005,132.363636 82.0620321,131.396791 82.0449198,130.293048 C82.0449198,129.805348 81.0780749,129.351872 79.4352941,128.992513 L90.0534759,125.236364 L98.6609626,125.167914 C100.029947,125.167914 101.142246,124.962567 101.142246,124.748663 L101.142246,124.663102 L101.142246,124.663102 C101.142246,124.449198 100.02139,124.278075 98.6524064,124.286631 L92.5946524,124.337968 L101.655615,121.137968 C103.625246,121.126087 105.585623,120.867386 107.490909,120.367914 C108.671658,119.948663 108.406417,119.512299 107.037433,119.144385 C107.037433,119.144385 107.097326,119.144385 107.105882,119.144385 L108.560428,117.51016 L108.560428,117.51016 L108.919786,117.108021 C108.929776,117.083325 108.929776,117.055712 108.919786,117.031016 L108.868449,116.91123 Z M63.6919786,125.390374 L63.6919786,126.006417 C63.6919786,126.117647 64.2566845,126.203209 64.9411765,126.194652 L64.9411765,126.194652 L67.5080214,126.194652 L69.7411765,126.194652 C70.4171123,126.194652 70.9818182,126.091979 70.9818182,125.989305 L70.9818182,125.373262 L79.6235294,125.296257 L71.6320856,128.119786 C70.2802139,128.059893 68.8513369,128.042781 67.3540107,128.051337 C65.8566845,128.059893 64.4278075,128.11123 63.0759358,128.188235 L55.0417112,125.51016 L63.6919786,125.390374 Z" id="Shape" fill="#8C8C8C" fill-rule="nonzero" opacity="0.4" style="mix-blend-mode: multiply;"></path>
                    <polygon id="Path" fill="#252525" fill-rule="nonzero" points="195.080214 243.824599 195.080214 259.225668 201.925134 259.225668 201.925134 257.514439 196.791444 257.514439 196.791444 245.535829 200.213904 245.535829 200.213904 250.669519 201.925134 250.669519 201.925134 243.824599"></polygon>
                    <polygon id="Path" fill="#666666" fill-rule="nonzero" opacity="0.3" style="mix-blend-mode: screen;" points="195.080214 259.225668 201.925134 259.225668 201.925134 257.514439 201.925134 250.669519 201.925134 243.824599"></polygon>
                    <rect id="Rectangle" fill="#FFF0B0" fill-rule="nonzero" style="mix-blend-mode: darken;" x="360.983957" y="87.3326203" width="95.486631" height="31.7090909"></rect>
                    <rect id="Rectangle" fill="#FFF0B0" fill-rule="nonzero" style="mix-blend-mode: darken;" x="463.409626" y="87.3326203" width="16.2395722" height="31.7090909"></rect>
                    <rect id="Rectangle" fill="#FFF0B0" fill-rule="nonzero" style="mix-blend-mode: darken;" x="309.321925" y="130.010695" width="102.314439" height="31.7090909"></rect>
                    <polygon id="Path" fill="#FF9E18" fill-rule="nonzero" points="306.566845 103.093048 316.714439 112.179679 316.714439 115.328342 304.770053 104.385027 304.770053 101.741176 316.748663 90.8064171 316.748663 93.9550802"></polygon>
                    <polygon id="Path" fill="#FF9E18" fill-rule="nonzero" points="321.214973 117.048128 337.112299 89.086631 339.944385 89.086631 324.072727 117.048128"></polygon>
                    <polygon id="Path" fill="#FF9E18" fill-rule="nonzero" points="355.131551 103.033155 344.992513 93.9550802 344.992513 90.8064171 356.971123 101.741176 356.971123 104.385027 344.992513 115.328342 344.992513 112.179679"></polygon>
                    <path d="M108.389305,200.436364 C62.4014102,200.436364 25.1208556,163.155809 25.1208556,117.167914 C25.1208556,71.1800198 62.4014102,33.8994652 108.389305,33.8994652 C154.377199,33.8994652 191.657754,71.1800198 191.657754,117.167914 C191.605886,163.134308 154.355698,200.384496 108.389305,200.436364 Z M108.389305,34.7636364 C75.0556463,34.7636364 45.0043952,54.8438049 32.2489558,85.6404208 C19.4935164,116.437037 26.5459771,151.884937 50.1176566,175.45417 C73.6893362,199.023402 109.137969,206.072182 139.93326,193.313545 C170.728552,180.554909 190.8056,150.501573 190.802139,117.167914 C190.750264,71.6754532 153.881771,34.8107884 108.389305,34.7636364 Z" id="Shape" fill="#FF9E18" fill-rule="nonzero"></path>
                    <path d="M108.389305,144.975401 C93.031654,144.975401 80.5818182,132.525565 80.5818182,117.167914 C80.5818182,101.810264 93.031654,89.3604278 108.389305,89.3604278 C123.746956,89.3604278 136.196791,101.810264 136.196791,117.167914 C136.177934,132.517747 123.739138,144.956544 108.389305,144.975401 L108.389305,144.975401 Z M108.389305,90.2160428 C93.5041971,90.2160428 81.4374332,102.282807 81.4374332,117.167914 C81.4374332,132.053022 93.5041971,144.119786 108.389305,144.119786 C123.274413,144.119786 135.341176,132.053022 135.341176,117.167914 C135.327026,102.288672 123.268547,90.2301933 108.389305,90.2160428 L108.389305,90.2160428 Z" id="Shape" fill="#FF9E18" fill-rule="nonzero"></path>
                    <path d="M108.389305,214.057754 C102.67925,214.057754 97.5314432,210.6181 95.3462996,205.342697 C93.1611561,200.067293 94.3690021,193.995042 98.4066208,189.957423 C102.44424,185.919804 108.516491,184.711958 113.791894,186.897102 C119.067298,189.082245 122.506952,194.230052 122.506952,199.940107 C122.497523,207.733159 116.182357,214.048325 108.389305,214.057754 L108.389305,214.057754 Z M108.389305,186.678075 C101.064887,186.678075 95.1272727,192.615689 95.1272727,199.940107 C95.1272727,207.264525 101.064887,213.202139 108.389305,213.202139 C115.713723,213.202139 121.651337,207.264525 121.651337,199.940107 C121.646617,192.617645 115.711767,186.682794 108.389305,186.678075 L108.389305,186.678075 Z" id="Shape" fill="#FF9E18" fill-rule="nonzero"></path>
                    <path d="M108.389305,49.3176471 C102.67925,49.3176471 97.5314432,45.8779928 95.3462996,40.6025896 C93.1611561,35.3271865 94.3690021,29.2549348 98.4066208,25.217316 C102.44424,21.1796973 108.516491,19.9718513 113.791894,22.1569948 C119.067298,24.3421384 122.506952,29.4899448 122.506952,35.2 C122.497523,42.9930522 116.182357,49.3082181 108.389305,49.3176471 Z M108.389305,21.9379679 C101.064887,21.9379679 95.1272727,27.8755819 95.1272727,35.2 C95.1272727,42.5244181 101.064887,48.4620321 108.389305,48.4620321 C115.713723,48.4620321 121.651337,42.5244181 121.651337,35.2 C121.646617,27.8775377 115.711767,21.9426875 108.389305,21.9379679 L108.389305,21.9379679 Z" id="Shape" fill="#FF9E18" fill-rule="nonzero"></path>
                    <path d="M261.090909,89.9679144 C261.092966,87.5731246 262.976706,85.6027323 265.368984,85.4930481 C264.715865,81.3983203 263.125886,77.5097522 260.722995,74.1304813 C258.942347,75.7279433 256.22216,75.6496542 254.536336,73.9524245 C252.850512,72.2551947 252.790567,69.5345412 254.4,67.7647059 C251.024109,65.333722 247.132784,63.7145327 243.028877,63.0331551 C242.923956,65.4354909 240.945802,67.3291344 238.541176,67.3291344 C236.136551,67.3291344 234.158397,65.4354909 234.053476,63.0331551 C229.946924,63.714462 226.0528,65.3335975 222.673797,67.7647059 C224.431657,69.5107527 224.441234,72.3512305 222.695187,74.1090907 C220.94914,75.866951 218.108663,75.8765279 216.350802,74.1304813 C213.954657,77.5134613 212.365344,81.4004007 211.704813,85.4930481 C214.103448,85.5858053 216.003473,87.5513113 216.014936,89.9517115 C216.026399,92.3521116 214.145233,94.3356749 211.747594,94.4513369 C212.445064,98.5149936 214.060375,102.365988 216.470588,105.71123 C218.241137,104.145066 220.923489,104.222602 222.600614,105.888425 C224.277738,107.554248 224.373409,110.236015 222.819251,112.017112 C226.165462,114.397709 230.010565,115.983741 234.062032,116.654545 C234.208296,114.290448 236.16828,112.447978 238.536898,112.447978 C240.905516,112.447978 242.865501,114.290448 243.011765,116.654545 C247.064148,115.986955 250.909952,114.400634 254.254545,112.017112 C252.700388,110.236015 252.796059,107.554248 254.473183,105.888425 C256.150307,104.222602 258.83266,104.145066 260.603209,105.71123 C263.016871,102.367922 264.632529,98.5160989 265.326203,94.4513369 C262.949424,94.3152987 261.091554,92.3485836 261.090909,89.9679144 L261.090909,89.9679144 Z M238.554011,98.8235294 C233.592308,98.8235294 229.570053,94.8012748 229.570053,89.8395722 C229.570053,84.8778696 233.592308,80.855615 238.554011,80.855615 C243.515713,80.855615 247.537968,84.8778696 247.537968,89.8395722 C247.537968,94.8012748 243.515713,98.8235294 238.554011,98.8235294 Z" id="Shape" fill="#FF9E18" fill-rule="nonzero"></path>
                    <path d="M26.0192513,131.687701 C18.2222902,131.687701 11.9016043,125.367015 11.9016043,117.570053 C11.9016043,109.773092 18.2222902,103.452406 26.0192513,103.452406 C33.8162125,103.452406 40.1368984,109.773092 40.1368984,117.570053 C40.1274694,125.363106 33.8123036,131.678272 26.0192513,131.687701 Z M26.0192513,104.308021 C18.6948333,104.308021 12.7572193,110.245635 12.7572193,117.570053 C12.7572193,124.894472 18.6948333,130.832086 26.0192513,130.832086 C33.3436694,130.832086 39.2812834,124.894472 39.2812834,117.570053 C39.2765638,110.247591 33.3417136,104.312741 26.0192513,104.308021 L26.0192513,104.308021 Z" id="Shape" fill="#FF9E18" fill-rule="nonzero"></path>
                    <path d="M190.802139,131.687701 C183.005178,131.687701 176.684492,125.367015 176.684492,117.570053 C176.684492,109.773092 183.005178,103.452406 190.802139,103.452406 C198.5991,103.452406 204.919786,109.773092 204.919786,117.570053 C204.910357,125.363106 198.595191,131.678272 190.802139,131.687701 L190.802139,131.687701 Z M190.802139,104.308021 C183.477721,104.308021 177.540107,110.245635 177.540107,117.570053 C177.540107,124.894472 183.477721,130.832086 190.802139,130.832086 C198.126557,130.832086 204.064171,124.894472 204.064171,117.570053 C204.059452,110.247591 198.124601,104.312741 190.802139,104.308021 L190.802139,104.308021 Z" id="Shape" fill="#FF9E18" fill-rule="nonzero"></path>
                    <path d="M50.1390374,73.44603 C46.3936152,73.4550163 42.8006038,71.9635776 40.1625668,69.3048128 L40.1625668,69.3048128 C35.4119133,64.5434552 34.6855365,57.0895844 38.427555,51.5006192 C42.1695735,45.9116539 49.3381061,43.7437164 55.5501946,46.3223192 C61.7622831,48.900922 65.2883104,55.5081107 63.9724058,62.1041422 C62.6565012,68.7001736 56.8650488,73.4485303 50.1390374,73.44603 Z M50.1390374,46.0662663 C44.7688975,46.0525415 39.9205076,49.2786472 37.8590551,54.2373774 C35.7976026,59.1961077 36.930034,64.9085714 40.7272727,68.7058824 L40.7272727,68.7058824 C44.9686523,72.9473425 51.5289222,73.8139234 56.7261597,70.8192602 C61.9233972,67.8245971 64.4635765,61.7143112 62.9210331,55.9177739 C61.3784897,50.1212366 56.1372912,46.0816892 50.1390374,46.0662663 L50.1390374,46.0662663 Z" id="Shape" fill="#FF9E18" fill-rule="nonzero"></path>
                    <path d="M166.631016,189.946548 C162.885185,189.953432 159.29131,188.465993 156.645989,185.813904 L156.645989,185.813904 C151.877928,181.05047 151.139078,173.582104 154.881348,167.976738 C158.623618,162.371373 165.804559,160.19044 172.032039,162.76788 C178.25952,165.345321 181.798809,171.963161 180.485146,178.573683 C179.171483,185.184205 173.370802,189.945978 166.631016,189.946548 L166.631016,189.946548 Z M157.219251,185.206417 C161.690911,189.677909 168.69763,190.370156 173.957842,186.86015 C179.218055,183.350143 181.268282,176.614427 178.8557,170.768964 C176.443118,164.923502 170.238949,161.5946 164.034346,162.816436 C157.829743,164.038272 153.350932,169.47091 153.334725,175.794652 C153.32668,179.323604 154.724521,182.710443 157.219251,185.206417 Z" id="Shape" fill="#FF9E18" fill-rule="nonzero"></path>
                    <path d="M50.1390374,189.946548 C43.4040003,189.944289 37.6084048,185.184865 36.2964959,178.578835 C34.984587,171.972806 38.5217347,165.359967 44.7448278,162.784343 C50.9679209,160.208718 58.1438117,162.387625 61.8841479,167.988573 C65.624484,173.589521 64.8875721,181.052631 60.1240642,185.813904 L60.1240642,185.813904 C57.4787436,188.465993 53.8848687,189.953432 50.1390374,189.946548 Z M50.1390374,162.566714 C43.8152949,162.583017 38.3826567,167.061828 37.1608209,173.266431 C35.938985,179.471034 39.267887,185.675204 45.1133494,188.087786 C50.9588118,190.500367 57.6945284,188.45014 61.2045347,183.189928 C64.714541,177.929715 64.022294,170.922997 59.5508021,166.451337 C57.0591355,163.950156 53.669485,162.551155 50.1390374,162.566714 L50.1390374,162.566714 Z" id="Shape" fill="#FF9E18" fill-rule="nonzero"></path>
                    <path d="M166.631016,73.4374571 C159.895979,73.435198 154.100383,68.6757738 152.788474,62.0697444 C151.476566,55.463715 155.013713,48.8508766 161.236806,46.2752519 C167.459899,43.6996273 174.63579,45.8785345 178.376126,51.4794823 C182.116463,57.08043 181.379551,64.5435397 176.616043,69.3048128 C173.970722,71.9569023 170.376847,73.4443415 166.631016,73.4374571 L166.631016,73.4374571 Z M166.631016,46.057754 C160.307273,46.0739262 154.874635,50.5527374 153.652799,56.7573404 C152.430964,62.9619434 155.759866,69.166113 161.605328,71.5786947 C167.45079,73.9912765 174.186507,71.9410495 177.696513,66.6808368 C181.20652,61.4206242 180.514273,54.4139058 176.042781,49.942246 C173.550244,47.4433924 170.160414,46.0473988 166.631016,46.0663102 L166.631016,46.057754 Z" id="Shape" fill="#FF9E18" fill-rule="nonzero"></path>
                    <path d="M288.66738,165.758289 C288.668794,162.364252 291.342819,159.573309 294.73369,159.426738 C293.806211,153.649038 291.560665,148.162528 288.171123,143.392513 C285.668882,145.74014 281.753076,145.671194 279.33503,143.236935 C276.916985,140.802676 276.874207,136.886497 279.238503,134.4 C274.470576,130.966699 268.974704,128.679924 263.17861,127.717647 C263.053327,131.12627 260.253705,133.824884 256.842781,133.824884 C253.431856,133.824884 250.632234,131.12627 250.506952,127.717647 C244.707871,128.678661 239.208937,130.965492 234.438503,134.4 C236.802798,136.886497 236.760021,140.802676 234.341975,143.236935 C231.923929,145.671194 228.008124,145.74014 225.505882,143.392513 C222.116341,148.162528 219.870794,153.649038 218.943316,159.426738 C222.348612,159.534804 225.057841,162.318164 225.073966,165.725137 C225.090091,169.132109 222.40733,171.940989 219.003209,172.081283 C219.98275,177.819578 222.262714,183.257541 225.668449,187.97861 C228.173608,185.778388 231.954866,185.894449 234.320371,188.244168 C236.685875,190.593888 236.82725,194.374284 234.64385,196.894118 C239.369328,200.250132 244.797182,202.485647 250.515508,203.431016 C250.786337,200.142359 253.534435,197.611271 256.834225,197.611271 C260.134014,197.611271 262.882112,200.142359 263.152941,203.431016 C268.873427,202.483994 274.303706,200.248685 279.033155,196.894118 C276.87614,194.373167 277.027489,190.615539 279.380265,188.276234 C281.733041,185.936928 285.491476,185.807156 288,187.97861 C291.405736,183.257541 293.685699,177.819578 294.665241,172.081283 C291.302681,171.903821 288.66725,169.125528 288.66738,165.758289 L288.66738,165.758289 Z M256.847059,178.258835 C251.713379,178.265747 247.081344,175.178621 245.11197,170.437705 C243.142597,165.696788 244.223966,160.236318 247.851579,156.603806 C251.479192,152.971294 256.938198,151.882557 261.681768,153.84553 C266.425338,155.808504 269.518717,160.436369 269.518717,165.570053 C269.518717,172.57119 263.848189,178.249382 256.847059,178.258835 Z" id="Shape" fill="#FFCD00" fill-rule="nonzero"></path>
                    <path d="M37.8181818,81.8566845 L34.5668449,80.342246 C33.9452688,80.0558269 33.2089509,80.3228852 32.915508,80.9411765 L29.5614973,88.1283422 C29.2750783,88.7499184 29.5421366,89.4862363 30.1604278,89.7796791 L33.4203209,91.2941176 L37.8181818,81.8566845 Z" id="Path" fill="#757575" fill-rule="nonzero"></path>
                    <path d="M101.005348,68.4491979 C100.995973,69.8190065 99.8853408,70.9258221 98.515508,70.9304965 L36.055615,70.9304965 C34.6791089,70.9352276 33.5580831,69.8256799 33.5486631,68.4491979 L33.5486631,67.9358289 C33.5580376,66.5660202 34.6686699,65.4592046 36.0385027,65.4545455 L98.4983957,65.4545455 C99.8682285,65.4592046 100.978861,66.5660202 100.988235,67.9358289 L100.988235,68.4491979 L101.005348,68.4491979 Z" id="Path" fill="#252525" fill-rule="nonzero"></path>
                    <path d="M104.385027,101.433155 C104.902429,101.13361 105.538649,101.125812 106.063237,101.412587 C106.587825,101.699362 106.924712,102.239124 106.951872,102.836364 L108.782888,115.439572 C108.979679,116.791444 108.389305,117.065241 107.482353,116.047059 L98.9946524,106.541176 C98.5390648,106.134678 98.3345805,105.51623 98.458053,104.91827 C98.5815255,104.320311 99.0142468,103.833439 99.5935829,103.640642 L104.385027,101.433155 Z" id="Path" fill="#FF9E18" fill-rule="nonzero"></path>
                    <path d="M108.483422,112.941176 L101.638503,105.240642 C101.281722,104.902474 101.087602,104.427203 101.105615,103.935955 C101.123627,103.444706 101.352032,102.984928 101.73262,102.673797 L99.6620321,103.632086 C99.082696,103.824883 98.6499747,104.311755 98.5265022,104.909714 C98.4030297,105.507674 98.607514,106.126122 99.0631016,106.53262 L107.550802,116.038503 C108.457754,117.056684 109.048128,116.782888 108.851337,115.431016 L108.483422,112.941176 Z" id="Path" fill="#000000" fill-rule="nonzero" opacity="0.1"></path>
                    <path d="M102.802139,93.0909091 L78.5540107,41.1122995 L68.2096257,41.1122995 L94.3058824,97.0524064 C94.5993252,97.6706977 95.3356431,97.937756 95.9572193,97.6513369 L102.203209,94.742246 C102.8215,94.4488031 103.088558,93.7124852 102.802139,93.0909091 Z" id="Path" fill="#8C8C8C" fill-rule="nonzero"></path>
                    <path d="M96.8641711,97.0524064 L70.7593583,41.1122995 L68.1925134,41.1122995 L94.2887701,97.0524064 C94.5822129,97.6706977 95.3185308,97.937756 95.940107,97.6513369 L96.9240642,97.197861 C96.9009344,97.1507408 96.880927,97.1021512 96.8641711,97.0524064 L96.8641711,97.0524064 Z" id="Path" fill="#000000" fill-rule="nonzero" opacity="0.1"></path>
                    <path d="M107.388235,94.913369 C108.776842,97.8746544 108.242497,101.381068 106.03486,103.794319 C103.827224,106.207571 100.382128,107.051236 97.3092125,105.931133 C94.2362974,104.811029 92.1422175,101.948287 92.0053832,98.6804571 C91.8685489,95.4126268 93.7159741,92.3848417 96.684492,91.0117647 C100.717752,89.1358332 105.508234,90.8820043 107.388235,94.913369 L107.388235,94.913369 Z" id="Path" fill="#FFCD00" fill-rule="nonzero"></path>
                    <path d="M104.752941,104.436364 C101.314666,106.03147 97.2297231,105.021217 94.9312969,102.007359 C92.6328707,98.9935016 92.7392897,94.7868352 95.1871658,91.8930481 C92.719479,93.7629159 91.5394169,96.8799512 92.1500868,99.915238 C92.7607568,102.950525 95.0544441,105.368676 98.0532587,106.138737 C101.052073,106.908798 104.227061,105.894941 106.224599,103.529412 C105.767313,103.882652 105.274029,104.186652 104.752941,104.436364 Z" id="Path" fill="#000000" fill-rule="nonzero" opacity="0.1"></path>
                    <path d="M103.135829,96.8898396 C103.738047,98.1436298 103.521562,99.6371823 102.588143,100.668388 C101.654724,101.699593 100.19005,102.06332 98.8826562,101.588582 C97.575262,101.113843 96.6852198,99.8950778 96.6309327,98.5052184 C96.5766456,97.115359 97.3689125,95.8308834 98.6352941,95.255615 C100.330261,94.4856568 102.329801,95.2117257 103.135829,96.8898396 L103.135829,96.8898396 Z" id="Path" fill="#252525" fill-rule="nonzero"></path>
                    <polygon id="Path" fill="#252525" fill-rule="nonzero" points="34.2160428 106.293048 28.5518717 103.649198 32.6245989 94.9219251 38.2887701 97.5657754"></polygon>
                    <polygon id="Path" fill="#000000" fill-rule="nonzero" opacity="0.1" points="34.8663102 95.9743316 32.6245989 94.9219251 28.5518717 103.649198 30.7935829 104.693048"></polygon>
                    <path d="M56,41.1122995 L31.5122995,93.6128342 C31.3726797,93.9099357 31.3573957,94.2504705 31.4698385,94.5588852 C31.5822814,94.8672998 31.8131528,95.1180905 32.1112299,95.255615 L38.3572193,98.173262 C38.9810929,98.458536 39.7182865,98.1873404 40.0085561,97.5657754 L66.344385,41.0951872 L56,41.1122995 Z" id="Path" fill="#8C8C8C" fill-rule="nonzero"></path>
                    <path d="M32.1112299,95.255615 L32.8727273,95.6149733 L58.3016043,41.1122995 L56,41.1122995 L31.5122995,93.6128342 C31.3726797,93.9099357 31.3573957,94.2504705 31.4698385,94.5588852 C31.5822814,94.8672998 31.8131528,95.1180905 32.1112299,95.255615 Z" id="Path" fill="#000000" fill-rule="nonzero" opacity="0.1"></path>
                    <path d="M36.859893,97.4716578 L42.4727273,85.4417112 C42.791787,84.8543597 42.7584377,84.1384453 42.3861572,83.5832984 C42.0138767,83.0281514 41.3642055,82.7255414 40.6997022,82.7977654 C40.0351989,82.8699894 39.4657104,83.3051083 39.2213904,83.9272727 L33.6085561,95.9572193 L33.6085561,95.9572193 L36.859893,97.4716578 Z" id="Path" fill="#757575" fill-rule="nonzero"></path>
                    <path d="M35.6278075,106.951872 C35.2609074,107.687112 34.7881385,108.364556 34.2245989,108.962567 L26.2245989,117.02246 C25.7454545,117.501604 25.368984,117.339037 25.4631016,116.663102 L26.5240642,105.351872 C26.6268859,104.53865 26.8428796,103.743793 27.1657754,102.990374 L28.397861,100.337968 C28.6913038,99.7196767 29.4276217,99.4526184 30.0491979,99.7390374 L36.2951872,102.648128 C36.9167522,102.938398 37.1879478,103.675592 36.9026738,104.299465 L35.6278075,106.951872 Z" id="Path" fill="#FFCD00" fill-rule="nonzero"></path>
                    <path d="M28.9540107,105.351872 C29.0497525,104.538229 29.2630253,103.74278 29.5871658,102.990374 L30.8278075,100.337968 C30.8537035,100.276326 30.8882778,100.218702 30.9304813,100.166845 L30.0149733,99.7390374 C29.3933971,99.4526184 28.6570792,99.7196767 28.3636364,100.337968 L27.1315508,102.990374 C26.808655,103.743793 26.5926613,104.53865 26.4898396,105.351872 L25.4631016,116.663102 C25.3946524,117.339037 25.7454545,117.518717 26.2245989,117.02246 L28.055615,115.174332 L28.9540107,105.351872 Z" id="Path" fill="#000000" fill-rule="nonzero" opacity="0.1"></path>
                    <path d="M70.9219251,74.7550802 C70.9219251,75.4402677 70.3664709,75.9957219 69.6812834,75.9957219 L64.8727273,75.9957219 C64.5436886,75.9957219 64.2281266,75.8650118 63.9954611,75.6323464 C63.7627957,75.3996809 63.6320856,75.0841189 63.6320856,74.7550802 L63.6320856,61.6042781 C63.6320856,61.2752394 63.7627957,60.9596774 63.9954611,60.7270119 C64.2281266,60.4943465 64.5436886,60.3636364 64.8727273,60.3636364 L69.6812834,60.3636364 C70.3664709,60.3636364 70.9219251,60.9190906 70.9219251,61.6042781 L70.9219251,74.7550802 Z" id="Path" fill="#FF9E18" fill-rule="nonzero"></path>
                    <path d="M66.2160428,74.7550802 L66.2160428,61.6042781 C66.2160428,60.9190906 66.771497,60.3635182 67.4566845,60.3635182 L64.8898396,60.3635182 C64.557846,60.3590567 64.2378699,60.4877423 64.0014902,60.7209059 C63.7651105,60.9540696 63.6320856,61.272253 63.6320856,61.6042781 L63.6320856,74.7550802 C63.6320856,75.4402677 64.1875398,75.9957219 64.8727273,75.9957219 L67.4395722,75.9957219 C66.7610768,75.9863625 66.2159782,75.4336402 66.2160428,74.7550802 Z" id="Path" fill="#000000" fill-rule="nonzero" opacity="0.1"></path>
                    <rect id="Rectangle" fill="#8C8C8C" fill-rule="nonzero" x="63.8887701" y="10.6695187" width="6.76791444" height="10.9347594"></rect>
                    <rect id="Rectangle" fill="#000000" fill-rule="nonzero" opacity="0.1" x="63.8887701" y="10.6695187" width="2.55828877" height="10.9347594"></rect>
                    <path d="M72.7786096,13.3304813 C72.7646382,14.005624 72.2132552,14.5454546 71.5379679,14.5454546 L62.9818182,14.5454546 C62.2966307,14.5454546 61.7411764,13.9900003 61.7411764,13.3048128 L61.7411764,1.24064171 C61.741049,0.905586524 61.8764466,0.584724869 62.1165676,0.351050082 C62.3566886,0.117375295 62.6811151,-0.00924292665 63.0160428,-2.8937356e-16 L71.5721925,-2.8937356e-16 C72.25738,-1.0966705e-16 72.8128342,0.555454214 72.8128342,1.24064171 L72.7786096,13.3304813 Z" id="Path" fill="#FF9E18" fill-rule="nonzero"></path>
                    <path d="M64.3080214,13.3304813 L64.3080214,1.24064171 C64.3080214,0.555454214 64.8634756,0 65.5486631,0 L62.9818182,0 C62.3100324,0.0185390278 61.7751453,0.568600237 61.775401,1.24064171 L61.775401,13.3304813 C61.7893725,14.005624 62.3407555,14.5455991 63.0160428,14.5454545 L65.5828877,14.5454545 C65.2523662,14.5546441 64.9318506,14.4315152 64.6924914,14.2034011 C64.4531322,13.9752869 64.3147347,13.6610623 64.3080214,13.3304813 Z" id="Path" fill="#000000" fill-rule="nonzero" opacity="0.1"></path>
                    <ellipse id="Oval" fill="#FFCD00" fill-rule="nonzero" cx="67.2770053" cy="34.3529412" rx="14.5882353" ry="14.571123"></ellipse>
                    <circle id="Oval" fill="#252525" fill-rule="nonzero" cx="67.2770053" cy="34.3529412" r="9.7197861"></circle>
                    <path d="M71.8716657,34.3529412 C71.8751181,36.2232392 70.7506833,37.9111404 69.0234131,38.6284718 C67.2961429,39.3458033 65.3067873,38.9510523 63.9842846,37.6285496 C62.6617819,36.3060469 62.2670309,34.3166914 62.9843624,32.5894212 C63.7016939,30.8621509 65.389595,29.7377162 67.259893,29.7411685 C69.8069004,29.7411685 71.8716657,31.8059339 71.8716657,34.3529412 Z" id="Path" fill="#FFCD00" fill-rule="nonzero"></path>
                    <path d="M67.2770053,4.43208556 C66.2879966,4.43208556 65.4849235,5.23132336 65.4802139,6.22032086 L65.4802139,14.5454545 L69.0737968,14.5454545 L69.0737968,6.22032086 C69.0690872,5.23132336 68.2660141,4.43208556 67.2770053,4.43208556 Z" id="Path" fill="#ED7906" fill-rule="nonzero"></path>
                    <path d="M60.1754011,34.3529412 C60.1781803,29.4928703 63.770306,25.3818414 68.5860963,24.7272727 C68.1522539,24.6683381 67.7148279,24.6397481 67.2770053,24.6417112 C63.7372388,24.5366533 60.4204576,26.3650979 58.6195501,29.4143136 C56.8186425,32.4635293 56.8186425,36.2509092 58.6195501,39.3001249 C60.4204576,42.3493406 63.7372388,44.1777852 67.2770053,44.0727273 C67.7150275,44.0718555 68.1524544,44.0404065 68.5860963,43.9786096 C63.7684135,43.3275576 60.1744415,39.2144157 60.1754011,34.3529412 L60.1754011,34.3529412 Z" id="Path" fill="#000000" fill-rule="nonzero" opacity="0.1"></path>
                    <g id="Group" opacity="0.3" style="mix-blend-mode: darken;" transform="translate(181.390374, 46.203209)" fill="#3A3A3A" fill-rule="nonzero">
                        <path d="M213.775401,0.607486631 L7.57219251,0.607486631 L7.57219251,21.2278075 L213.775401,21.2278075 C213.903743,21.2278075 213.775401,0.607486631 213.775401,0.607486631 Z" id="Path"></path>
                        <path d="M0.667379679,8.82139037 C1.61994136,9.07421468 2.28312796,9.93638271 2.28312796,10.9219251 C2.28312796,11.9074676 1.61994136,12.7696356 0.667379679,13.0224599 L0.667379679,21.2363636 L6.73368984,21.2363636 L6.73368984,0.616042781 L0.667379679,0.616042781 L0.667379679,8.82139037 Z" id="Path"></path>
                    </g>
                    <path d="M397.005348,14.7679144 L397.005348,35.3967914 C399.72207,35.4916008 402.384056,36.1870484 404.8,37.4331551 C411.602139,33.6855615 413.450267,27.8588235 413.664171,26.2245989 C412.483422,19.4652406 405.612834,14.9219251 397.005348,14.7679144 Z" id="Path" fill="#FF9E18" fill-rule="nonzero"></path>
                    <g id="Group" opacity="0.3" style="mix-blend-mode: darken;" transform="translate(397.005348, 14.545455)" fill="#3A3A3A" fill-rule="nonzero">
                        <path d="M0,0.222459893 L0,20.8513369 C2.71672197,20.9461463 5.37870842,21.6415939 7.79465241,22.8877005 C14.5967914,19.140107 16.4449198,13.313369 16.6588235,11.6791444 C15.4780749,4.9197861 8.60748663,0.376470588 0,0.222459893 Z" id="Path"></path>
                    </g>
                    <path d="M182.819251,51.140107 C182.818049,50.1535961 182.155035,49.2906258 181.202139,49.0352941 L181.202139,40.8299465 L187.268449,40.8299465 L187.268449,61.4502674 L181.202139,61.4502674 L181.202139,53.2363636 C182.153706,52.984467 182.817149,52.124448 182.819251,51.140107 L182.819251,51.140107 Z" id="Path" fill="#252525" fill-rule="nonzero"></path>
                    <rect id="Rectangle" fill="#252525" fill-rule="nonzero" x="393.035294" y="40.8213904" width="1" height="11.0973262"></rect>
                    <rect id="Rectangle" fill="#252525" fill-rule="nonzero" x="387.841711" y="40.8213904" width="1" height="7.45240642"></rect>
                    <rect id="Rectangle" fill="#252525" fill-rule="nonzero" x="382.853476" y="40.8213904" width="1" height="7.45240642"></rect>
                    <rect id="Rectangle" fill="#252525" fill-rule="nonzero" x="372.877005" y="40.8213904" width="1" height="7.45240642"></rect>
                    <rect id="Rectangle" fill="#252525" fill-rule="nonzero" x="377.865241" y="40.8213904" width="1" height="7.45240642"></rect>
                    <rect id="Rectangle" x="250.147594" y="40.8213904" width="1" height="7.45240642"></rect>
                    <rect id="Rectangle" x="255.135829" y="40.8213904" width="1" height="7.45240642"></rect>
                    <rect id="Rectangle" x="239.392513" y="40.8213904" width="1" height="11.0973262"></rect>
                    <rect id="Rectangle" x="245.159358" y="40.8213904" width="1" height="7.45240642"></rect>
                    <rect id="Rectangle" x="260.124064" y="40.8213904" width="1" height="7.45240642"></rect>
                    <rect id="Rectangle" x="265.112299" y="40.8213904" width="1" height="7.45240642"></rect>
                    <rect id="Rectangle" x="285.672727" y="40.8213904" width="1" height="7.45240642"></rect>
                    <rect id="Rectangle" x="270.117647" y="40.8213904" width="1" height="11.0973262"></rect>
                    <rect id="Rectangle" x="280.684492" y="40.8213904" width="1" height="7.45240642"></rect>
                    <rect id="Rectangle" x="275.696257" y="40.8213904" width="1" height="7.45240642"></rect>
                    <rect id="Rectangle" x="219.225668" y="40.8213904" width="1" height="7.45240642"></rect>
                    <rect id="Rectangle" x="204.312299" y="40.8213904" width="1" height="7.45240642"></rect>
                    <rect id="Rectangle" x="199.324064" y="40.8213904" width="1" height="7.45240642"></rect>
                    <rect id="Rectangle" x="189.347594" y="40.8213904" width="1" height="7.45240642"></rect>
                    <rect id="Rectangle" x="194.335829" y="40.8213904" width="1" height="7.45240642"></rect>
                    <rect id="Rectangle" x="208.658824" y="40.8213904" width="1" height="11.0973262"></rect>
                    <rect id="Rectangle" x="229.202139" y="40.8213904" width="1" height="7.45240642"></rect>
                    <rect id="Rectangle" x="224.213904" y="40.8213904" width="1" height="7.45240642"></rect>
                    <rect id="Rectangle" x="234.190374" y="40.8213904" width="1" height="7.45240642"></rect>
                    <rect id="Rectangle" x="290.660963" y="40.8213904" width="1" height="7.45240642"></rect>
                    <rect id="Rectangle" x="214.237433" y="40.8213904" width="1" height="7.45240642"></rect>
                    <rect id="Rectangle" x="352.402139" y="40.8213904" width="1" height="7.45240642"></rect>
                    <rect id="Rectangle" x="372.877005" y="40.8213904" width="1" height="7.45240642"></rect>
                    <rect id="Rectangle" x="382.853476" y="40.8213904" width="1" height="7.45240642"></rect>
                    <rect id="Rectangle" x="377.865241" y="40.8213904" width="1" height="7.45240642"></rect>
                    <rect id="Rectangle" x="362.301604" y="40.8213904" width="1" height="11.0973262"></rect>
                    <rect id="Rectangle" x="367.88877" y="40.8213904" width="1" height="7.45240642"></rect>
                    <rect id="Rectangle" x="387.841711" y="40.8213904" width="1" height="7.45240642"></rect>
                    <rect id="Rectangle" x="357.390374" y="40.8213904" width="1" height="7.45240642"></rect>
                    <rect id="Rectangle" x="295.649198" y="40.8213904" width="1" height="7.45240642"></rect>
                    <rect id="Rectangle" x="393.035294" y="40.8213904" width="1" height="11.0973262"></rect>
                    <rect id="Rectangle" x="316.500535" y="40.8213904" width="1" height="7.45240642"></rect>
                    <rect id="Rectangle" x="300.851337" y="40.8213904" width="1" height="11.0973262"></rect>
                    <rect id="Rectangle" x="321.48877" y="40.8213904" width="1" height="7.45240642"></rect>
                    <rect id="Rectangle" x="311.512299" y="40.8213904" width="1" height="7.45240642"></rect>
                    <rect id="Rectangle" x="306.524064" y="40.8213904" width="1" height="7.45240642"></rect>
                    <rect id="Rectangle" x="347.413904" y="40.8213904" width="1" height="7.45240642"></rect>
                    <rect id="Rectangle" x="337.437433" y="40.8213904" width="1" height="7.45240642"></rect>
                    <rect id="Rectangle" x="342.425668" y="40.8213904" width="1" height="7.45240642"></rect>
                    <rect id="Rectangle" x="326.477005" y="40.8213904" width="1" height="7.45240642"></rect>
                    <rect id="Rectangle" x="331.576471" y="40.8213904" width="1" height="11.0973262"></rect>
                    <path d="M412.346524,31.657754 L412.346524,39.1957219 L411.918717,39.1957219 L411.918717,32.3508021 C411.368797,33.1741738 410.750573,33.9498153 410.070588,34.6695187 L410.070588,42.3700535 L409.642781,42.3700535 L409.642781,35.0802139 C408.882407,35.8407191 408.054792,36.5308759 407.170053,37.142246 L407.170053,44.7572193 L406.742246,44.7572193 L406.742246,37.4502674 C405.749563,38.1053096 404.694947,38.6612758 403.593583,39.1101604 L403.593583,39.1101604 L403.593583,46.5625668 L403.165775,46.5625668 L403.165775,39.2812834 C401.782757,39.8108398 400.349306,40.1978716 398.887701,40.4363636 L398.887701,40.4363636 L398.887701,47.9144385 L398.459893,47.9144385 L398.459893,40.513369 C397.080314,40.7175169 395.687649,40.8204654 394.293048,40.8213904 L188.08984,40.8213904 L188.08984,61.4417112 L396.611765,61.4417112 C406.228877,61.4417112 414.057754,55.1272727 414.109091,47.3497326 L414.109091,27.9871658 C413.628267,29.2591262 413.038556,30.487213 412.346524,31.657754 L412.346524,31.657754 Z M189.775401,48.2737968 L189.347594,48.2737968 L189.347594,40.8213904 L189.775401,40.8213904 L189.775401,48.2737968 Z M194.763636,48.2737968 L194.335829,48.2737968 L194.335829,40.8213904 L194.763636,40.8213904 L194.763636,48.2737968 Z M199.751872,48.2737968 L199.358289,48.2737968 L199.358289,40.8213904 L199.786096,40.8213904 L199.751872,48.2737968 Z M204.740107,48.2737968 L204.312299,48.2737968 L204.312299,40.8213904 L204.740107,40.8213904 L204.740107,48.2737968 Z M209.514439,51.9187166 L208.658824,51.9187166 L208.658824,40.7957219 L209.514439,40.7957219 L209.514439,51.9187166 Z M214.648128,48.2737968 L214.220321,48.2737968 L214.220321,40.8213904 L214.648128,40.8213904 L214.648128,48.2737968 Z M219.636364,48.2737968 L219.208556,48.2737968 L219.208556,40.8213904 L219.636364,40.8213904 L219.636364,48.2737968 Z M224.624599,48.2737968 L224.196791,48.2737968 L224.196791,40.8213904 L224.624599,40.8213904 L224.624599,48.2737968 Z M229.612834,48.2737968 L229.185027,48.2737968 L229.185027,40.8213904 L229.612834,40.8213904 L229.612834,48.2737968 Z M234.60107,48.2737968 L234.173262,48.2737968 L234.173262,40.8213904 L234.60107,40.8213904 L234.60107,48.2737968 Z M240.231016,51.9187166 L239.375401,51.9187166 L239.375401,40.7957219 L240.231016,40.7957219 L240.231016,51.9187166 Z M245.561497,48.2737968 L245.13369,48.2737968 L245.13369,40.8213904 L245.561497,40.8213904 L245.561497,48.2737968 Z M250.549733,48.2737968 L250.121925,48.2737968 L250.121925,40.8213904 L250.549733,40.8213904 L250.549733,48.2737968 Z M255.537968,48.2737968 L255.11016,48.2737968 L255.11016,40.8213904 L255.537968,40.8213904 L255.537968,48.2737968 Z M260.526203,48.2737968 L260.106952,48.2737968 L260.106952,40.8213904 L260.534759,40.8213904 L260.526203,48.2737968 Z M265.514439,48.2737968 L265.086631,48.2737968 L265.086631,40.8213904 L265.514439,40.8213904 L265.514439,48.2737968 Z M270.947594,51.9187166 L270.091979,51.9187166 L270.091979,40.7957219 L270.947594,40.7957219 L270.947594,51.9187166 Z M276.081283,48.2737968 L275.653476,48.2737968 L275.653476,40.8213904 L276.081283,40.8213904 L276.081283,48.2737968 Z M281.069519,48.2737968 L280.641711,48.2737968 L280.641711,40.8213904 L281.069519,40.8213904 L281.069519,48.2737968 Z M286.057754,48.2737968 L285.629947,48.2737968 L285.629947,40.8213904 L286.057754,40.8213904 L286.057754,48.2737968 Z M291.045989,48.2737968 L290.618182,48.2737968 L290.618182,40.8213904 L291.045989,40.8213904 L291.045989,48.2737968 Z M296.034225,48.2737968 L295.606417,48.2737968 L295.606417,40.8213904 L296.034225,40.8213904 L296.034225,48.2737968 Z M301.664171,51.9187166 L300.808556,51.9187166 L300.808556,40.7957219 L301.664171,40.7957219 L301.664171,51.9187166 Z M306.909091,48.2737968 L306.481283,48.2737968 L306.481283,40.8213904 L306.909091,40.8213904 L306.909091,48.2737968 Z M311.897326,48.2737968 L311.469519,48.2737968 L311.469519,40.8213904 L311.897326,40.8213904 L311.897326,48.2737968 Z M316.885561,48.2737968 L316.457754,48.2737968 L316.457754,40.8213904 L316.885561,40.8213904 L316.885561,48.2737968 Z M321.873797,48.2737968 L321.445989,48.2737968 L321.445989,40.8213904 L321.873797,40.8213904 L321.873797,48.2737968 Z M326.862032,48.2737968 L326.434225,48.2737968 L326.434225,40.8213904 L326.862032,40.8213904 L326.862032,48.2737968 Z M332.389305,51.9187166 L331.53369,51.9187166 L331.53369,40.7957219 L332.389305,40.7957219 L332.389305,51.9187166 Z M337.82246,48.2737968 L337.394652,48.2737968 L337.394652,40.8213904 L337.82246,40.8213904 L337.82246,48.2737968 Z M342.810695,48.2737968 L342.382888,48.2737968 L342.382888,40.8213904 L342.810695,40.8213904 L342.810695,48.2737968 Z M347.79893,48.2737968 L347.379679,48.2737968 L347.379679,40.8213904 L347.807487,40.8213904 L347.79893,48.2737968 Z M352.787166,48.2737968 L352.359358,48.2737968 L352.359358,40.8213904 L352.787166,40.8213904 L352.787166,48.2737968 Z M357.775401,48.2737968 L357.347594,48.2737968 L357.347594,40.8213904 L357.775401,40.8213904 L357.775401,48.2737968 Z M363.114439,51.9187166 L362.258824,51.9187166 L362.258824,40.7957219 L363.114439,40.7957219 L363.114439,51.9187166 Z M368.248128,48.2737968 L367.914439,48.2737968 L367.914439,40.8213904 L368.342246,40.8213904 L368.248128,48.2737968 Z M373.236364,48.2737968 L372.808556,48.2737968 L372.808556,40.8213904 L373.236364,40.8213904 L373.236364,48.2737968 Z M378.224599,48.2737968 L377.796791,48.2737968 L377.796791,40.8213904 L378.224599,40.8213904 L378.224599,48.2737968 Z M383.212834,48.2737968 L382.785027,48.2737968 L382.785027,40.8213904 L383.212834,40.8213904 L383.212834,48.2737968 Z M388.20107,48.2737968 L387.773262,48.2737968 L387.773262,40.8213904 L388.20107,40.8213904 L388.20107,48.2737968 Z M393.82246,51.9187166 L392.966845,51.9187166 L392.966845,40.7957219 L393.82246,40.7957219 L393.82246,51.9187166 Z" id="Shape" fill="#FFCD00" fill-rule="nonzero"></path>
                    <polygon id="Path" fill="#252525" fill-rule="nonzero" points="410.070588 42.2930481 410.070588 34.8406417 409.839572 34.8406417 409.608556 35.0887701 409.608556 42.2930481"></polygon>
                    <polygon id="Path" fill="#252525" fill-rule="nonzero" points="410.070588 34.626738 409.873797 34.8406417 410.070588 34.8406417"></polygon>
                    <polygon id="Path" fill="#252525" fill-rule="nonzero" points="412.346524 39.1700535 412.346524 31.7176471 412.303743 31.7176471 411.918717 32.3080214 411.918717 39.1529412"></polygon>
                    <polygon id="Path" fill="#252525" fill-rule="nonzero" points="412.346524 31.657754 412.303743 31.7433155 412.346524 31.7433155"></polygon>
                    <polygon id="Path" fill="#252525" fill-rule="nonzero" points="407.170053 44.7657754 407.170053 37.313369 406.95615 37.313369 406.742246 37.4502674 406.742246 44.7657754"></polygon>
                    <polygon id="Path" fill="#252525" fill-rule="nonzero" points="407.170053 37.1508021 406.95615 37.313369 407.170053 37.313369"></polygon>
                    <polygon id="Path" fill="#252525" fill-rule="nonzero" points="398.904813 47.9144385 398.904813 40.4363636 398.904813 40.4363636 398.477005 40.513369 398.477005 47.9144385"></polygon>
                    <polygon id="Path" fill="#252525" fill-rule="nonzero" points="403.610695 46.5625668 403.610695 39.1101604 403.610695 39.1101604 403.2 39.2812834 403.2 46.5625668"></polygon>
                    <rect id="Rectangle" fill="#252525" fill-rule="nonzero" x="367.88877" y="40.8213904" width="1" height="7.45240642"></rect>
                    <rect id="Rectangle" fill="#252525" fill-rule="nonzero" x="357.390374" y="40.8213904" width="1" height="7.45240642"></rect>
                    <rect id="Rectangle" fill="#252525" fill-rule="nonzero" x="352.402139" y="40.8213904" width="1" height="7.45240642"></rect>
                    <rect id="Rectangle" fill="#252525" fill-rule="nonzero" x="342.425668" y="40.8213904" width="1" height="7.45240642"></rect>
                    <rect id="Rectangle" fill="#252525" fill-rule="nonzero" x="347.413904" y="40.8213904" width="1" height="7.45240642"></rect>
                    <rect id="Rectangle" fill="#252525" fill-rule="nonzero" x="337.437433" y="40.8213904" width="1" height="7.45240642"></rect>
                    <rect id="Rectangle" fill="#252525" fill-rule="nonzero" x="326.477005" y="40.8213904" width="1" height="7.45240642"></rect>
                    <rect id="Rectangle" fill="#252525" fill-rule="nonzero" x="321.48877" y="40.8213904" width="1" height="7.45240642"></rect>
                    <rect id="Rectangle" fill="#252525" fill-rule="nonzero" x="311.512299" y="40.8213904" width="1" height="7.45240642"></rect>
                    <rect id="Rectangle" fill="#252525" fill-rule="nonzero" x="316.500535" y="40.8213904" width="1" height="7.45240642"></rect>
                    <rect id="Rectangle" fill="#252525" fill-rule="nonzero" x="306.524064" y="40.8213904" width="1" height="7.45240642"></rect>
                    <rect id="Rectangle" fill="#252525" fill-rule="nonzero" x="295.649198" y="40.8213904" width="1" height="7.45240642"></rect>
                    <rect id="Rectangle" fill="#252525" fill-rule="nonzero" x="290.660963" y="40.8213904" width="1" height="7.45240642"></rect>
                    <rect id="Rectangle" fill="#252525" fill-rule="nonzero" x="280.684492" y="40.8213904" width="1" height="7.45240642"></rect>
                    <rect id="Rectangle" fill="#252525" fill-rule="nonzero" x="285.672727" y="40.8213904" width="1" height="7.45240642"></rect>
                    <rect id="Rectangle" fill="#252525" fill-rule="nonzero" x="275.696257" y="40.8213904" width="1" height="7.45240642"></rect>
                    <rect id="Rectangle" fill="#252525" fill-rule="nonzero" x="265.112299" y="40.8213904" width="1" height="7.45240642"></rect>
                    <rect id="Rectangle" fill="#252525" fill-rule="nonzero" x="260.124064" y="40.8213904" width="1" height="7.45240642"></rect>
                    <rect id="Rectangle" fill="#252525" fill-rule="nonzero" x="250.147594" y="40.8213904" width="1" height="7.45240642"></rect>
                    <rect id="Rectangle" fill="#252525" fill-rule="nonzero" x="255.135829" y="40.8213904" width="1" height="7.45240642"></rect>
                    <rect id="Rectangle" fill="#252525" fill-rule="nonzero" x="245.159358" y="40.8213904" width="1" height="7.45240642"></rect>
                    <rect id="Rectangle" fill="#252525" fill-rule="nonzero" x="234.190374" y="40.8213904" width="1" height="7.45240642"></rect>
                    <rect id="Rectangle" fill="#252525" fill-rule="nonzero" x="229.202139" y="40.8213904" width="1" height="7.45240642"></rect>
                    <rect id="Rectangle" fill="#252525" fill-rule="nonzero" x="219.225668" y="40.8213904" width="1" height="7.45240642"></rect>
                    <rect id="Rectangle" fill="#252525" fill-rule="nonzero" x="224.213904" y="40.8213904" width="1" height="7.45240642"></rect>
                    <rect id="Rectangle" fill="#252525" fill-rule="nonzero" x="214.237433" y="40.8213904" width="1" height="7.45240642"></rect>
                    <rect id="Rectangle" fill="#252525" fill-rule="nonzero" x="204.312299" y="40.8213904" width="1" height="7.45240642"></rect>
                    <rect id="Rectangle" fill="#252525" fill-rule="nonzero" x="199.324064" y="40.8213904" width="1" height="7.45240642"></rect>
                    <rect id="Rectangle" fill="#252525" fill-rule="nonzero" x="189.347594" y="40.8213904" width="1" height="7.45240642"></rect>
                    <rect id="Rectangle" fill="#252525" fill-rule="nonzero" x="194.335829" y="40.8213904" width="1" height="7.45240642"></rect>
                    <rect id="Rectangle" fill="#252525" fill-rule="nonzero" x="362.301604" y="40.8213904" width="1" height="11.0973262"></rect>
                    <rect id="Rectangle" fill="#252525" fill-rule="nonzero" x="331.576471" y="40.8213904" width="1" height="11.0973262"></rect>
                    <rect id="Rectangle" fill="#252525" fill-rule="nonzero" x="300.851337" y="40.8213904" width="1" height="11.0973262"></rect>
                    <rect id="Rectangle" fill="#252525" fill-rule="nonzero" x="270.117647" y="40.8213904" width="1" height="11.0973262"></rect>
                    <rect id="Rectangle" fill="#252525" fill-rule="nonzero" x="239.392513" y="40.8213904" width="1" height="11.0973262"></rect>
                    <rect id="Rectangle" fill="#252525" fill-rule="nonzero" x="208.658824" y="40.8213904" width="1" height="11.0973262"></rect>
                    <circle id="Oval" fill="#FF9E18" fill-rule="nonzero" cx="313.634225" cy="183.66631" r="3.42245989"></circle>
                    <circle id="Oval" fill="#FF9E18" fill-rule="nonzero" cx="330.746524" cy="183.66631" r="3.42245989"></circle>
                    <rect id="Rectangle" fill="#FF9E18" fill-rule="nonzero" x="344.436364" y="180.24385" width="64.2994652" height="6.84491979" rx="3.42245989"></rect>
                    <circle id="Oval" fill="#FF9E18" fill-rule="nonzero" cx="313.634225" cy="205.279144" r="3.42245989"></circle>
                    <rect id="Rectangle" fill="#FF9E18" fill-rule="nonzero" x="327.324064" y="201.856684" width="64.2994652" height="6.84491979" rx="3.42245989"></rect>
                </g>
            </g>
        </g>
    </g>
</svg>