<?xml version="1.0" encoding="UTF-8"?>
<svg width="330px" height="260px" viewBox="0 0 330 260" version="1.1" xmlns="http://www.w3.org/2000/svg" xmlns:xlink="http://www.w3.org/1999/xlink">
    <title>bg_geer</title>
    <g id="Page-1" stroke="none" stroke-width="1" fill="none" fill-rule="evenodd" fill-opacity="0.2">
        <g id="16GRID-web-기획안-1" transform="translate(-373.000000, -1540.000000)" fill="#FFCD00">
            <g id="WhatWeDo" transform="translate(0.000000, 950.000000)">
                <g id="bg_geer" transform="translate(373.000000, 590.000000)">
                    <path d="M109.3593,145.8829 C89.1373,145.8829 72.7433,129.4889 72.7433,109.2669 C72.7433,89.0449 89.1373,72.6519 109.3593,72.6519 C129.5813,72.6519 145.9753,89.0449 145.9753,109.2669 C145.9753,129.4889 129.5813,145.8829 109.3593,145.8829 M201.2083,109.8029 C201.2083,99.9609 208.9803,91.9559 218.7183,91.5349 C215.9763,74.4909 209.3513,58.7459 199.7703,45.2409 C192.5943,51.9849 181.3183,51.8679 174.3063,44.8559 C167.2653,37.8139 167.1733,26.4729 174.0013,19.3019 C160.5073,9.5889 144.7393,2.8409 127.6493,0.0009 C127.4583,9.9459 119.3503,17.9529 109.3593,17.9529 C99.3673,17.9529 91.2603,9.9459 91.0693,0.0009 C73.9793,2.8409 58.2113,9.5889 44.7173,19.3019 C51.5453,26.4729 51.4533,37.8139 44.4123,44.8559 C37.3993,51.8679 26.1243,51.9849 18.9473,45.2409 C9.3673,58.7459 2.7423,74.4909 0.0003,91.5349 C9.7383,91.9559 17.5093,99.9609 17.5093,109.8029 C17.5093,119.5849 9.8313,127.5519 0.1753,128.0609 C3.0663,144.9709 9.7863,160.5719 19.4163,173.9409 C26.6083,167.6309 37.5503,167.8879 44.4123,174.7499 C51.2453,181.5829 51.5303,192.4649 45.3013,199.6569 C58.6793,209.1539 74.2593,215.7489 91.1233,218.5429 C91.8483,209.0959 99.7263,201.6519 109.3593,201.6519 C118.9923,201.6519 126.8703,209.0959 127.5953,218.5429 C144.4593,215.7489 160.0393,209.1539 173.4173,199.6569 C167.1883,192.4649 167.4733,181.5829 174.3063,174.7499 C181.1683,167.8879 192.1103,167.6309 199.3023,173.9409 C208.9313,160.5719 215.6523,144.9709 218.5423,128.0609 C208.8873,127.5519 201.2083,119.5849 201.2083,109.8029" id="Fill-1" style="mix-blend-mode: multiply;"></path>
                    <path d="M283.5595,229.5738 C275.1535,229.5738 268.3385,222.7588 268.3385,214.3528 C268.3385,205.9468 275.1535,199.1318 283.5595,199.1318 C291.9655,199.1318 298.7805,205.9468 298.7805,214.3528 C298.7805,222.7588 291.9655,229.5738 283.5595,229.5738 M321.7405,214.5748 C321.7405,210.4838 324.9715,207.1568 329.0195,206.9818 C327.8795,199.8968 325.1255,193.3508 321.1425,187.7378 C318.1595,190.5408 313.4725,190.4918 310.5575,187.5768 C307.6305,184.6498 307.5925,179.9358 310.4305,176.9548 C304.8215,172.9168 298.2675,170.1118 291.1625,168.9308 C291.0825,173.0658 287.7125,176.3938 283.5595,176.3938 C279.4065,176.3938 276.0355,173.0658 275.9565,168.9308 C268.8515,170.1118 262.2975,172.9168 256.6875,176.9548 C259.5265,179.9358 259.4885,184.6498 256.5605,187.5768 C253.6455,190.4918 248.9585,190.5408 245.9755,187.7378 C241.9935,193.3508 239.2395,199.8968 238.0995,206.9818 C242.1475,207.1568 245.3785,210.4838 245.3785,214.5748 C245.3785,218.6418 242.1855,221.9538 238.1725,222.1658 C239.3735,229.1948 242.1675,235.6798 246.1705,241.2368 C249.1605,238.6148 253.7085,238.7208 256.5605,241.5738 C259.4015,244.4138 259.5205,248.9368 256.9315,251.9278 C262.4925,255.8748 268.9685,258.6168 275.9785,259.7778 C276.2805,255.8508 279.5555,252.7568 283.5595,252.7568 C287.5635,252.7568 290.8385,255.8508 291.1405,259.7778 C298.1505,258.6168 304.6265,255.8748 310.1875,251.9278 C307.5985,248.9368 307.7165,244.4138 310.5575,241.5738 C313.4105,238.7208 317.9585,238.6148 320.9485,241.2368 C324.9515,235.6798 327.7445,229.1948 328.9465,222.1658 C324.9325,221.9538 321.7405,218.6418 321.7405,214.5748" id="Fill-3" style="mix-blend-mode: multiply;"></path>
                </g>
            </g>
        </g>
    </g>
</svg>