<?xml version="1.0" encoding="UTF-8"?>
<svg width="148px" height="111px" viewBox="0 0 148 111" version="1.1" xmlns="http://www.w3.org/2000/svg" xmlns:xlink="http://www.w3.org/1999/xlink">
    <title>image_delivery</title>
    <g id="Page-1" stroke="none" stroke-width="1" fill="none" fill-rule="evenodd">
        <g id="16GRID-web-기획안-1" transform="translate(-1032.000000, -3045.000000)" fill-rule="nonzero">
            <g id="Clients" transform="translate(375.000000, 2333.000000)">
                <g id="deliveryhero" transform="translate(657.000000, 589.000000)">
                    <g id="image_delivery" transform="translate(0.000000, 123.000000)">
                        <path d="M7.4,0 L140.6,0 C144.67,0 148,3.33 148,7.4 L148,103.6 C148,107.67 144.67,111 140.6,111 L7.4,111 C3.33,111 0,107.67 0,103.6 L0,7.4 C0,3.33 3.33,0 7.4,0 Z" id="Path" fill="#3F3F3F"></path>
                        <path d="M9.86666667,3.08333333 L138.133333,3.08333333 C141.525,3.08333333 144.3,5.85833333 144.3,9.25 L144.3,101.75 C144.3,105.141667 141.525,107.916667 138.133333,107.916667 L9.86666667,107.916667 C6.475,107.916667 3.7,105.141667 3.7,101.75 L3.7,9.25 C3.7,5.85833333 6.475,3.08333333 9.86666667,3.08333333 Z" id="Path" fill="#252525"></path>
                        <path d="M10.6683333,6.72166667 L137.27,6.72166667 C139.058333,6.72166667 140.538333,8.20166667 140.538333,9.99 L140.538333,100.825 C140.538333,102.613333 139.058333,104.093333 137.27,104.093333 L10.6683333,104.093333 C8.88,104.093333 7.4,102.613333 7.4,100.825 L7.4,9.99 C7.4,8.20166667 8.88,6.72166667 10.6683333,6.72166667 Z" id="Path" fill="#FFCD00"></path>
                        <path d="M77.145,78.9333333 C75.0483333,74.2466667 70.1766667,70.5466667 70.0533333,70.4233333 C65.7983333,66.5383333 57.2883333,65.0583333 48.5933333,64.8733333 C38.7266667,64.6883333 28.305,65.9833333 23.3716667,70.4233333 C23.2483333,70.5466667 18.3766667,74.185 16.28,78.8716667 C14.3683333,83.1883333 15.0466667,96.6316667 16.3416667,103.6 L77.0833333,103.6 C78.3783333,96.6933333 79.0566667,83.3116667 77.145,78.9333333 Z" id="Path" fill="#B4BD00"></path>
                        <path d="M43.5366667,35.2116667 L49.21,35.2116667 C53.4033333,35.2116667 56.795,38.6033333 56.795,42.7966667 L56.795,54.205 C56.795,58.3983333 53.4033333,61.79 49.21,61.79 L43.5366667,61.79 C39.3433333,61.79 35.9516667,58.3983333 35.9516667,54.205 L35.9516667,42.7966667 C35.89,38.6033333 39.3433333,35.2116667 43.5366667,35.2116667 Z" id="Path" fill="#FFFFFF"></path>
                        <path d="M46.3733333,73.3216667 L46.3733333,73.3216667 C43.2283333,73.3216667 40.7,70.7933333 40.7,67.6483333 L40.7,65.7366667 C40.7,62.5916667 43.29,65.7366667 46.3733333,65.7366667 L46.3733333,65.7366667 C49.5183333,65.7366667 52.0466667,62.5916667 52.0466667,65.7366667 L52.0466667,67.6483333 C52.0466667,70.7933333 49.5183333,73.3216667 46.3733333,73.3216667 Z" id="Path" fill="#3A3A3A" opacity="0.3"></path>
                        <path d="M46.3733333,44.8316667 L46.3733333,44.8316667 C49.5183333,44.8316667 52.0466667,47.36 52.0466667,50.505 L52.0466667,65.7366667 C52.0466667,68.8816667 49.5183333,71.41 46.3733333,71.41 L46.3733333,71.41 C43.2283333,71.41 40.7,68.8816667 40.7,65.7366667 L40.7,50.505 C40.6383333,47.36 43.2283333,44.8316667 46.3733333,44.8316667 Z" id="Path" fill="#FFFFFF"></path>
                        <path d="M46.62,56.24 C46.3116667,56.24 45.9416667,56.1783333 45.51,56.055 C45.4483333,56.055 45.3866667,55.9316667 45.3866667,55.87 C45.3866667,55.8083333 45.51,55.7466667 45.5716667,55.7466667 C47.73,56.3633333 48.5316667,54.945 48.5933333,54.8833333 C48.655,54.8216667 48.7166667,54.76 48.7783333,54.8216667 C48.84,54.8833333 48.9016667,54.945 48.84,55.0066667 C48.84,55.0683333 48.2233333,56.24 46.62,56.24 Z" id="Path" fill="#252525"></path>
                        <path d="M46.805,51.5533333 C46.7433333,51.5533333 46.6816667,51.4916667 46.6816667,51.43 C46.4966667,50.9366667 46.3733333,50.9366667 46.3116667,50.9366667 L46.3116667,50.9366667 C46.1883333,50.9366667 46.065,51.1833333 45.9416667,51.3683333 C45.88,51.43 45.8183333,51.4916667 45.7566667,51.43 C45.695,51.43 45.6333333,51.3066667 45.695,51.245 C45.7566667,51.1216667 45.9416667,50.6283333 46.3116667,50.6283333 L46.3116667,50.6283333 C46.5583333,50.6283333 46.7433333,50.875 46.9283333,51.3066667 C46.9283333,51.43 46.9283333,51.5533333 46.805,51.5533333 C46.805,51.5533333 46.805,51.5533333 46.805,51.5533333 Z" id="Path" fill="#252525"></path>
                        <path d="M36.6916667,42.6116667 C38.9116667,40.515 46.99,42.6116667 48.5933333,41.44 C49.21,40.8233333 49.7033333,40.145 50.0733333,39.3433333 C50.2583333,40.0216667 50.2583333,40.7616667 50.0733333,41.44 C49.58,42.6116667 52.8483333,40.145 52.9716667,39.7133333 C53.1566667,39.1583333 53.5883333,40.885 54.0816667,41.44 C54.575,41.995 55.7466667,41.8716667 56.425,43.1666667 C57.1033333,44.4616667 56.7333333,48.5316667 56.7333333,48.5316667 C58.2133333,48.9016667 61.235,40.885 59.5083333,36.63 C58.0283333,33.0533333 55.1916667,28.9216667 50.8133333,29.6616667 C46.435,30.4016667 44.6466667,27.8116667 39.7133333,29.5383333 C34.1016667,31.5116667 32.93,33.7316667 32.3133333,37.9866667 C31.8816667,40.8233333 34.1633333,48.5316667 36.0133333,48.5316667 C35.9516667,48.4083333 35.5816667,43.66 36.6916667,42.6116667 Z" id="Path" fill="#252525"></path>
                        <path d="M135.79,104.155 L12.21,104.155 C9.55833333,104.155 7.4,103.168333 7.4,101.873333 L135.79,6.72166667 C138.441667,6.72166667 140.6,7.77 140.6,9.00333333 L140.6,101.873333 C140.6,103.106667 138.441667,104.155 135.79,104.155 Z" id="Path" fill="#666666" opacity="0.11"></path>
                        <path d="M137.331667,7.33833333 C138.811667,7.33833333 139.983333,8.51 139.983333,9.99 L139.983333,100.825 C139.983333,102.305 138.811667,103.476667 137.331667,103.476667 L10.6683333,103.476667 C9.18833333,103.476667 8.01666667,102.305 8.01666667,100.825 L8.01666667,9.99 C8.01666667,8.51 9.18833333,7.33833333 10.6683333,7.33833333 L137.331667,7.33833333 M137.331667,6.72166667 L10.6683333,6.72166667 C8.88,6.72166667 7.4,8.20166667 7.4,9.99 L7.4,100.825 C7.4,102.613333 8.88,104.093333 10.6683333,104.093333 L137.27,104.093333 C139.058333,104.093333 140.538333,102.613333 140.538333,100.825 L140.538333,9.99 C140.6,8.20166667 139.12,6.72166667 137.331667,6.72166667 Z" id="Shape" fill="#666666"></path>
                        <path d="M93.7333333,55.6233333 C94.7816667,55.6233333 95.5833333,56.425 95.5833333,57.4733333 C95.5833333,58.5216667 94.7816667,59.3233333 93.7333333,59.3233333 C92.685,59.3233333 91.8833333,58.5216667 91.8833333,57.4733333 C91.8833333,56.425 92.685,55.6233333 93.7333333,55.6233333 M93.7333333,54.39 C92.0066667,54.39 90.65,55.7466667 90.65,57.4733333 C90.65,59.2 92.0066667,60.5566667 93.7333333,60.5566667 C95.46,60.5566667 96.8166667,59.2 96.8166667,57.4733333 C96.8166667,55.7466667 95.46,54.39 93.7333333,54.39 Z" id="Shape" fill="#252525"></path>
                        <rect id="Rectangle" fill="#252525" x="100.516667" y="55.6233333" width="22.2" height="3.7"></rect>
                        <path d="M93.7333333,67.7716667 C94.7816667,67.7716667 95.5833333,68.5733333 95.5833333,69.6216667 C95.5833333,70.67 94.7816667,71.4716667 93.7333333,71.4716667 C92.685,71.4716667 91.8833333,70.67 91.8833333,69.6216667 C91.8833333,68.5733333 92.685,67.7716667 93.7333333,67.7716667 L93.7333333,67.7716667 M93.7333333,66.5383333 C92.0066667,66.5383333 90.65,67.895 90.65,69.6216667 C90.65,71.3483333 92.0066667,72.705 93.7333333,72.705 C95.46,72.705 96.8166667,71.3483333 96.8166667,69.6216667 C96.8166667,67.895 95.46,66.5383333 93.7333333,66.5383333 Z" id="Shape" fill="#252525"></path>
                        <rect id="Rectangle" fill="#252525" x="100.516667" y="67.7716667" width="22.2" height="3.7"></rect>
                        <path d="M93.7333333,79.8583333 C94.7816667,79.8583333 95.5833333,80.66 95.5833333,81.7083333 C95.5833333,82.7566667 94.7816667,83.5583333 93.7333333,83.5583333 C92.685,83.5583333 91.8833333,82.7566667 91.8833333,81.7083333 C91.8833333,80.66 92.685,79.8583333 93.7333333,79.8583333 M93.7333333,78.625 C92.0066667,78.625 90.65,79.9816667 90.65,81.7083333 C90.65,83.435 92.0066667,84.7916667 93.7333333,84.7916667 C95.46,84.7916667 96.8166667,83.435 96.8166667,81.7083333 C96.8166667,79.9816667 95.46,78.625 93.7333333,78.625 Z" id="Shape" fill="#252525"></path>
                        <rect id="Rectangle" fill="#252525" x="100.516667" y="79.8583333" width="22.2" height="3.7"></rect>
                        <path d="M93.7333333,91.945 C94.7816667,91.945 95.5833333,92.7466667 95.5833333,93.795 C95.5833333,94.8433333 94.7816667,95.645 93.7333333,95.645 C92.685,95.645 91.8833333,94.8433333 91.8833333,93.795 C91.8833333,92.7466667 92.685,91.945 93.7333333,91.945 M93.7333333,90.7116667 C92.0066667,90.7116667 90.65,92.0683333 90.65,93.795 C90.65,95.5216667 92.0066667,96.8783333 93.7333333,96.8783333 C95.46,96.8783333 96.8166667,95.5216667 96.8166667,93.795 C96.8166667,92.0683333 95.46,90.7116667 93.7333333,90.7116667 Z" id="Shape" fill="#252525"></path>
                        <rect id="Rectangle" fill="#252525" x="100.516667" y="91.945" width="22.2" height="3.7"></rect>
                        <polygon id="Path" fill="#252525" points="93.795 58.7066667 90.65 55.9316667 91.8833333 54.575 93.7333333 56.1783333 97.4333333 52.4166667 98.7283333 53.7733333"></polygon>
                        <g id="Group" transform="translate(89.416667, 32.066667)" fill="#252525">
                            <polygon id="Path" points="7.33833333 3.145 4.81 9.86666667 2.83666667 9.86666667 0.246666667 3.145 2.65166667 3.145 3.82333333 7.09166667 4.995 3.145"></polygon>
                            <path d="M8.07833333,3.145 L10.2366667,3.145 L10.2366667,9.86666667 L8.07833333,9.86666667 L8.07833333,3.145 Z M8.07833333,0.308333333 L10.2366667,0.308333333 L10.2366667,2.28166667 L8.07833333,2.28166667 L8.07833333,0.308333333 Z" id="Shape"></path>
                            <path d="M14.06,10.0516667 C12.3333333,10.0516667 11.285,9.065 11.285,7.64666667 L13.3816667,7.64666667 C13.3816667,8.14 13.69,8.38666667 14.1216667,8.38666667 C14.43,8.38666667 14.7383333,8.20166667 14.7383333,7.89333333 C14.7383333,7.52333333 14.245,7.4 13.6283333,7.27666667 C12.6416667,7.09166667 11.3466667,6.78333333 11.3466667,5.18 C11.3466667,3.82333333 12.4566667,2.96 14.06,2.96 C15.6633333,2.96 16.7116667,3.885 16.7116667,5.24166667 L14.6766667,5.24166667 C14.6766667,4.81 14.43,4.625 13.9983333,4.625 C13.6283333,4.625 13.4433333,4.81 13.4433333,5.11833333 C13.4433333,5.48833333 13.9366667,5.61166667 14.5533333,5.67333333 C15.54,5.85833333 16.8966667,6.105 16.8966667,7.77 C16.835,9.12666667 15.725,10.0516667 14.06,10.0516667 L14.06,10.0516667 Z" id="Path"></path>
                            <path d="M17.8833333,3.145 L20.0416667,3.145 L20.0416667,9.86666667 L17.8833333,9.86666667 L17.8833333,3.145 Z M17.8833333,0.308333333 L20.0416667,0.308333333 L20.0416667,2.28166667 L17.8833333,2.28166667 L17.8833333,0.308333333 Z" id="Shape"></path>
                        </g>
                        <path d="M115.07,39.8983333 L115.07,41.9333333 L113.59,41.9333333 C112.171667,41.9333333 111.37,41.0083333 111.37,39.5283333 L111.37,37 L110.198333,37 L110.198333,36.445 L113.035,33.2383333 L113.466667,33.2383333 L113.466667,35.2116667 L115.07,35.2116667 L115.07,37 L113.528333,37 L113.528333,39.1583333 C113.528333,39.6516667 113.775,39.8983333 114.268333,39.8983333 L115.07,39.8983333 Z" id="Path" fill="#252525"></path>
                        <path d="M115.686667,38.5416667 C115.686667,36.445 117.166667,34.965 119.263333,34.965 C121.298333,34.965 122.84,36.445 122.84,38.5416667 C122.84,40.6383333 121.36,42.1183333 119.263333,42.1183333 C117.166667,42.1183333 115.686667,40.6383333 115.686667,38.5416667 Z M120.62,38.5416667 C120.62,37.6783333 120.065,37.0616667 119.263333,37.0616667 C118.461667,37.0616667 117.906667,37.6783333 117.906667,38.5416667 C117.906667,39.405 118.461667,40.0216667 119.263333,40.0216667 C120.065,40.0216667 120.62,39.4666667 120.62,38.5416667 Z" id="Shape" fill="#252525"></path>
                        <path d="M127.896667,35.15 L127.896667,37.2466667 L127.033333,37.2466667 C126.231667,37.2466667 125.923333,37.6166667 125.923333,38.48 L125.923333,41.9333333 L123.765,41.9333333 L123.765,35.2116667 L125.245,35.2116667 L125.615,35.9516667 C126.046667,35.3966667 126.601667,35.15 127.341667,35.15 L127.896667,35.15 L127.896667,35.15 Z" id="Path" fill="#252525"></path>
                    </g>
                </g>
            </g>
        </g>
    </g>
</svg>