<?xml version="1.0" encoding="UTF-8"?>
<svg width="148px" height="113px" viewBox="0 0 148 113" version="1.1" xmlns="http://www.w3.org/2000/svg" xmlns:xlink="http://www.w3.org/1999/xlink">
    <title>image_racos</title>
    <g id="Page-1" stroke="none" stroke-width="1" fill="none" fill-rule="evenodd">
        <g id="16GRID-web-기획안-1" transform="translate(-504.000000, -3048.000000)" fill-rule="nonzero">
            <g id="Clients" transform="translate(375.000000, 2333.000000)">
                <g id="racos" transform="translate(129.000000, 589.000000)">
                    <g id="image_racos" transform="translate(0.000000, 126.000000)">
                        <g id="wifi" transform="translate(62.878248, 39.713333)" fill="#FFCD00">
                            <path d="M7.85341884,-1.3933743e-13 C8.53175217,-1.3933743e-13 9.14841884,0.555 9.14841884,1.295 C9.14841884,1.665 9.0250855,1.97333333 8.71675217,2.28166667 C1.0700855,9.31166667 0.515085504,21.1516667 7.48341884,28.7983333 L7.48341884,28.7983333 C7.85341884,29.23 8.34675217,29.6616667 8.71675217,30.0316667 C9.2100855,30.525 9.27175217,31.3266667 8.77841884,31.8816667 C8.2850855,32.4366667 7.48341884,32.4366667 6.9900855,31.9433333 L6.9900855,31.9433333 C-1.76658116,23.9883333 -2.38324783,10.4216667 5.63341884,1.665 C6.0650855,1.17166667 6.55841884,0.74 6.9900855,0.308333333 C7.29841884,0.123333333 7.60675217,0.0616666667 7.85341884,-1.3933743e-13 L7.85341884,-1.3933743e-13 Z" id="Path"></path>
                            <path d="M17.9050855,3.885 C18.5834188,3.885 19.2000855,4.44 19.2000855,5.18 C19.2000855,5.48833333 19.0767522,5.85833333 18.7684188,6.16666667 C13.1567522,11.2233333 12.7250855,19.795 17.7817522,25.4066667 C18.0284188,25.715 18.3984188,26.0233333 18.7684188,26.3933333 C19.2617522,26.8866667 19.3234188,27.6883333 18.8300855,28.1816667 C18.3367522,28.675 17.5350855,28.7366667 16.9800855,28.305 C10.3817522,22.2616667 9.82675217,12.025 15.8700855,5.42666667 L15.8700855,5.42666667 C16.1784188,5.05666667 16.5484188,4.625 16.9800855,4.31666667 C17.2267522,4.00833333 17.5350855,3.885 17.9050855,3.885 L17.9050855,3.885 Z" id="Path"></path>
                            <path d="M28.2650855,7.52333333 C28.9434188,7.52333333 29.5600855,8.07833333 29.5600855,8.81833333 C29.5600855,9.12666667 29.4367522,9.49666667 29.1284188,9.805 C25.6134188,13.0116667 25.3667522,18.4383333 28.5117522,22.015 L28.5117522,22.015 C28.6967522,22.2616667 28.9434188,22.4466667 29.1284188,22.6316667 C29.6217522,23.125 29.6834188,23.9266667 29.2517522,24.42 C28.8200855,24.9133333 27.9567522,24.975 27.4017522,24.5433333 L27.3400855,24.4816667 L27.3400855,24.4816667 C22.7767522,20.2883333 22.4684188,13.2583333 26.5384188,8.63333333 L26.5384188,8.63333333 C26.7850855,8.38666667 27.0317522,8.14 27.3400855,7.83166667 C27.6484188,7.64666667 27.9567522,7.52333333 28.2650855,7.52333333 Z" id="Path"></path>
                        </g>
                        <g id="phone" transform="translate(103.600000, 0.000000)">
                            <path d="M3.94666667,0 L40.515,0 C42.6733333,0 44.4,1.72666667 44.4,3.885 L44.4,80.105 C44.4,82.2633333 42.6733333,83.99 40.515,83.99 L3.885,83.99 C1.72666667,83.99 -1.75267208e-14,82.2633333 -1.75267208e-14,80.105 L-1.75267208e-14,3.885 C0.0616666667,1.72666667 1.78833333,0 3.94666667,0 Z" id="Path" fill="#252525"></path>
                            <path d="M39.8983333,1.54166667 L33.855,1.54166667 C33.67,1.54166667 33.4233333,1.665 33.4233333,1.85 L33.4233333,1.85 L33.4233333,2.15833333 C33.4233333,3.02166667 32.745,3.7 31.8816667,3.7 L12.4566667,3.7 C11.5933333,3.7 10.915,2.96 10.915,2.15833333 L10.915,1.97333333 C10.915,1.78833333 10.7916667,1.54166667 10.6066667,1.54166667 L10.6066667,1.54166667 L4.56333333,1.54166667 C2.89833333,1.54166667 1.48,2.96 1.48,4.68666667 L1.48,79.3033333 C1.48,81.03 2.89833333,82.4483333 4.56333333,82.4483333 L39.96,82.4483333 C41.625,82.4483333 43.0433333,81.03 43.0433333,79.3033333 L43.0433333,4.68666667 C43.0433333,2.96 41.625,1.54166667 39.8983333,1.54166667 Z" id="Path" fill="#FFCD00"></path>
                            <path d="M39.8983333,1.85 C41.3783333,1.85 42.6733333,3.145 42.6733333,4.625 L42.6733333,79.2416667 C42.6733333,80.7216667 41.44,82.0166667 39.8983333,82.0166667 L4.56333333,82.0166667 C3.08333333,82.0166667 1.85,80.7216667 1.85,79.2416667 L1.85,4.68666667 C1.85,3.20666667 3.08333333,1.91166667 4.56333333,1.91166667 L10.6066667,1.91166667 L10.6066667,2.22 C10.6066667,3.26833333 11.47,4.19333333 12.58,4.19333333 L31.9433333,4.19333333 C32.9916667,4.19333333 33.9166667,3.33 33.9166667,2.22 L33.9166667,1.85 L39.8983333,1.85 M39.96,1.54166667 L33.855,1.54166667 C33.67,1.54166667 33.4233333,1.665 33.4233333,1.85 L33.4233333,1.85 L33.4233333,2.15833333 C33.4233333,3.02166667 32.745,3.7 31.8816667,3.7 L12.4566667,3.7 C11.5933333,3.7 10.915,2.96 10.915,2.15833333 L10.915,1.97333333 C10.915,1.78833333 10.7916667,1.54166667 10.6066667,1.54166667 L10.6066667,1.54166667 L4.56333333,1.54166667 C2.89833333,1.54166667 1.48,2.96 1.48,4.68666667 L1.48,79.3033333 C1.48,81.03 2.89833333,82.4483333 4.56333333,82.4483333 L39.96,82.4483333 C41.625,82.4483333 43.0433333,81.03 43.0433333,79.3033333 L43.0433333,4.68666667 C43.0433333,2.96 41.625,1.54166667 39.96,1.54166667 L39.96,1.54166667 Z" id="Shape" fill="#252525"></path>
                            <path d="M39.8983333,1.54166667 L33.855,1.54166667 C33.67,1.54166667 33.4233333,1.665 33.4233333,1.85 L33.4233333,1.85 L33.4233333,2.15833333 C33.4233333,3.02166667 32.745,3.7 31.8816667,3.7 L1.35666667,79.2416667 C1.35666667,80.9683333 2.775,82.3866667 4.44,82.3866667 L39.8366667,82.3866667 C41.5016667,82.3866667 42.92,80.9683333 42.92,79.2416667 L42.92,4.68666667 C43.0433333,2.96 41.625,1.54166667 39.8983333,1.54166667 Z" id="Path" fill="#666666" style="mix-blend-mode: screen;" opacity="0.6"></path>
                            <path d="M22.755,19.61 L23.0633333,19.61 C27.01,19.795 30.0933333,23.0633333 30.155,26.9483333 C30.2166667,30.6483333 27.6266667,33.7933333 23.9883333,34.41 L24.05,63.1466667 C24.05,63.825 23.495,64.4416667 22.8166667,64.4416667 L22.8166667,64.4416667 L22.8166667,64.4416667 C22.1383333,64.4416667 21.5216667,63.8866667 21.5216667,63.1466667 L21.5216667,60.0016667 L14.1833333,60.0016667 L14.1833333,57.4733333 L18.685,57.4733333 L18.685,53.7733333 L14.1216667,53.7733333 L14.1216667,51.3066667 L21.5833333,51.3066667 L21.5833333,34.41 C18.0066667,33.7933333 15.355,30.71 15.355,27.0716667 C15.2933333,23.0016667 18.685,19.61 22.755,19.61 L22.755,19.61 M22.8166667,32.0666667 C25.5916667,32.0666667 27.8116667,29.8466667 27.8116667,27.1333333 L27.8116667,27.1333333 C27.8116667,24.3583333 25.5916667,22.1383333 22.8166667,22.1383333 L22.8166667,22.1383333 C20.0416667,22.2 17.8833333,24.5433333 18.0683333,27.2566667 C18.13,29.9083333 20.2266667,31.9433333 22.8166667,32.0666667 L22.8166667,32.0666667 M22.755,18.6233333 C18.0683333,18.6233333 14.3066667,22.385 14.3066667,27.01 L14.3066667,27.01 C14.3066667,30.8333333 16.835,34.225 20.535,35.2116667 L20.5966667,50.32 L14.1833333,50.32 L13.1966667,50.32 L13.1966667,54.8216667 L17.76,54.8216667 L17.76,56.5483333 L13.1966667,56.5483333 L13.1966667,61.05 L14.1833333,61.05 L20.6583333,61.05 L20.6583333,63.1466667 C20.6583333,64.4416667 21.645,65.4283333 22.94,65.4283333 C24.235,65.4283333 25.2216667,64.4416667 25.2216667,63.1466667 L25.2216667,63.1466667 L25.16,35.2116667 C28.9216667,34.225 31.3883333,30.7716667 31.3266667,26.9483333 C31.2033333,22.4466667 27.6266667,18.87 23.1866667,18.6233333 L22.755,18.6233333 L22.755,18.6233333 Z M22.8166667,32.0666667 L22.8166667,31.08 C20.5966667,31.08 18.87,29.3533333 18.87,27.1333333 C18.87,24.975 20.5966667,23.2483333 22.8166667,23.2483333 L22.8166667,23.2483333 C25.0366667,23.2483333 26.7633333,24.975 26.7633333,27.195 C26.7633333,29.3533333 25.0366667,31.08 22.8166667,31.08 L22.8166667,31.08 L22.8166667,32.0666667 L22.8166667,32.0666667 Z" id="Shape" fill="#252525"></path>
                        </g>
                        <g id="doorlock" transform="translate(0.000000, 9.250000)">
                            <g id="Group">
                                <path d="M1.97333333,0.246666667 L47.2983333,0.246666667 C48.4083333,0.246666667 49.2716667,1.11 49.2716667,2.22 L49.2716667,99.6533333 C49.2716667,100.763333 48.3466667,101.626667 47.2983333,101.626667 L1.97333333,101.626667 C0.863333333,101.626667 0,100.701667 0,99.6533333 L0,2.22 C0,1.11 0.863333333,0.246666667 1.97333333,0.246666667 Z" id="Path" fill="#252525"></path>
                                <path d="M4.19333333,8.38666667 L45.0783333,8.38666667 C46.065,8.38666667 46.8666667,9.25 46.8666667,10.175 L46.8666667,97.4333333 C46.8666667,98.42 46.0033333,99.2216667 45.0783333,99.2216667 L4.19333333,99.2216667 C3.20666667,99.2216667 2.405,98.3583333 2.405,97.4333333 L2.405,10.175 C2.46666667,9.12666667 3.20666667,8.38666667 4.19333333,8.38666667 Z" id="Path" fill="#3F3F3F"></path>
                                <path d="M42.55,12.21 C43.0433333,12.21 43.475,12.58 43.475,13.135 L43.475,13.135 L43.475,72.2116667 C43.475,72.705 43.105,73.1366667 42.55,73.1366667 L6.72166667,73.1366667 C6.22833333,73.1366667 5.79666667,72.7666667 5.79666667,72.2116667 L5.79666667,13.0733333 C5.79666667,12.58 6.16666667,12.1483333 6.72166667,12.1483333 L42.55,12.21" id="Path" fill="#252525"></path>
                                <path d="M6.72166667,11.7166667 L42.55,11.7166667 C43.3516667,11.7166667 43.9683333,12.3333333 43.9683333,13.135 L43.9683333,72.2116667 C43.9683333,73.0133333 43.3516667,73.63 42.55,73.63 L6.72166667,73.63 C5.92,73.63 5.30333333,73.0133333 5.30333333,72.2116667 L5.30333333,13.0733333 C5.30333333,12.2716667 5.92,11.7166667 6.72166667,11.7166667 Z" id="Path" fill="#FFCD00"></path>
                                <path d="M42.55,11.9166667 C42.8907166,11.9166667 43.1810295,12.0309264 43.3924908,12.2331938 C43.6081873,12.4395122 43.7401229,12.7345228 43.7683333,13.0812291 L43.7683333,13.0812291 L43.7683333,72.2116667 C43.7683333,72.5559783 43.6371201,72.8612872 43.4183703,73.080037 C43.1996205,73.2987867 42.8943116,73.43 42.55,73.43 L42.55,73.43 L6.72166667,73.43 C6.37735507,73.43 6.07204613,73.2987867 5.85329636,73.080037 C5.63454658,72.8612872 5.50333333,72.5559783 5.50333333,72.2116667 L5.50333333,72.2116667 L5.50333333,13.135 C5.50333333,12.7906884 5.63454658,12.4853795 5.85329636,12.2666297 C6.07204613,12.0478799 6.37735507,11.9166667 6.72166667,11.9166667 L6.72166667,11.9166667 Z" id="Path" stroke="#252525" stroke-width="0.4"></path>
                                <path d="M42.6116667,73.63 L6.78333333,73.63 C5.98166667,73.63 5.365,73.0133333 5.365,72.2116667 L42.6116667,11.7783333 C43.4133333,11.7783333 44.03,12.395 44.03,13.1966667 L44.03,72.2733333 C43.9683333,72.9516667 43.4133333,73.63 42.6116667,73.63 Z" id="Path" fill="#666666" style="mix-blend-mode: screen;" opacity="0.6"></path>
                                <g transform="translate(11.716667, 24.050000)" fill="#252525" id="Shape">
                                    <path d="M23.7416667,18.5 L6.04333333,18.5 L4.44,13.9983333 C3.08333333,10.4833333 4.93333333,6.475 8.44833333,5.18 C11.9633333,3.885 15.91,5.67333333 17.2666667,9.18833333 C17.2666667,9.25 17.3283333,9.25 17.3283333,9.31166667 L18.2533333,11.9016667 C18.5,12.58 19.24,12.8883333 19.98,12.7033333 L21.275,12.21 C21.9533333,11.9633333 22.2616667,11.2233333 22.0766667,10.4833333 L21.2133333,8.14 C19.425,2.405 13.32,-0.801666667 7.64666667,0.986666667 C1.97333333,2.775 -1.295,8.88 0.493333333,14.5533333 C0.616666667,14.8 0.616666667,15.0466667 0.74,15.2316667 L1.91166667,18.3766667 C0.925,18.5 0.123333333,19.3633333 0.123333333,20.35 L0.123333333,28.49 C-2.8744368e-15,35.5816667 5.61166667,41.5016667 12.765,41.625 C19.9183333,41.7483333 25.7766667,36.1366667 25.9,28.9833333 C25.9,28.7983333 25.9,28.675 25.9,28.49 L25.9,20.535 C25.715,19.3633333 24.8516667,18.5 23.7416667,18.5 Z M2.28166667,7.4 C4.625,2.71333333 10.36,0.74 15.1083333,3.08333333 C17.39,4.19333333 19.1166667,6.22833333 19.9183333,8.63333333 L19.9183333,8.63333333 L20.7816667,10.9766667 C20.7816667,10.9766667 20.7816667,10.9766667 20.7816667,11.0383333 L20.7816667,11.0383333 L19.4866667,11.5316667 L19.425,11.5316667 L18.5,8.94166667 C17.02,4.68666667 12.3333333,2.52833333 8.14,4.07 C3.94666667,5.61166667 1.72666667,10.2983333 3.26833333,14.4916667 L3.26833333,14.4916667 L4.74833333,18.5616667 L3.145,18.5616667 L1.85,14.985 C0.986666667,12.4566667 1.11,9.74333333 2.28166667,7.4 Z M24.4816667,28.6133333 C24.3583333,34.965 19.055,40.145 12.6416667,40.0216667 C6.41333333,39.8983333 1.41833333,34.9033333 1.23333333,28.6133333 L1.23333333,20.4733333 C1.23333333,20.0416667 1.54166667,19.7333333 1.97333333,19.7333333 L1.97333333,19.7333333 L23.68,19.7333333 C24.1116667,19.7333333 24.42,20.0416667 24.42,20.4733333 L24.4816667,28.6133333 L24.4816667,28.6133333 Z"></path>
                                    <path d="M12.8266667,25.2833333 C11.3466667,25.2833333 10.175,26.5166667 10.175,27.9966667 C10.175,29.23 10.9766667,30.34 12.21,30.5866667 L12.21,32.745 C12.1483333,33.115 12.4566667,33.3616667 12.8266667,33.4233333 C13.1966667,33.485 13.4433333,33.1766667 13.505,32.8066667 C13.505,32.745 13.505,32.745 13.505,32.745 L13.505,30.5866667 C14.9233333,30.2783333 15.8483333,28.7983333 15.4783333,27.38 C15.17,26.1466667 14.1216667,25.2833333 12.8266667,25.2833333 Z M12.8266667,29.3533333 C12.025,29.3533333 11.47,28.7366667 11.47,27.9966667 C11.47,27.2566667 12.0866667,26.64 12.8266667,26.64 C13.5666667,26.64 14.1833333,27.2566667 14.1833333,27.9966667 C14.1833333,28.7366667 13.6283333,29.3533333 12.8266667,29.3533333 Z"></path>
                                </g>
                            </g>
                            <path d="M64.1333333,95.5833333 L13.5666667,95.5833333 C9.18833333,95.5833333 5.55,92.0066667 5.55,87.5666667 L5.55,87.5666667 C5.55,83.1883333 9.12666667,79.55 13.5666667,79.55 L64.1333333,79.55 C68.5116667,79.55 72.15,83.1266667 72.15,87.5666667 L72.15,87.5666667 C72.15,92.0066667 68.5733333,95.5833333 64.1333333,95.5833333 Z" id="Path" fill="#666666"></path>
                            <path d="M64.1333333,94.35 L13.5666667,94.35 C9.86666667,94.35 6.78333333,91.3283333 6.78333333,87.5666667 L6.78333333,87.5666667 C6.78333333,83.8666667 9.805,80.7833333 13.5666667,80.7833333 L64.1333333,80.7833333 C67.8333333,80.7833333 70.9166667,83.805 70.9166667,87.5666667 L70.9166667,87.5666667 C70.9166667,91.3283333 67.895,94.35 64.1333333,94.35 Z" id="Path" fill="#3F3F3F"></path>
                            <path d="M10.6066667,86.6416667 L14.3683333,86.6416667 C14.8616667,86.6416667 15.2316667,87.0733333 15.2316667,87.505 L15.2316667,87.6283333 C15.2316667,88.1216667 14.8,88.4916667 14.3683333,88.4916667 L10.6066667,88.4916667 C10.1133333,88.4916667 9.74333333,88.06 9.74333333,87.6283333 L9.74333333,87.505 C9.74333333,87.0733333 10.0516667,86.6416667 10.6066667,86.6416667 Z" id="Path" fill="#FFCD00"></path>
                            <path d="M14.3683333,88.4916667 L10.6066667,88.4916667 C10.1133333,88.4916667 14.3683333,86.6416667 14.3683333,86.6416667 C14.8616667,86.6416667 15.2316667,87.0116667 15.2316667,87.505 L15.2316667,87.505 L15.2316667,87.6283333 C15.2933333,88.1216667 14.8616667,88.4916667 14.3683333,88.4916667 L14.3683333,88.4916667 Z" id="Path" fill="#3F3F3F" style="mix-blend-mode: screen;"></path>
                        </g>
                    </g>
                </g>
            </g>
        </g>
    </g>
</svg>