<?xml version="1.0" encoding="UTF-8"?>
<svg width="593px" height="467px" viewBox="0 0 593 467" version="1.1" xmlns="http://www.w3.org/2000/svg" xmlns:xlink="http://www.w3.org/1999/xlink">
    <title>image_CLIENTS</title>
    <g id="Page-1" stroke="none" stroke-width="1" fill="none" fill-rule="evenodd">
        <g id="16GRID-web-기획안-1" transform="translate(-375.000000, -2375.000000)">
            <g id="Clients" transform="translate(375.000000, 2333.000000)">
                <g id="image_CLIENTS" transform="translate(0.000000, 43.000000)">
                    <path d="M13.51,358.26 C-7.88,326.87 -4.78,231.5 29.37,184.71 C81.25,113.63 220.2,-10.44 378,39.42 C478.14,71.07 676.41,169.29 550.9,308.54 C486.62,379.86 397.08,465.44 231,465.310148 C154.82,465.25 65.12,434 13.51,358.26 Z" id="Path" fill="#FFCD00" fill-rule="nonzero" opacity="0.3" style="mix-blend-mode: darken;"></path>
                    <circle id="Oval" fill="#B4BD00" fill-rule="nonzero" cx="385.15" cy="182.63" r="5.15"></circle>
                    <polygon id="Path" fill="#1A1A1A" fill-rule="nonzero" points="203.67 109.82 305.7 167.7 305.7 94.88 203.67 36.77"></polygon>
                    <polygon id="Path" fill="#4D4D4D" fill-rule="nonzero" points="295.63 171.19 338.52 195.32 338.52 122.5 295.63 98.15"></polygon>
                    <polygon id="Path" fill="#333333" fill-rule="nonzero" points="237.92 136.85 280.81 160.97 280.81 88.15 237.92 63.8"></polygon>
                    <polygon id="Path" fill="#FF9E18" fill-rule="nonzero" points="215.08 314.77 67.33 232.14 67.33 224.25 184.39 159.06 332.74 240.31 332.74 248.2"></polygon>
                    <polygon id="Path" fill="#FFCD00" fill-rule="nonzero" points="214.88 306.81 67.13 224.18 184.19 159 332.54 240.24"></polygon>
                    <polygon id="Path" fill="#3A3A3A" fill-rule="nonzero" opacity="0.2" style="mix-blend-mode: darken;" points="198.92 259.89 147.97 230.96 147.97 229.38 171.56 216.33 223.1 244.66 223.1 246.24"></polygon>
                    <polygon id="Path" fill="#252525" fill-rule="nonzero" points="290.83 243.1 143.43 160.21 143.43 25.09 290.83 107.98"></polygon>
                    <polygon id="Path" fill="#CCCCCC" fill-rule="nonzero" points="198.92 258.89 147.97 229.96 147.97 228.38 171.56 215.33 223.1 243.66 223.1 245.24"></polygon>
                    <polygon id="Path" fill="#CCCCCC" fill-rule="nonzero" points="190.77 244.56 147.26 207.85 191.29 192.88 235.48 229.13"></polygon>
                    <polygon id="Path" fill="#E6E6E6" fill-rule="nonzero" points="178.39 131.6 221.28 155.72 221.28 82.9 178.39 58.55"></polygon>
                    <polygon id="Path" fill="#FFFFFF" fill-rule="nonzero" points="163.38 148.08 206.28 172.2 206.28 99.38 163.38 75.03"></polygon>
                    <polygon id="Path" fill="#F1B946" fill-rule="nonzero" points="202.45 163.44 202.45 156.32 168.2 136.88 168.2 144"></polygon>
                    <polygon id="Path" fill="#252525" fill-rule="nonzero" points="176.6 137.28 176.6 135.89 168.2 131.12 168.2 132.51"></polygon>
                    <polygon id="Path" fill="#252525" fill-rule="nonzero" points="176.6 134.12 176.6 132.74 168.2 127.97 168.2 129.35"></polygon>
                    <polygon id="Path" fill="#F1B946" fill-rule="nonzero" points="201.14 142.36 201.14 102.83 168.76 84.45 168.76 123.98"></polygon>
                    <line x1="284" y1="201.63" x2="230.26" y2="171.13" id="Path" stroke="#F1B946" stroke-linecap="round" stroke-linejoin="round"></line>
                    <line x1="284" y1="208.47" x2="230.26" y2="177.97" id="Path" stroke="#F1B946" stroke-linecap="round" stroke-linejoin="round"></line>
                    <line x1="259.37" y1="213.76" x2="230.26" y2="197.24" id="Path" stroke="#F1B946" stroke-linecap="round" stroke-linejoin="round"></line>
                    <polygon id="Path" fill="#FFFFFF" fill-rule="nonzero" points="188.89 246.68 137.94 217.75 179.66 194.3 231.2 222.63"></polygon>
                    <polygon id="Path" fill="#3A3A3A" fill-rule="nonzero" opacity="0.2" style="mix-blend-mode: darken;" points="324.27 244.89 290.49 225.85 298.02 221.64 258.89 199.6 250.15 204.54 283.89 223.55 282.45 224.36 175.06 163.88 145.67 180.5 280.07 256.18 303.53 243.06 315.48 249.8"></polygon>
                    <polygon id="Path" fill="#E6E6E6" fill-rule="nonzero" points="198.92 257.31 147.97 228.38 171.56 215.33 223.1 243.66"></polygon>
                    <polygon id="Path" fill="#F1B946" fill-rule="nonzero" points="129.95 62.62 167.07 83.5 167.07 52.08 129.95 31.01"></polygon>
                    <polygon id="Path" fill="#252525" fill-rule="nonzero" points="150.85 58.67 150.85 48.43 135.25 39.57 135.25 49.82"></polygon>
                    <polygon id="Path" fill="#252525" fill-rule="nonzero" points="142.52 59.88 142.52 56.63 135.25 52.5 135.25 55.75"></polygon>
                    <polygon id="Path" fill="#252525" fill-rule="nonzero" points="164.03 79.18 164.03 77.98 156.76 73.85 156.76 75.05"></polygon>
                    <polygon id="Path" fill="#252525" fill-rule="nonzero" points="164.03 76.44 164.03 75.25 156.76 71.12 156.76 72.32"></polygon>
                    <polygon id="Path" fill="#252525" fill-rule="nonzero" points="319.1 153.66 319.1 122.77 301.07 112.53 301.07 143.42"></polygon>
                    <polygon id="Path" fill="#252525" fill-rule="nonzero" points="334.33 162.06 334.33 143.55 323.52 137.41 323.52 155.93"></polygon>
                    <polygon id="Path" fill="#252525" fill-rule="nonzero" points="309.48 167.2 309.48 163.45 301.07 158.68 301.07 162.43"></polygon>
                    <polygon id="Path" fill="#252525" fill-rule="nonzero" points="334.33 181.41 334.33 177.66 325.93 172.89 325.93 176.64"></polygon>
                    <polygon id="Path" fill="#252525" fill-rule="nonzero" points="334.33 186.76 334.33 183.01 325.93 178.24 325.93 181.99"></polygon>
                    <path d="M231.88,255.05 C231.8,253.73 231.07,252.13 227.36,252.11 C223.28,252.11 219.82,256.06 219.82,258.89 C219.82,258.89 220.2,260.42 223.61,260.25 L223.79,260.25 C226.19,256.33 230.56,255.28 231.88,255.05 Z" id="Path" fill="#E6E6E6" fill-rule="nonzero"></path>
                    <path d="M231.89,255.45 C231.900002,255.316854 231.900002,255.183146 231.89,255.05 C230.57,255.28 226.2,256.33 223.8,260.22 C227.18,259.93 231.88,256.23 231.89,255.45 Z" id="Path" fill="#E6E6E6" fill-rule="nonzero"></path>
                    <path d="M231.89,255.45 C231.900002,255.316854 231.900002,255.183146 231.89,255.05 C230.57,255.28 226.2,256.33 223.8,260.22 C227.18,259.93 231.88,256.23 231.89,255.45 Z" id="Path" fill="#CCCCCC" fill-rule="nonzero"></path>
                    <polygon id="Path" stroke="#FFCD00" stroke-width="0.2" stroke-linecap="round" stroke-linejoin="round" points="230.26 163.9 281.79 192.88 281.79 119.15 230.26 89.9"></polygon>
                    <line x1="230.26" y1="127.27" x2="231.13" y2="127.76" id="Path" stroke="#FFCD00" stroke-width="0.2" stroke-linecap="round" stroke-linejoin="round"></line>
                    <line x1="232.85" y1="128.74" x2="280.07" y2="155.54" id="Path" stroke="#FFCD00" stroke-width="0.2" stroke-linecap="round" stroke-linejoin="round" stroke-dasharray="1.97"></line>
                    <line x1="280.92" y1="156.03" x2="281.79" y2="156.52" id="Path" stroke="#FFCD00" stroke-width="0.2" stroke-linecap="round" stroke-linejoin="round"></line>
                    <line x1="281.79" y1="119.15" x2="281.04" y2="119.81" id="Path" stroke="#FFCD00" stroke-width="0.2" stroke-linecap="round" stroke-linejoin="round"></line>
                    <line x1="279.52" y1="121.12" x2="231.78" y2="162.59" id="Path" stroke="#FFCD00" stroke-width="0.2" stroke-linecap="round" stroke-linejoin="round" stroke-dasharray="2.01"></line>
                    <line x1="231.02" y1="163.25" x2="230.26" y2="163.9" id="Path" stroke="#FFCD00" stroke-width="0.2" stroke-linecap="round" stroke-linejoin="round"></line>
                    <line x1="230.26" y1="89.9" x2="230.71" y2="90.79" id="Path" stroke="#FFCD00" stroke-width="0.2" stroke-linecap="round" stroke-linejoin="round"></line>
                    <line x1="231.6" y1="92.57" x2="280.9" y2="191.1" id="Path" stroke="#FFCD00" stroke-width="0.2" stroke-linecap="round" stroke-linejoin="round" stroke-dasharray="1.99"></line>
                    <line x1="281.35" y1="191.99" x2="281.79" y2="192.88" id="Path" stroke="#FFCD00" stroke-width="0.2" stroke-linecap="round" stroke-linejoin="round"></line>
                    <line x1="256.03" y1="178.39" x2="256.03" y2="177.39" id="Path" stroke="#FFCD00" stroke-width="0.2" stroke-linecap="round" stroke-linejoin="round"></line>
                    <line x1="256.03" y1="175.34" x2="256.03" y2="106.55" id="Path" stroke="#FFCD00" stroke-width="0.2" stroke-linecap="round" stroke-linejoin="round" stroke-dasharray="2.05"></line>
                    <line x1="256.03" y1="105.52" x2="256.03" y2="104.52" id="Path" stroke="#FFCD00" stroke-width="0.2" stroke-linecap="round" stroke-linejoin="round"></line>
                    <path d="M256,104.52 C272,113.63 281.76,134.36 281.76,157.13 C281.76,176.39 267.45,184.83 256,178.39 C243.13,171.16 230.23,151.16 230.23,128.06 C230.26,108.9 242.11,96.62 256,104.52 Z" id="Path" stroke="#FFCD00" stroke-width="0.5" stroke-linecap="round" stroke-linejoin="round"></path>
                    <path d="M251.53,99.64 C267.53,108.74 277.3,129.47 277.3,152.24 C277.3,171.51 262.98,179.95 251.53,173.51 C238.66,166.27 225.77,146.28 225.77,123.17 C225.77,104 237.61,91.74 251.53,99.64 Z" id="Path" fill="#FFCD00" fill-rule="nonzero" opacity="0.5"></path>
                    <path d="M53.36,52.71 C53.36,52.71 50.42,88.25 83.68,84.36 C114.19,80.79 105.45,11.98 146.52,1.36 C175.5,-6.13 174,37.64 174,37.64" id="Path" stroke="#FF9E18" stroke-linecap="round" stroke-dasharray="0,4"></path>
                    <circle id="Oval" fill="#FF9E18" fill-rule="nonzero" cx="53.79" cy="53.13" r="4.12"></circle>
                    <path d="M231.29,211.24 C231.29,211.24 224.77,293.9 275.48,296 C311.04,297.45 320.48,260.31 327.93,218.75 C348.25,104.55 384.69,182.61 384.69,182.61" id="Path" stroke="#B4BD00" stroke-linecap="round" stroke-dasharray="0,4"></path>
                    <g id="Group" opacity="0.2" style="mix-blend-mode: darken;" transform="translate(167.000000, 254.000000)" fill="#3A3A3A" fill-rule="nonzero">
                        <path d="M3.78,16.25 C3.78,16.25 28.07,13.38 36.88,12.04 L43,23.31 C43,23.31 28.6,30.92 17.84,36.05 L17.62,43.7 L0.11,34 L3.78,16.25 Z" id="Path"></path>
                        <path d="M63.5,3.66 C62.5,3.28 61.94,3.29 60.2,4.35 C58.69,5.28 57.87,6.78 58.61,5.49 C59.3042435,4.35195 60.2026339,3.35185505 61.26,2.54 C61.6915183,2.22832335 62.1424291,1.94441657 62.61,1.69 C63.16,1.27 62.61,0.74 62.15,0.749860591 C61.15,0.749860591 59.92,2.49 57.59,4.65 C56.85,5.33 56.17,5.65 55.42,6.36 C55.42,6.23 54.27,6.54 54.85,5.99 C55.76,5.13 56.41,2.84 55.85,2.57 C54.67,2.02 54.61,9.83 51,10.45 C48.91,10.81 36.89,12.04 36.89,12.04 L43,23.31 C43,23.31 49,19.7 54.49,15.47 C55.85,14.42 57.63,14.7 59.35,13.02 C60.4819618,11.9880467 61.4888539,10.8267646 62.35,9.56 C63.35,8.05 65.29,7.67 66.01,6.95 C66.37,6.57 67,5 63.5,3.66 Z" id="Path"></path>
                    </g>
                    <path d="M110.9,310.87 C117.64,312.01 131.96,304.22 132.79,294.5 C134.19,277.94 160.96,224.25 135.79,210.64 C118.31,201.21 82.2,173 70.49,201 C60.3,225.45 56.65,301.7 110.9,310.87 Z" id="Path" fill="#B4BD00" fill-rule="nonzero"></path>
                    <path d="M111.13,329.43 C118.33,328.32 131.79,322.29 130.93,311.52 C129.51,293.84 129.37,246.2 98.93,232.58 C79.6,223.93 36.15,199.99 36.4,237.78 C36.53,257.14 39,294.2 64,316.42 C75.51,326.62 92.87,332.25 111.13,329.43 Z" id="Path" fill="#FFCD00" fill-rule="nonzero"></path>
                    <path d="M144.39,220.46 C140.248817,216.295318 135.097507,213.276892 129.44,211.7 C129.44,211.7 118.16,263.07 135,276.87 C135.6,277.37 136.19,277.87 136.78,278.32 C142.19,260.49 150.44,235.5 144.39,220.46 Z" id="Path" fill="#B4BD00" fill-rule="nonzero"></path>
                    <path d="M144.39,220.46 C137.21,213.39 133.91,222.33 133.91,222.33 C133.91,222.33 118.16,263.07 135,276.87 C135.6,277.37 136.19,277.87 136.78,278.32 C142.19,260.49 150.44,235.5 144.39,220.46 Z" id="Path" fill="#3A3A3A" fill-rule="nonzero" opacity="0.2" style="mix-blend-mode: darken;"></path>
                    <path d="M131.44,209.7 C131.44,209.7 148.44,213.37 155.38,232.7 C159.974622,245.164296 165.317678,257.339785 171.38,269.16 C171.38,269.16 195.67,266.29 204.48,264.94 L209.16,275.94 C209.16,275.94 180.57,289.94 173.78,292.88 C168.48,295.19 168.48,296.02 164.64,293.88 C161.3,292.05 154.44,289.11 137.05,274.88 C120.16,261.07 131.44,209.7 131.44,209.7 Z" id="Path" fill="#B4BD00" fill-rule="nonzero"></path>
                    <path d="M231.05,256.55 C230.17,256.01 229.49,256.18 227.75,257.25 C226.24,258.17 224.75,259.72 225.55,258.48 C226.162817,257.591994 226.931994,256.822817 227.82,256.21 C228.253006,255.900533 228.703779,255.616713 229.17,255.36 C229.72,254.95 229.22,254.36 228.71,254.42 C227.71,254.42 226.71,254.8 224.36,256.96 C223.62,257.65 222.58,258.75 221.82,259.43 C221.765896,259.242453 221.798939,259.04052 221.91,258.88 C222.51,257.78 222.81,256.26 222.25,256 C221.06,255.44 221.47,256.87 219.82,258.33 C218.95,259.11 219.65,263 218.55,263.33 C216.55,263.96 204.43,264.92 204.43,264.92 L209.11,275.92 C213.644582,273.829558 217.962114,271.297321 222,268.36 C223.523088,267.861001 224.930783,267.061947 226.14,266.01 C228.33,263.86 229.26,262.75 229.63,262.43 C230.63,261.54 232.1,261.11 232.82,260.43 C233.19,260 232.27,257.3 231.05,256.55 Z" id="Path" fill="#FFFFFF" fill-rule="nonzero"></path>
                    <path d="M98.78,195.56 C97.44,198.94 104.18,205.11 111.19,206.7 C120,208.7 121.48,203.61 120.54,201.7 C120.54,201.71 100.87,190.3 98.78,195.56 Z" id="Path" fill="#3A3A3A" fill-rule="nonzero" opacity="0.2" style="mix-blend-mode: darken;"></path>
                    <path d="M116.32,156.45 L107.32,157.45 C105.353108,157.620293 103.534545,158.565357 102.264767,160.077087 C100.994989,161.588817 100.378121,163.543246 100.55,165.51 L98.83,195.51 C99.13,198.97 103.71,202.72 110.83,203.88 C115.6,204.65 120.7,203.54 120.63,201.66 L119.29,192.19 L122.82,191.71 C126.49,190.98 128.75,187.6 128.76,183.77 C128.76,178.32 125.36,168.4 124.48,163.17 C123.71,159.16 120.42,156.09 116.32,156.45 Z" id="Path" fill="#FFFFFF" fill-rule="nonzero"></path>
                    <path d="M94.46,172.4 C93.68,168.91 93.76,161.83 97.78,157.93 C101.8,154.03 121.78,149.86 124.55,158.09 C125.86,161.98 125.36,164.9 120.02,165.34 C117.85,165.52 111.92,168.92 113.11,173.27 C114.3,177.62 110.95,178.57 110,175.27 C109.05,171.97 109.07,169.39 106.36,169.75 C103.65,170.11 103.36,172.39 104.11,174.75 C104.86,177.11 106.43,177.36 106.84,181.83 C107,183.56 106.84,185.83 104.51,186.19 C97.58,187.22 95.24,175.89 94.46,172.4 Z" id="Path" fill="#252525" fill-rule="nonzero"></path>
                    <path d="M121.19,181.72 C121.19,181.72 122.42,183.47 125.12,182.41" id="Path" stroke="#252525" stroke-width="0.5" stroke-linecap="round" stroke-linejoin="round"></path>
                    <path d="M124.26,177 C124.26,177 123.54,175.6 123.1,177.22" id="Path" stroke="#252525" stroke-width="0.5" stroke-linecap="round" stroke-linejoin="round"></path>
                    <path d="M365.91,103.2 C365.91,103.2 420.29,93.39 406.26,193.9" id="Path" stroke="#71A850" stroke-linecap="round" stroke-dasharray="0,4"></path>
                    <circle id="Oval" fill="#71A850" fill-rule="nonzero" cx="364.88" cy="103.65" r="3.61"></circle>
                    <polygon id="Path" fill="#FFCD00" fill-rule="nonzero" points="534.45 278.98 534.82 270.11 487.41 244.18 293.57 351.79 293.57 359.69 342.07 387.23"></polygon>
                    <polygon id="Path" fill="#B4BD00" fill-rule="nonzero" points="534.72 270.14 485.95 243.32 293.57 351.79 341.98 379.19"></polygon>
                    <polygon id="Path" fill="#E1E0E3" fill-rule="nonzero" points="450.12 308.6 474.42 299.79 445.04 276.15 420.71 285.01"></polygon>
                    <polygon id="Path" fill="#FFFFFF" fill-rule="nonzero" points="445.89 311.56 468.43 298.91 435.58 280.38 413.03 293.09"></polygon>
                    <circle id="Oval" fill="#FFCD00" fill-rule="nonzero" cx="583.84" cy="333.13" r="3.09"></circle>
                    <path d="M464.16,284.28 L457.33,281.28 L417.93,303.45 L405.7,298.39 C404.738697,297.844359 403.561303,297.844359 402.6,298.39 L369.34,316.54 C368.845094,316.823225 368.539747,317.349782 368.539747,317.92 C368.539747,318.490218 368.845094,319.016775 369.34,319.3 L376.64,326.7 L348.25,342.7 L357.8,346.08 C358.659319,346.38157 359.606966,346.29774 360.4,345.85 L381.4,333.99 L405.06,343.4 L405.16,351.62 L421.52,342.32 L418.44,336.32 C419.3,335.84 401.24,332.57 392.53,331.03 L428.79,310.69 C429.285427,310.409565 429.591685,309.884291 429.591685,309.315 C429.591685,308.745709 429.285427,308.220435 428.79,307.94 L427.99,307.6 L464.3,287.1 C464.826513,286.810671 465.141753,286.246248 465.111964,285.646215 C465.082175,285.046181 464.712581,284.515757 464.16,284.28 L464.16,284.28 Z" id="Path" fill="#3A3A3A" fill-rule="nonzero" opacity="0.2" style="mix-blend-mode: darken;"></path>
                    <path d="M387,333.15 L428.74,309.73 C429.235427,309.449565 429.541685,308.924291 429.541685,308.355 C429.541685,307.785709 429.235427,307.260435 428.74,306.98 L405.66,297.42 C404.698697,296.874359 403.521303,296.874359 402.56,297.42 L369.3,315.57 C368.805094,315.853225 368.499747,316.379782 368.499747,316.95 C368.499747,317.520218 368.805094,318.046775 369.3,318.33 L384,333.14 C384.935493,333.644464 386.061164,333.648216 387,333.15 L387,333.15 Z" id="Path" fill="#E1E0E3" fill-rule="nonzero"></path>
                    <polygon id="Path" fill="#3A3A3A" fill-rule="nonzero" opacity="0.2" style="mix-blend-mode: darken;" points="380.02 329.15 423.45 304.77 414.14 300.91 373.22 322.26"></polygon>
                    <path d="M461.33001,167.5 C461.332757,166.378374 460.738891,165.33989 459.770799,164.773453 C458.802707,164.207017 457.606443,164.198084 456.63,164.75 L345,227.51 C342.759622,228.765047 341.371548,231.132037 341.37,233.7 L341.37,334.61 L461.3,267.17 L461.33001,167.5 Z" id="Path" fill="#252525" fill-rule="nonzero"></path>
                    <path d="M346.11,343.94 L457.71,281.18 C459.949604,279.9255 461.334727,277.557016 461.330012,274.99 L461.330012,267.17 L341.4,334.61 L341.4,341.19 C341.401329,342.312125 341.99764,343.349379 342.966685,343.915169 C343.935729,344.480959 345.132138,344.49041 346.11,343.94 Z" id="Path" fill="#E1E0E3" fill-rule="nonzero"></path>
                    <polygon id="Path" stroke="#252525" stroke-width="0.25" fill="#FFCD00" fill-rule="nonzero" points="347.93 323.81 454.81 263.7 454.81 173.82 347.93 233.93"></polygon>
                    <polygon id="Path" fill="#EDEDED" fill-rule="nonzero" points="358.33 297.21 427.35 258.4 427.35 200.42 358.33 239.23"></polygon>
                    <path d="M358.18,239.09 L358.13,239.09 L358.13,297.52 L427.5,258.52 L427.55,258.52 L427.55,200.08 L358.18,239.09 Z M427.35,258.4 L358.35,297.21 L358.35,243.21 L427.35,204.39 L427.35,258.4 Z" id="Shape" fill="#252525" fill-rule="nonzero"></path>
                    <path d="M360.62,238.66 C360.093729,239.022013 359.794302,239.632238 359.83,240.27 C359.83,240.86 360.27,241.12 360.62,240.92 C361.127611,240.573993 361.42507,239.994135 361.41,239.38 C361.41,238.79 361.05,238.41 360.62,238.66 Z" id="Path" fill="#FF9E18" fill-rule="nonzero"></path>
                    <path d="M366.5,235.4 C365.973729,235.762013 365.674302,236.372238 365.71,237.01 C365.71,237.6 366.15,237.86 366.5,237.66 C367.007611,237.313993 367.30507,236.734135 367.29,236.12 C367.29,235.53 366.93,235.16 366.5,235.4 Z" id="Path" fill="#71A850" fill-rule="nonzero"></path>
                    <path d="M363.56,237 C363.035254,237.363328 362.736275,237.97264 362.77,238.61 C362.77,239.2 363.21,239.46 363.56,239.26 C364.067611,238.913993 364.36507,238.334135 364.35,237.72 C364.35,237.16 364,236.78 363.56,237 Z" id="Path" fill="#FFCD00" fill-rule="nonzero"></path>
                    <polygon id="Path" fill="#FFFFFF" fill-rule="nonzero" points="373.33 301.59 442.36 262.77 442.36 204.79 373.33 243.61"></polygon>
                    <path d="M373.19,243.47 L373.14,243.47 L373.14,301.91 L442.5,262.91 L442.55,262.91 L442.55,204.45 L373.19,243.47 Z M442.36,262.77 L373.36,301.59 L373.36,247.59 L442.36,208.77 L442.36,262.77 Z" id="Shape" fill="#252525" fill-rule="nonzero"></path>
                    <path d="M375.63,243 C375.105254,243.363328 374.806275,243.97264 374.84,244.61 C374.84,245.2 375.28,245.46 375.63,245.27 C376.132268,244.914739 376.427665,244.335162 376.42,243.72 C376.42,243.17 376.05,242.79 375.63,243 Z" id="Path" fill="#FF9E18" fill-rule="nonzero"></path>
                    <path d="M381.51,239.78 C380.98062,240.13932 380.680269,240.751426 380.72,241.39 C380.72,241.98 381.16,242.24 381.51,242.04 C382.012033,241.689098 382.307841,241.11246 382.3,240.5 C382.3,239.91 381.93,239.53 381.51,239.78 Z" id="Path" fill="#71A850" fill-rule="nonzero"></path>
                    <path d="M378.57,241.4 C378.043729,241.762013 377.744302,242.372238 377.78,243.01 C377.78,243.6 378.22,243.86 378.57,243.66 C379.073402,243.310294 379.369611,242.732874 379.36,242.12 C379.36,241.53 379,241.15 378.57,241.4 Z" id="Path" fill="#FFCD00" fill-rule="nonzero"></path>
                    <ellipse id="Oval" fill="#3A3A3A" fill-rule="nonzero" opacity="0.3" style="mix-blend-mode: darken;" cx="371.02" cy="351.62" rx="8.34" ry="4.64"></ellipse>
                    <path d="M377.32,328 C377.32,325.3 373.39,323.11 368.54,323.11 C363.69,323.11 359.75,325.3 359.75,328 C359.751483,328.247348 359.788529,328.493198 359.86,328.73 L362.94,349.6 C362.94,351.32 365.45,352.71 368.54,352.71 C371.63,352.71 374.13,351.32 374.13,349.6 L377.22,328.73 C377.283202,328.4917 377.316789,328.246518 377.32,328 L377.32,328 Z" id="Path" fill="#FFFFFF" fill-rule="nonzero" opacity="0.25"></path>
                    <path d="M368.54,331.72 C364.19,331.72 361.45,333.59 361.45,335.32 L363.52,349.14 C363.52,350.68 365.77,351.93 368.52,351.93 C371.27,351.93 373.52,350.68 373.52,349.14 L375.59,335.32 C375.62,333.46 372.88,331.72 368.54,331.72 Z" id="Path" fill="#F1B946" fill-rule="nonzero"></path>
                    <line x1="373.32" y1="346.54" x2="374.55" y2="338.3" id="Path" stroke="#F4D295" stroke-width="0.5" opacity="0.7" stroke-linecap="round"></line>
                    <line x1="373.02" y1="348.14" x2="373.09" y2="347.64" id="Path" stroke="#F4D295" stroke-width="0.5" opacity="0.7" stroke-linecap="round"></line>
                    <circle id="Oval" fill="#F4D295" fill-rule="nonzero" cx="364.81" cy="341.04" r="1"></circle>
                    <circle id="Oval" fill="#F4D295" fill-rule="nonzero" cx="367.37" cy="348.09" r="1"></circle>
                    <circle id="Oval" fill="#F4D295" fill-rule="nonzero" cx="368.57" cy="345.66" r="1"></circle>
                    <ellipse id="Oval" stroke="#FFFFFF" stroke-width="0.25" stroke-linecap="round" stroke-linejoin="round" cx="368.54" cy="349.75" rx="5.68" ry="3.16"></ellipse>
                    <ellipse id="Oval" stroke="#FFFFFF" stroke-width="0.25" stroke-linecap="round" stroke-linejoin="round" cx="368.54" cy="327.81" rx="8.93" ry="4.97"></ellipse>
                    <line x1="374.22" y1="349.75" x2="377.46" y2="327.81" id="Path" stroke="#FFFFFF" stroke-width="0.25" stroke-linecap="round" stroke-linejoin="round"></line>
                    <line x1="362.85" y1="349.75" x2="359.61" y2="327.81" id="Path" stroke="#FFFFFF" stroke-width="0.25" stroke-linecap="round" stroke-linejoin="round"></line>
                    <path d="M374.89,336.07 C374.89,337.44 372.05,338.82 368.54,338.82 C365.03,338.82 362.18,337.44 362.18,336.07" id="Path" stroke="#F4D295" stroke-width="0.5" opacity="0.7" stroke-linecap="round"></path>
                    <path d="M360.85,327.41 C361.73,325.58 364.85,324 368.55,324 C372.25,324 375.35,325.58 376.24,327.4" id="Path" stroke="#FFFFFF" stroke-width="0.5" opacity="0.6" stroke-linecap="round"></path>
                    <line x1="364.62" y1="349.75" x2="362.06" y2="332.63" id="Path" stroke="#FFFFFF" stroke-width="0.25" stroke-linecap="round" stroke-linejoin="round"></line>
                    <path d="M394.1,265.42 L394.1,251.69 C399.25,248.77 403.63,253.3 403.63,260.39 C403.63,268.93 398.86,276.32 394.1,279 C389.87,281.38 384.58,278.26 384.58,271.14 C384.541636,267.069028 385.434374,263.043154 387.19,259.37 L394.1,265.42 Z" id="Path" fill="#FFCD00" fill-rule="nonzero"></path>
                    <polyline id="Path" stroke="#FFCD00" stroke-width="0.25" stroke-linecap="round" stroke-linejoin="round" points="395.12 277.04 397.38 280.2 403 277.04"></polyline>
                    <path d="M405.27,276.65 L405.97,276.26 C405.97,276.45 406.1,276.46 406.26,276.38 C406.40601,276.304281 406.506541,276.162794 406.53,276 C406.53,275.84 406.34,275.9 406.11,276 C405.88,276.1 405.3,276.24 405.3,275.65 C405.355951,275.072025 405.708116,274.564604 406.23,274.31 C406.82,273.97 407.16,274.1 407.16,274.64 L406.48,275.03 C406.48,274.86 406.37,274.85 406.23,274.93 C406.104807,274.988731 406.015499,275.104087 405.99,275.24 C405.99,275.39 406.17,275.33 406.41,275.24 C406.65,275.15 407.24,275 407.24,275.6 C407.189739,276.21998 406.806787,276.763771 406.24,277.02 C405.66,277.34 405.27,277.21 405.27,276.65 Z" id="Path" fill="#FFCD00" fill-rule="nonzero"></path>
                    <path d="M407.53,275.36 L407.53,274.2 L408.18,273.83 L408.18,275 C408.18,275.22 408.29,275.29 408.47,275.19 C408.642583,275.083274 408.745415,274.892845 408.74,274.69 L408.74,273.54 L409.39,273.17 L409.39,274.36 C409.36272,274.980283 409.008821,275.539672 408.46,275.83 C407.91,276.1 407.53,275.94 407.53,275.36 Z" id="Path" fill="#FFCD00" fill-rule="nonzero"></path>
                    <path d="M409.67,274 C409.708911,273.291891 410.104246,272.651824 410.72,272.3 C411.25,271.99 411.64,272.14 411.72,272.67 L411.09,273.03 C411.04,272.88 410.89,272.85 410.72,272.95 C410.482841,273.100356 410.336498,273.359271 410.33,273.64 C410.33,273.91 410.5,274.02 410.72,273.89 C410.911313,273.78154 411.046264,273.595526 411.09,273.38 L411.73,273.02 C411.649139,273.653855 411.280072,274.214837 410.73,274.54 C410.11,274.89 409.67,274.67 409.67,274 Z" id="Path" fill="#FFCD00" fill-rule="nonzero"></path>
                    <path d="M411.9,272.77 C411.921561,272.064604 412.297651,271.417728 412.9,271.05 C413.43,270.74 413.83,270.9 413.9,271.44 L413.27,271.8 C413.21,271.65 413.07,271.62 412.9,271.71 C412.658516,271.860972 412.511297,272.12521 412.51,272.41 C412.51,272.69 412.67,272.8 412.9,272.68 C413.084056,272.559071 413.216079,272.373525 413.27,272.16 L413.91,271.8 C413.829211,272.439065 413.460928,273.00622 412.91,273.34 C412.33,273.67 411.9,273.43 411.9,272.77 Z" id="Path" fill="#FFCD00" fill-rule="nonzero"></path>
                    <path d="M416.16,270.57 L414.76,271.35 C414.76,271.58 414.94,271.63 415.14,271.52 C415.298844,271.430452 415.422329,271.289325 415.49,271.12 L416.13,270.76 C416.002968,271.336438 415.640287,271.83331 415.13,272.13 C414.55,272.45 414.13,272.19 414.13,271.53 C414.150562,270.816382 414.52563,270.160013 415.13,269.78 C415.73,269.43 416.13,269.71 416.13,270.36 C416.14501,270.429192 416.155036,270.499373 416.16,270.57 L416.16,270.57 Z M414.77,270.93 L415.53,270.5 C415.53,270.31 415.34,270.27 415.14,270.38 C414.942941,270.501209 414.808004,270.701791 414.77,270.93 L414.77,270.93 Z" id="Shape" fill="#FFCD00" fill-rule="nonzero"></path>
                    <path d="M416.37,270.66 L416.99,270.31 C416.99,270.47 417.09,270.49 417.21,270.42 C417.317038,270.370427 417.389475,270.26749 417.4,270.15 C417.4,270.02 417.25,270.06 417.07,270.15 C416.89,270.24 416.39,270.37 416.39,269.82 C416.437767,269.310568 416.743586,268.861278 417.2,268.63 C417.68,268.35 417.99,268.48 418,268.94 L417.39,269.28 C417.39,269.14 417.31,269.12 417.19,269.18 C417.090699,269.234805 417.026502,269.336766 417.02,269.45 C417.02,269.57 417.16,269.52 417.34,269.45 C417.52,269.38 418.03,269.2 418.03,269.77 C417.993125,270.301385 417.677209,270.773355 417.2,271.01 C416.68,271.28 416.37,271.13 416.37,270.66 Z" id="Path" fill="#FFCD00" fill-rule="nonzero"></path>
                    <path d="M418.24,269.62 L418.86,269.27 C418.86,269.43 418.96,269.46 419.08,269.39 C419.185984,269.334102 419.25721,269.229137 419.27,269.11 C419.27,268.98 419.12,269.02 418.94,269.11 C418.76,269.2 418.26,269.33 418.26,268.78 C418.299199,268.262555 418.606542,267.803437 419.07,267.57 C419.55,267.3 419.86,267.43 419.87,267.89 L419.26,268.24 C419.26,268.09 419.18,268.07 419.06,268.13 C418.958152,268.183714 418.89041,268.285327 418.88,268.4 C418.88,268.53 419.03,268.48 419.21,268.4 C419.39,268.32 419.9,268.15 419.9,268.73 C419.864058,269.266701 419.548921,269.745103 419.07,269.99 C418.55,270.26 418.24,270.1 418.24,269.62 Z" id="Path" fill="#FFCD00" fill-rule="nonzero"></path>
                    <path d="M420.24,268.52 L420.87,268.17 L420.87,268.91 L420.24,269.26 L420.24,268.52 Z M420.24,266.17 L420.85,265.82 L420.85,267.91 L420.24,268.25 L420.24,266.17 Z" id="Shape" fill="#FFCD00" fill-rule="nonzero"></path>
                    <path d="M380.84,253.78 L381.54,253.41 C381.54,253.59 381.67,253.61 381.83,253.53 C381.974521,253.457566 382.075105,253.319729 382.1,253.16 C382.1,252.99 381.91,253.05 381.68,253.16 C381.45,253.27 380.87,253.39 380.87,252.81 C380.923546,252.233603 381.276997,251.72813 381.8,251.48 C382.39,251.15 382.73,251.29 382.73,251.82 L382.05,252.2 C382.05,252.03 381.94,252.02 381.8,252.1 C381.674069,252.152522 381.583597,252.265612 381.56,252.4 C381.56,252.55 381.75,252.5 381.98,252.4 C382.21,252.3 382.81,252.17 382.81,252.78 C382.756925,253.394113 382.373705,253.930622 381.81,254.18 C381.23,254.48 380.84,254.35 380.84,253.78 Z" id="Path" fill="#252525" fill-rule="nonzero"></path>
                    <path d="M385.14,250.22 L385.14,252.3 L384.63,252.58 L384.58,252.46 C384.433824,252.678609 384.238648,252.860088 384.01,252.99 C383.43,253.3 383.01,253.06 383.01,252.43 C383.045158,251.752183 383.421679,251.138453 384.01,250.8 C384.178723,250.682117 384.389831,250.642079 384.59,250.69 L384.65,250.5 L385.14,250.22 Z M384.52,251.61 C384.52,251.34 384.34,251.24 384.1,251.37 C383.851121,251.517786 383.69328,251.780855 383.68,252.07 C383.68,252.34 383.85,252.44 384.1,252.31 C384.350216,252.163562 384.508539,251.899691 384.52,251.61 L384.52,251.61 Z" id="Shape" fill="#252525" fill-rule="nonzero"></path>
                    <polygon id="Path" fill="#252525" fill-rule="nonzero" points="385.55 249.24 386.2 248.87 386.2 251.73 385.55 252.08"></polygon>
                    <path d="M388.54,249.55 L387.14,250.33 C387.14,250.55 387.32,250.6 387.52,250.48 C387.678151,250.394252 387.8018,250.256472 387.87,250.09 L388.51,249.73 C388.379914,250.297407 388.016923,250.783814 387.51,251.07 C386.93,251.4 386.51,251.15 386.51,250.51 C386.536402,249.811271 386.912114,249.172562 387.51,248.81 C388.12,248.46 388.51,248.71 388.51,249.34 C388.524784,249.409233 388.534807,249.479397 388.54,249.55 Z M387.15,249.92 L387.91,249.49 C387.86,249.31 387.72,249.27 387.52,249.38 C387.327053,249.500833 387.193024,249.696442 387.15,249.92 L387.15,249.92 Z" id="Shape" fill="#252525" fill-rule="nonzero"></path>
                    <path d="M388.75,249.62 L389.37,249.27 C389.37,249.43 389.47,249.45 389.59,249.38 C389.697038,249.330427 389.769475,249.22749 389.78,249.11 C389.78,248.99 389.63,249.03 389.45,249.11 C389.27,249.19 388.77,249.33 388.77,248.81 C388.824287,248.307936 389.129177,247.867539 389.58,247.64 C390.06,247.36 390.37,247.48 390.38,247.92 L389.77,248.26 C389.77,248.13 389.69,248.11 389.57,248.17 C389.472246,248.221505 389.407979,248.319796 389.4,248.43 C389.4,248.56 389.54,248.5 389.72,248.43 C389.9,248.36 390.41,248.17 390.41,248.72 C390.366309,249.244041 390.051389,249.706935 389.58,249.94 C389.07,250.23 388.75,250.09 388.75,249.62 Z" id="Path" fill="#252525" fill-rule="nonzero"></path>
                    <polygon id="Path" fill="#252525" fill-rule="nonzero" points="391.51 245.93 392.2 245.53 392.2 248.41 391.52 248.8"></polygon>
                    <path d="M394.48,245.74 L394.48,247.13 L393.83,247.5 L393.83,246.23 C393.83,245.96 393.75,245.88 393.58,245.97 C393.368924,246.112845 393.24763,246.355433 393.26,246.61 L393.26,247.81 L392.61,248.18 L392.61,246 L393.07,245.73 L393.16,245.91 C393.295979,245.645147 393.499513,245.420915 393.75,245.26 C394.19,245 394.48,245.16 394.48,245.74 Z" id="Path" fill="#252525" fill-rule="nonzero"></path>
                    <path d="M394.76,245.83 C394.782825,245.08304 395.17665,244.396659 395.81,244 C396.34,243.69 396.73,243.86 396.81,244.44 L396.18,244.81 C396.13,244.65 395.98,244.62 395.81,244.71 C395.564961,244.876401 395.418762,245.153804 395.42,245.45 C395.42,245.75 395.59,245.87 395.81,245.74 C396.005241,245.616908 396.139567,245.417235 396.18,245.19 L396.82,244.82 C396.752585,245.487369 396.384391,246.087524 395.82,246.45 C395.2,246.8 394.76,246.53 394.76,245.83 Z" id="Path" fill="#252525" fill-rule="nonzero"></path>
                    <path d="M398.32,242.57 L398.32,243.31 L398.07,243.46 C397.846295,243.582458 397.716645,243.826043 397.74,244.08 L397.74,245.27 L397.09,245.64 L397.09,243.31 L397.53,243.05 L397.63,243.25 C397.739425,243.007701 397.921041,242.80513 398.15,242.67 L398.32,242.57 Z" id="Path" fill="#252525" fill-rule="nonzero"></path>
                    <path d="M400.47,242.69 L399.07,243.51 C399.07,243.76 399.25,243.82 399.45,243.7 C399.611583,243.60711 399.73279,243.457383 399.79,243.28 L400.44,242.9 C400.325722,243.505186 399.963,244.03476 399.44,244.36 C398.85,244.7 398.44,244.36 398.44,243.69 C398.450503,242.944135 398.823626,242.250127 399.44,241.83 C400.05,241.46 400.44,241.76 400.44,242.46 C400.455018,242.535928 400.46504,242.61276 400.47,242.69 L400.47,242.69 Z M399.08,243.05 L399.84,242.6 C399.84,242.4 399.65,242.35 399.45,242.47 C399.248576,242.600711 399.11363,242.812248 399.08,243.05 L399.08,243.05 Z" id="Shape" fill="#252525" fill-rule="nonzero"></path>
                    <path d="M402.79,239.89 L402.79,242.34 L402.28,242.63 L402.28,242.49 C402.141013,242.730249 401.945315,242.932814 401.71,243.08 C401.13,243.42 400.71,243.08 400.71,242.37 C400.718949,241.62102 401.092054,240.923313 401.71,240.5 C401.875246,240.372846 402.093991,240.338903 402.29,240.41 L402.36,240.18 L402.79,239.89 Z M402.17,241.48 C402.17,241.17 401.99,241.04 401.75,241.18 C401.487804,241.366676 401.331488,241.668143 401.33,241.99 C401.33,242.3 401.5,242.43 401.75,242.29 C402.012196,242.103324 402.168512,241.801857 402.17,241.48 Z" id="Shape" fill="#252525" fill-rule="nonzero"></path>
                    <path d="M403.1,241.36 L403.72,240.99 C403.72,241.17 403.82,241.19 403.94,241.12 C404.049036,241.057562 404.12016,240.945262 404.13,240.82 C404.13,240.67 403.98,240.72 403.8,240.82 C403.62,240.92 403.12,241.05 403.12,240.45 C403.155155,239.90833 403.459257,239.420265 403.93,239.15 C404.41,238.85 404.72,239 404.73,239.5 L404.12,239.87 C404.12,239.71 404.04,239.69 403.92,239.76 C403.819145,239.818085 403.755008,239.923722 403.75,240.04 C403.75,240.19 403.89,240.13 404.07,240.04 C404.25,239.95 404.76,239.77 404.76,240.4 C404.735426,240.96326 404.421522,241.473826 403.93,241.75 C403.41,242.06 403.1,241.89 403.1,241.36 Z" id="Path" fill="#252525" fill-rule="nonzero"></path>
                    <path d="M407,238.79 L405.6,239.64 C405.6,239.9 405.78,239.97 405.98,239.84 C406.144845,239.741548 406.266317,239.58435 406.32,239.4 L407,239 C406.892327,239.62624 406.530371,240.180033 406,240.53 C405.41,240.88 405,240.53 405,239.8 C404.988586,239.010456 405.361516,238.264595 406,237.8 C406.6,237.43 407,237.8 407,238.5 C407.007273,238.59653 407.007273,238.69347 407,238.79 L407,238.79 Z M405.61,239.15 L406.37,238.69 C406.32,238.47 406.18,238.41 405.98,238.53 C405.778202,238.678404 405.644803,238.901938 405.61,239.15 L405.61,239.15 Z" id="Shape" fill="#252525" fill-rule="nonzero"></path>
                    <path d="M431.63,257.19 C431.306769,257.416136 431.127842,257.796832 431.16,258.19 C431.16,258.55 431.42,258.7 431.63,258.58 C431.935075,258.374051 432.115601,258.028042 432.11,257.66 C432.11,257.27 431.89,257 431.63,257.19 Z" id="Path" fill="#FF9E18" fill-rule="nonzero"></path>
                    <polygon id="Path" fill="#FF9E18" fill-rule="nonzero" points="437.97 254.05 437.97 254.88 432.95 257.73 432.95 256.9"></polygon>
                    <path d="M431.63,260.58 C431.301769,260.801891 431.121383,261.185691 431.16,261.58 C431.16,261.93 431.42,262.09 431.63,261.97 C431.935075,261.764051 432.115601,261.418042 432.11,261.05 C432.11,260.66 431.89,260.43 431.63,260.58 Z" id="Path" fill="#252525" fill-rule="nonzero"></path>
                    <polygon id="Path" fill="#252525" fill-rule="nonzero" points="437.97 257.38 437.97 258.2 432.95 261.06 432.95 260.23"></polygon>
                    <line x1="412.32" y1="253.79" x2="438.95" y2="238.81" id="Path" stroke="#E1E0E3" stroke-width="0.25"></line>
                    <line x1="412.32" y1="251.84" x2="438.95" y2="236.86" id="Path" stroke="#E1E0E3" stroke-width="0.25"></line>
                    <line x1="412.32" y1="249.89" x2="438.95" y2="234.91" id="Path" stroke="#E1E0E3" stroke-width="0.25"></line>
                    <line x1="412.32" y1="247.94" x2="438.95" y2="232.96" id="Path" stroke="#E1E0E3" stroke-width="0.25"></line>
                    <line x1="412.32" y1="245.99" x2="438.95" y2="231.01" id="Path" stroke="#E1E0E3" stroke-width="0.25"></line>
                    <line x1="412.32" y1="263.54" x2="438.95" y2="248.57" id="Path" stroke="#E1E0E3" stroke-width="0.25"></line>
                    <line x1="412.32" y1="261.59" x2="438.95" y2="246.62" id="Path" stroke="#E1E0E3" stroke-width="0.25"></line>
                    <line x1="412.32" y1="259.64" x2="438.95" y2="244.66" id="Path" stroke="#E1E0E3" stroke-width="0.25"></line>
                    <line x1="412.32" y1="257.69" x2="438.95" y2="242.71" id="Path" stroke="#E1E0E3" stroke-width="0.25"></line>
                    <line x1="412.32" y1="255.74" x2="438.95" y2="240.76" id="Path" stroke="#E1E0E3" stroke-width="0.25"></line>
                    <polyline id="Path" stroke="#252525" stroke-width="0.75" stroke-linecap="round" stroke-linejoin="round" points="415.79 253.59 419.24 255.35 419.87 251.51 423.35 253.43 427.75 253.59 429.61 250.48 435.1 248.78"></polyline>
                    <polyline id="Path" stroke="#FF9E18" stroke-width="0.75" stroke-linecap="round" stroke-linejoin="round" points="415.79 249.89 419.39 246.81 420.02 242.96 423.71 244 427.75 241.66 429.61 238.35 434.09 238.12"></polyline>
                    <path d="M493,412.72 C486,413.9 473.47,412.85 473.16,402.72 C472.16,371.06 458.41,369.54 454.25,357.57 C448.41,340.73 443.44,332.06 454.68,317.37 C467.17,301.04 522.02,273.72 534.89,298.86 C547.39,323.29 549.24,403.22 493,412.72 Z" id="Path" fill="#FFCD00" fill-rule="nonzero"></path>
                    <g id="Group" opacity="0.2" style="mix-blend-mode: darken;" transform="translate(447.000000, 311.000000)" fill="#3A3A3A" fill-rule="nonzero">
                        <path d="M24.27,35.52 C26.7795313,30.7938044 28.5148978,25.695743 29.41,20.42 C31.68,7.74 25.35,-0.51 19.2,0.68 C14.84,1.96 14.38,3.01 9.56,7.05 C7.81333333,8.51666667 6.08666667,9.94666667 4.38,11.34 C-2.37,23.23 2.1,31.73 7.25,46.59 C7.59367227,47.5639154 8.01156547,48.5100256 8.5,49.42 C14.75,47.5 19.54,43 24.27,35.52 Z" id="Path"></path>
                    </g>
                    <path d="M483.15,254.87 L492.15,255.87 C494.099497,256.040069 495.901005,256.979507 497.156364,258.480684 C498.411724,259.981861 499.017569,261.921172 498.84,263.87 L500.55,300.51 C500.25,303.93 494.77,306.46 491.35,306.16 L482.07,305.21 C480.72,305.09 478.9,303.9 479.07,302.55 L480.4,290.3 L476.91,289.82 C473.28,289.1 471.04,285.75 471.02,281.96 C471.02,276.58 474.3,266.75 475.26,261.59 C476.25,255.73 479.1,254.52 483.15,254.87 Z" id="Path" fill="#FFFFFF" fill-rule="nonzero"></path>
                    <path d="M478.74,278.24 C478.74,278.24 477.52,279.97 474.85,278.92" id="Path" stroke="#252525" stroke-width="0.5" stroke-linecap="round" stroke-linejoin="round"></path>
                    <path d="M475.7,273.52 C475.7,273.52 476.42,272.13 476.85,273.74" id="Path" stroke="#252525" stroke-width="0.5" stroke-linecap="round" stroke-linejoin="round"></path>
                    <path d="M492.66,427.36 C485.45,426.25 471.99,420.22 472.85,409.45 C474.27,391.77 474.41,344.13 504.85,330.5 C524.18,321.86 567.63,297.92 567.38,335.71 C567.24,355.07 564.79,392.13 539.75,414.35 C528.28,424.55 510.91,430.17 492.66,427.36 Z" id="Path" fill="#B4BD00" fill-rule="nonzero"></path>
                    <path d="M482.22,293.45 C468.22,302.37 476.22,319.99 485.73,323.59 C492.97,326.34 494.6,329.59 496.85,335.31 L495.85,336.17 C496.49,337.83 497.31,340.78 498.26,343.12 C503.46,355.93 518.63,360.34 530.77,344.95 C538.94,334.59 535.77,325.63 543.77,316.29 C551.77,306.95 490.56,288.11 482.22,293.45 Z" id="Path" fill="#3A3A3A" fill-rule="nonzero" opacity="0.2" style="mix-blend-mode: darken;"></path>
                    <path d="M467.53,307.69 C463.17,308.97 462.71,310.01 457.89,314.06 C442.33,327.12 428,337.43 428,337.43 C428,337.43 402.84,308.43 400.08,305.55 C398.8,304.21 400.79,301.25 400.63,300.11 C400.33,297.96 401.46,296.9 400.2,296.56 C399.61,296.39 398.86,297.73 398.61,298.94 C398.55,299.2 398.55,299.59 398.43,299.65 C398.29,298.65 398.22,297.16 398.1,296.17 C397.73,293.05 396.58,291.01 395.85,290.34 C395.49,290.01 394.33,289.34 394.16,290.52 C394.09,290.95 394.9,292.2 395.05,292.76 C395.458885,293.763716 395.623404,294.850228 395.53,295.93 C395.35,297.4 389.63,297.48 390.33,301.62 C390.52,302.72 391.82,304.95 392.88,307.74 C398.13,321.51 410.5,350.36 413.88,355.41 C416.3,359.04 417.24,359.82 419.77,360.02 C423.53,360.32 434.2,361.27 454.86,356.96 C462.14,355.44 467.43,350.84 472.67,342.52 C475.181232,337.798084 476.916725,332.703029 477.81,327.43 C480,314.75 473.68,306.5 467.53,307.69 Z" id="Path" fill="#FFFFFF" fill-rule="nonzero"></path>
                    <path d="M538.62,290.64 C529.32,285.91 521.62,283.54 517.62,273.79 C516.62,271.37 514.86,264.86 511.62,259.53 C509.484826,256.150905 506.680613,253.244596 503.38,250.99 C498.64,247.99 495.85,252.09 488.91,248.23 C482.35,244.58 477.99,246.3 474.59,250.77 C472.18,253.94 472.69,259.43 475.09,262.16 L475.53,260.08 C475.53,260.08 479.16,264.84 482.69,265.74 C484.8,266.28 484.33,271.01 484.98,272.53 C486.74,276.69 488.64,272.53 491.08,272.88 C497.01,273.71 490.42,286.03 482.08,291.37 C468.14,300.28 476.08,317.9 485.59,321.51 C495.25,325.17 494.48,327.3 499.25,339.05 C504.45,351.86 518.34,357.05 530.47,341.69 C538.65,331.33 535.65,325.54 543.66,316.2 C551.67,306.86 548.45,295.65 538.62,290.64 Z" id="Path" fill="#FF9E18" fill-rule="nonzero"></path>
                    <path d="M489.12,291.94 C488.3,291.94 486.12,291.94 486.12,289.59 C486.12,288.31 487.46,285.9 488.03,284.92 C488.271348,284.559781 488.676403,284.343602 489.11,284.343602 C489.543597,284.343602 489.948652,284.559781 490.19,284.92 C490.77,285.92 492.110034,288.31 492.110034,289.59 C492.12,291.94 489.94,291.94 489.12,291.94 Z" id="Path" fill="#FFCD00" fill-rule="nonzero"></path>
                    <circle id="Oval" fill="#FFCD00" fill-rule="nonzero" cx="489.12" cy="281.96" r="1.25"></circle>
                    <path d="M585.83,330.15 C585.83,330.15 599.11,311 587.89,296 C554.43,251.24 356.89,400.47 321.1,349.78 C296.44,314.85 341.19,290.87 341.19,290.87" id="Path" stroke="#FFCD00" stroke-linecap="round" stroke-dasharray="0,4"></path>
                </g>
            </g>
        </g>
    </g>
</svg>