<?xml version="1.0" encoding="UTF-8"?>
<svg width="90px" height="66px" viewBox="0 0 90 66" version="1.1" xmlns="http://www.w3.org/2000/svg" xmlns:xlink="http://www.w3.org/1999/xlink">
    <title>Group 3</title>
    <defs>
        <polygon id="path-1" points="0 0.000306087279 89.7911143 0.000306087279 89.7911143 65.4542017 0 65.4542017"></polygon>
    </defs>
    <g id="Page-1" stroke="none" stroke-width="1" fill="none" fill-rule="evenodd">
        <g id="16GRID-app/Web-detail---개발-&amp;-디자인-Copy" transform="translate(-504.000000, -717.000000)">
            <g id="Group-3" transform="translate(504.000000, 717.000000)">
                <mask id="mask-2" fill="white">
                    <use xlink:href="#path-1"></use>
                </mask>
                <g id="Clip-2"></g>
                <path d="M76.3708909,30.7611818 C76.3463455,30.7693636 76.3365273,30.7808182 76.3185273,30.7906364 L67.4003455,34.4299091 L67.1270727,34.551 L64.9523455,44.4837273 C64.8083455,44.8191818 64.3747091,44.901 64.0834364,44.6195455 L57.5854364,36.9335455 L57.5510727,36.9139091 L20.9145273,52.6393636 C20.8834364,52.6524545 20.8474364,52.6606364 20.8114364,52.6606364 C20.6756182,52.6606364 20.5643455,52.551 20.5643455,52.4151818 C20.5643455,52.335 20.6052545,52.2613636 20.6658,52.2171818 L52.3425273,28.5095455 L48.3334364,19.359 C48.1354364,18.9400909 48.5003455,18.4982727 48.9945273,18.6193636 L48.9961636,18.6193636 L58.7014364,21.0100909 L66.2368909,14.301 L66.2385273,14.3026364 C66.5641636,14.0473636 67.0043455,14.229 67.0878,14.6348182 L67.8225273,24.7131818 L76.5165273,29.7973636 C76.8912545,30.0362727 76.8339818,30.5860909 76.3708909,30.7611818 M87.8270727,38.4553636 C93.5248909,23.985 86.4018,7.64754545 71.9396182,1.95463636 C60.6945273,-2.457 48.3301636,0.853363636 40.6981636,9.33790909 L10.9163455,41.2355455 C10.5170727,41.6659091 10.7036182,42.2026364 11.1945273,42.2762727 L19.1243455,42.7655455 C19.7592545,42.8031818 19.8361636,43.3497273 19.5170727,43.7244545 L0.122890909,64.6453636 C-0.212563636,65.0086364 0.194890909,65.5764545 0.657981818,65.4308182 L28.3468909,56.6828182 C28.9310727,56.4782727 29.3843455,57.0019091 29.1339818,57.4600909 L29.1339818,57.4617273 L25.4308909,64.0104545 C25.2394364,64.3819091 25.6010727,64.8924545 26.0658,64.8580909 L65.9832545,55.9611818 C75.5216182,54.4573636 84.0421636,48.0902727 87.8270727,38.4553636" id="Fill-1" fill="#D61F26" mask="url(#mask-2)"></path>
            </g>
        </g>
    </g>
</svg>