<?xml version="1.0" encoding="UTF-8"?>
<svg width="100px" height="100px" viewBox="0 0 100 100" version="1.1" xmlns="http://www.w3.org/2000/svg" xmlns:xlink="http://www.w3.org/1999/xlink">
    <title>Group 11</title>
    <g id="Page-1" stroke="none" stroke-width="1" fill="none" fill-rule="evenodd">
        <g id="16GRID-web-detail---개발-&amp;-디자인" transform="translate(-504.000000, -683.000000)">
            <g id="Group-11" transform="translate(504.000000, 683.000000)">
                <rect id="Rectangle" fill="#0086FF" x="0" y="0" width="100" height="100"></rect>
                <g id="Group-10" transform="translate(25.757576, 13.636364)" fill="#FFFFFF">
                    <polygon id="Fill-6" points="27.739726 28.3982684 44.8630137 28.3982684 44.8630137 24.2424242 27.739726 24.2424242"></polygon>
                    <path d="M31.1643836,51.6017316 C31.1643836,57.3395671 26.5643836,61.991342 20.890411,61.991342 C15.2164384,61.991342 10.6164384,57.3395671 10.6164384,51.6017316 C10.6164384,45.8638961 15.2164384,41.2121212 20.890411,41.2121212 L31.5068493,41.2121212 L31.1643836,51.6017316 Z M0,51.6017316 C0,63.2692641 9.35273973,72.7272727 20.890411,72.7272727 C32.4280822,72.7272727 41.7808219,63.2692641 41.7808219,51.6017316 L41.7808219,30.4761905 L20.890411,30.4761905 C9.35273973,30.4761905 0,39.9341991 0,51.6017316 L0,51.6017316 Z" id="Fill-8"></path>
                    <polygon id="Fill-9" points="30.8219178 0 30.8219178 8.31168831 30.8219178 11.0822511 30.8219178 22.1645022 41.7808219 22.1645022 41.7808219 11.0822511 50 11.0822511 50 0"></polygon>
                </g>
            </g>
        </g>
    </g>
</svg>