<?xml version="1.0" encoding="UTF-8"?>
<svg width="119px" height="53px" viewBox="0 0 119 53" version="1.1" xmlns="http://www.w3.org/2000/svg" xmlns:xlink="http://www.w3.org/1999/xlink">
    <title>LOGO</title>
    <g id="Page-1" stroke="none" stroke-width="1" fill="none" fill-rule="evenodd">
        <g id="16GRID-web-기획안-1" transform="translate(-420.000000, -41.000000)">
            <g id="Header" transform="translate(-2.000000, 0.000000)">
                <g id="LOGO" transform="translate(422.000000, 41.000000)">
                    <polygon id="Fill-7" fill="#F4C53A" points="118.890251 23.5377437 118.890251 47.1257019 112.599208 47.1257019 112.599208 38.0703437 105.808592 38.0703437 105.808592 47.1257019 99.5175492 47.1257019 99.5175492 23.5377437 105.808592 23.5377437 105.808592 32.0478181 112.599208 32.0478181 112.599208 23.5377437"></polygon>
                    <path d="M87.6890023,41.9937242 C85.6867556,41.9937242 84.2320833,40.4281288 84.2320833,38.2620312 C84.2320833,36.09618 85.6696826,34.5665753 87.6890023,34.5665753 C89.1639643,34.5665753 90.415987,35.4212312 90.9158064,36.7403149 L96.5315987,36.7403149 C95.8793591,32.3536405 92.3746851,29.4346963 87.7070651,29.4346963 C82.3196556,29.4346963 78.4742632,33.0990916 78.4742632,38.2440358 C78.4742632,43.38898 82.3377184,47.1246172 87.689992,47.1246172 L87.6890023,47.1256033 C92.3464775,47.1256033 95.885545,44.1354172 96.5820755,39.6888405 L90.9081359,39.6888405 C90.4043576,41.099873 89.1884604,41.9937242 87.6890023,41.9937242" id="Fill-10" fill="#F4C53A"></path>
                    <path d="M70.0461614,27.9494085 L75.9538386,27.9494085 L75.9538386,23 L70.0461614,23 L70.0461614,27.9494085 Z M70,47 L76,47 L76,30.0685396 L70,30.0685396 L70,47 Z" id="Fill-2" fill="#252525"></path>
                    <polygon id="Fill-1" fill="#252525" points="61 47 67 47 67 23 61 23"></polygon>
                    <path d="M51.6503187,38.2811358 C51.6503187,36.0985219 50.149376,34.5731079 48.0568154,34.5731079 C45.9642549,34.5731079 44.4623224,36.0852102 44.4623224,38.2801498 C44.4623224,40.4750893 45.9642549,41.9884242 48.0568154,41.9884242 C50.149376,41.9884242 51.6503187,40.4760753 51.6503187,38.2811358 M38.7131625,38.2801498 C38.7131625,33.133973 42.6241254,29.4348195 48.0568154,29.4348195 C53.4726799,29.4348195 57.3994786,33.133973 57.3994786,38.2801498 C57.3994786,43.4085777 53.4726799,47.12548 48.0568154,47.12548 C42.6241254,47.12548 38.7131625,43.4085777 38.7131625,38.2801498" id="Fill-5" fill="#252525"></path>
                    <path d="M35.588277,36.6898786 L35.588277,47.1254553 L29.5741139,47.1254553 L29.5741139,37.3835623 C29.5741139,35.3850926 28.2666656,34.365274 26.6971833,34.365274 C24.8775439,34.365274 23.6611518,35.6473809 23.6611518,37.8714088 L23.6611518,47.1254553 L17.7298796,47.1254553 L17.7298796,23.5377437 L23.6611518,23.5377437 L23.6611518,30.9355577 C24.9473207,29.9085902 26.6635321,29.2826972 28.4032499,29.2826972 C32.4124446,29.2826972 35.588277,32.1974507 35.588277,36.6898786" id="Fill-3" fill="#252525"></path>
                    <polygon id="Fill-12" fill="#F4C53A" points="0 -2.46511628e-05 0 52.9999753 23.6439303 52.9999753 23.6439303 47.1110591 5.91098258 47.1110591 5.91098258 5.88889163 17.7329478 5.88889163 17.7329478 23.5556405 23.6439303 23.5556405 23.6439303 -2.46511628e-05"></polygon>
                </g>
            </g>
        </g>
    </g>
</svg>