<?xml version="1.0" encoding="utf-8"?>
<svg width="90px" height="90px" viewbox="0 0 90 90" version="1.1" xmlns:xlink="http://www.w3.org/1999/xlink" xmlns="http://www.w3.org/2000/svg">
  <g id="Group-5">
    <path d="M0 90L90 90L90 0L0 0L0 90Z" id="Fill-1" fill="#720000" fill-rule="evenodd" stroke="none" />
    <path d="M9.78079 6.74447L9.78079 0L6.18695 0L6.18695 6.74447L0 6.74447L0 10.4377L6.18695 10.4377L6.18695 31.9355L9.78079 31.9355L9.78079 10.4377L15.9677 10.4377L15.9677 6.74447L9.78079 6.74447Z" transform="translate(37.016113 29.032227)" id="Fill-2" fill="#FFBC00" fill-rule="evenodd" stroke="none" />
    <path d="M62.1752 30.8189C61.8454 32.2541 61.5023 33.6909 61.3994 35.165C61.2837 36.828 61.5796 38.4841 61.8094 40.1247C61.9933 41.437 62.2052 42.8565 61.8921 44.164C61.5697 45.5103 60.633 46.4392 59.5786 47.2744C58.5452 48.0927 57.4384 48.8138 56.4521 49.6923C56.3768 49.7592 56.3046 49.8292 56.2308 49.8977L53.1944 48.4603L54.7893 51.4037C54.2276 52.0551 53.6982 52.7356 53.1785 53.42C52.6741 54.0838 52.1791 54.7731 51.6712 55.4567C49.5182 55.4856 47.3652 55.5144 45.2121 55.5434C43.0801 55.5721 40.8779 55.4681 38.7846 55.9456C36.7208 56.4165 34.8344 57.5111 32.971 58.4747C31.5046 59.2329 30.0383 59.9912 28.5719 60.7494C28.4582 60.7536 28.3447 60.758 28.2309 60.7624C25.202 60.8755 22.3085 60.5883 19.7823 58.7761C17.515 57.1495 16.5385 54.8448 15.447 52.3826C14.9497 51.261 14.3471 50.1772 13.487 49.2885C12.5072 48.2763 11.2518 47.7392 10.0513 47.0564C9.96783 47.0089 9.89036 46.9615 9.81642 46.914C12.2577 43.7191 14.0037 40.3339 13.646 36.1912C13.2805 31.9608 11.3254 28.1797 10.0397 24.1951C10.2394 24.0143 10.4404 23.8398 10.6398 23.6719C11.2804 23.133 11.9535 22.6382 12.6396 22.1611L16.0992 24.8741L14.6457 20.8091C15.7777 20.0521 16.8995 19.2799 17.9319 18.3838C19.0897 17.3787 20.151 16.2001 20.917 14.8651C21.7441 13.4237 21.8848 11.7477 22.6397 10.3056C23.933 7.83525 27.4245 7.54884 29.8663 7.63943C33.3556 7.76904 36.8534 8.47623 40.3079 9.05028C40.3338 9.07782 40.3601 9.10537 40.3896 9.13221C42.3729 10.9329 43.6979 13.437 46.4772 14.136L46.4772 18.1783L47.9896 14.3328C50.3832 14.4198 53.0015 13.7079 55.0201 15.0889C55.1066 15.2919 55.1923 15.4948 55.2772 15.6958C55.8149 16.9689 56.3427 18.2521 57.1504 19.383C58.1182 20.7383 59.4362 21.5782 60.6157 22.7143C62.9559 24.968 62.8518 27.8748 62.1752 30.8189L62.1752 30.8189ZM59.4242 54.2872C58.5759 54.779 57.5738 54.9181 56.6048 55.0101C57.5334 53.8669 58.5135 52.7891 59.6286 51.8877C60.245 51.3896 60.8804 50.9149 61.4981 50.4304C61.3714 51.9756 60.8393 53.4665 59.4242 54.2872L59.4242 54.2872ZM48.4401 63.7853C48.4738 63.7233 48.5028 63.6606 48.5232 63.5974C48.5587 63.5778 48.5926 63.5564 48.6275 63.5366L48.4401 63.7853ZM47.3601 59.9078C44.6238 61.6942 41.6611 61.063 38.5905 60.7789C37.0948 60.6406 35.6091 60.5973 34.1244 60.5998C35.8263 59.7056 37.5432 58.7101 39.4282 58.2812C41.4315 57.8256 43.6068 57.987 45.6463 57.9596C46.9908 57.9416 48.3353 57.9234 49.6798 57.9054C48.9813 58.6575 48.2227 59.3445 47.3601 59.9078L47.3601 59.9078ZM37.2058 65.7288C35.6647 65.5284 34.1961 64.9288 32.7642 64.3115C33.111 64.3023 33.4576 64.2959 33.8034 64.2966C35.6797 64.3007 37.5543 64.4058 39.4201 64.6055C40.5505 64.7266 41.6657 64.8588 42.7853 64.8871C41.0406 65.6448 39.1208 65.9776 37.2058 65.7288L37.2058 65.7288ZM14.1343 58.2745C12.4904 57.8498 10.1918 57.6637 8.84972 56.5403C7.06263 55.0445 7.08733 52.3433 7.70815 49.9925C8.67202 50.5771 9.77372 50.9721 10.6141 51.7127C11.636 52.6132 12.1202 54.0372 12.6353 55.2592C13.0904 56.3385 13.592 57.3446 14.2244 58.2978C14.1944 58.29 14.1644 58.2822 14.1343 58.2745L14.1343 58.2745ZM8.17985 26.2134C9.32248 29.351 10.7762 32.4342 11.1809 35.7628C11.5883 39.116 10.4491 41.8044 8.66885 44.3966C8.66885 44.3897 8.66867 44.3835 8.66885 44.3768C8.68985 42.6298 8.99725 40.8995 9.01772 39.1524C9.03625 37.5683 8.78037 36.0242 8.25326 34.5319C7.75509 33.1218 7.01198 31.6972 6.88898 30.1869C6.76828 28.7091 7.33174 27.3791 8.17985 26.2134L8.17985 26.2134ZM12.0539 13.3981C13.8166 11.629 16.2141 10.8597 18.6563 10.3158C18.3247 11.367 18.0522 12.4259 17.4386 13.3808C15.8774 15.8104 13.1714 17.3407 10.8325 18.9109C10.4256 19.1842 10.0181 19.4673 9.61419 19.7597C9.78713 17.413 10.3656 15.0926 12.0539 13.3981L12.0539 13.3981ZM50.2078 9.88284C51.322 10.3645 52.3731 11.049 53.1944 11.9497C51.6068 11.7938 49.9406 12.0261 48.3284 11.9596C45.9736 11.8623 44.7233 10.2619 43.3359 8.69871C45.6828 8.74074 48.0471 8.94892 50.2078 9.88284L50.2078 9.88284ZM66.2522 25.7372L71.129 23.7431L65.7771 23.9518C65.2562 22.5501 64.4444 21.2496 63.387 20.193C62.2726 19.0797 60.8646 18.31 60.0133 16.947C58.3751 14.3248 57.8217 11.2282 55.5407 8.9936C53.0728 6.57626 49.7214 5.54081 46.3691 5.15128C45.179 5.01302 43.9825 4.96729 42.7854 4.95299L42.7854 0L39.8794 5.20832C36.9788 4.72485 34.0683 4.22549 31.1478 3.97687C30.398 3.91312 29.6275 3.87887 28.8528 3.88752L27.515 0L26.9236 4.00953C25.1581 4.22178 23.4402 4.73085 21.9656 5.72516C21.1909 6.24747 20.5108 6.86779 19.9625 7.59546C16.3789 8.34715 12.6487 9.15146 10.0956 11.9435L6.00064 10.2173L8.79184 13.761L8.79184 13.761C7.45845 16.1593 7.14292 19.0179 7.13233 21.7829C5.97523 22.8701 4.95912 24.0936 4.23666 25.5028C3.50008 26.9395 3.0515 28.5622 3.14785 30.1869C3.24914 31.8921 3.8636 33.4352 4.45654 35.014C4.86983 36.1149 5.12165 37.1559 5.21853 38.2501L0 40.7183L5.14494 41.2634C5.01524 42.6202 4.84618 43.9827 4.9503 45.339C5.02936 46.3688 5.28788 47.2893 5.76964 48.0918C4.66301 51.2236 4.44789 54.9647 6.53993 57.6008C7.90703 59.3235 10.0471 59.7206 12.0664 60.2422C13.8175 60.6945 15.5684 61.1467 17.3192 61.5989C17.7047 61.8938 18.1059 62.1687 18.5199 62.423L18.0019 67.3652L21.3822 63.7572C21.7383 63.8759 22.0974 63.9839 22.4609 64.0711C24.0057 64.4418 25.5726 64.5405 27.1463 64.5317C28.5699 65.1352 29.9933 65.7387 31.4171 66.3419C33.4041 67.1837 35.3682 68.0016 37.5414 68.1843C41.4897 68.5163 45.4262 66.8288 48.2144 64.0842C48.5232 63.5974 53.1944 66.7793 53.1944 66.7793L51.0857 61.702C52.3558 60.5129 53.4629 59.1014 54.5546 57.6644C56.887 57.5468 59.3893 57.361 61.1958 56.0081C63.6118 54.1985 64.1723 51.0917 63.8735 48.25C64.648 47.3444 65.2523 46.3017 65.5362 44.9878C66.2643 41.6194 64.8443 38.3389 65.1577 34.9707C65.4526 31.8038 66.7434 28.8841 66.2522 25.7372L66.2522 25.7372Z" transform="translate(9.435547 10.886719)" id="Fill-3" fill="#A07C59" fill-rule="evenodd" stroke="none" />
  </g>
</svg>