<?xml version="1.0" encoding="UTF-8"?>
<svg width="381px" height="561px" viewBox="0 0 381 561" version="1.1" xmlns="http://www.w3.org/2000/svg" xmlns:xlink="http://www.w3.org/1999/xlink">
    <title>Group 10</title>
    <defs>
        <rect id="path-1" x="0" y="0" width="375" height="57"></rect>
        <filter x="-1.5%" y="-6.1%" width="102.9%" height="119.3%" filterUnits="objectBoundingBox" id="filter-2">
            <feOffset dx="0" dy="2" in="SourceAlpha" result="shadowOffsetOuter1"></feOffset>
            <feGaussianBlur stdDeviation="1.5" in="shadowOffsetOuter1" result="shadowBlurOuter1"></feGaussianBlur>
            <feColorMatrix values="0 0 0 0 0.180392157   0 0 0 0 0.145098039   0 0 0 0 0.125490196  0 0 0 0.2 0" type="matrix" in="shadowBlurOuter1"></feColorMatrix>
        </filter>
        <polygon id="path-3" points="0 -0.0005 23.5167 -0.0005 23.5167 25.2514 0 25.2514"></polygon>
        <polygon id="path-5" points="0.0001 0.2002 14.8961 0.2002 14.8961 2 0.0001 2"></polygon>
        <polygon id="path-7" points="0 -0.0001 21.22 -0.0001 21.22 23.5239 0 23.5239"></polygon>
    </defs>
    <g id="Page-1" stroke="none" stroke-width="1" fill="none" fill-rule="evenodd">
        <g id="16GRID-app-detail---개발-&amp;-디자인-Copy" transform="translate(-1072.000000, -3673.000000)">
            <g id="Group-10" transform="translate(1075.000000, 3676.000000)">
                <g id="Group" transform="translate(0.000000, 15.000000)">
                    <text id="오늘의-QT-내용은-정말-은혜로운-내" fill="#2E2520" font-family="AppleSDGothicNeo-Medium, Apple SD Gothic Neo" font-size="16" font-weight="400" line-spacing="21">
                        <tspan x="20" y="208">오늘의 QT 내용은 정말 은혜로운 내용이었어요. 창세</tspan>
                        <tspan x="20" y="229">기 6장을 읽고 큰 감명을 받았어요. 오늘의 QT 내용은 </tspan>
                        <tspan x="20" y="250">정말 은혜로운 내용이었어요.</tspan>
                    </text>
                    <text id="오늘의-QT" fill="#2E2520" font-family="AppleSDGothicNeo-Bold, Apple SD Gothic Neo" font-size="18" font-weight="bold">
                        <tspan x="20" y="169">오늘의 QT</tspan>
                    </text>
                    <text id="2019.-03.-16-ㅣ-pm-12" fill="#2E2520" font-family="AppleSDGothicNeo-Regular, Apple SD Gothic Neo" font-size="12" font-weight="normal">
                        <tspan x="201.688" y="462">2019. 03. 16 ㅣ pm 12:18 (수정)</tspan>
                    </text>
                    <g id="bible_name_group" transform="translate(0.000000, 76.000000)">
                        <g id="btn_white">
                            <use fill="black" fill-opacity="1" filter="url(#filter-2)" xlink:href="#path-1"></use>
                            <use fill="#FFFFFF" fill-rule="evenodd" xlink:href="#path-1"></use>
                        </g>
                        <text id="창세기-6.2,-6.4-5-ㅣ-요한복" fill="#2E2520" font-family="AppleSDGothicNeo-Medium, Apple SD Gothic Neo" font-size="14" font-weight="400">
                            <tspan x="20" y="28">창세기 6.2, 6.4-5 ㅣ 요한복음7.16-17 ㅣ사도행전7.4… </tspan>
                        </text>
                        <g id="search_more_n" transform="translate(332.000000, 15.000000)">
                            <rect id="Rectangle" x="0" y="0" width="28" height="28"></rect>
                            <polygon id="ic_view_more" stroke="#2E2520" fill="#2E2520" stroke-linejoin="round" transform="translate(14.500000, 14.500000) rotate(180.000000) translate(-14.500000, -14.500000) " points="14.5 11 20 18 9 18"></polygon>
                        </g>
                    </g>
                    <g id="ic_back" transform="translate(15.000000, 16.000000)">
                        <polygon id="Fill-1" points="0 28 28 28 28 0 0 0"></polygon>
                        <polyline id="Stroke-2" stroke="#FFFFFF" stroke-width="1.7" stroke-linecap="round" stroke-linejoin="round" points="18.2008 24.1006 9.7998 13.9996 18.2008 3.8996"></polyline>
                    </g>
                    <g id="header">
                        <rect id="Rectangle-Copy-15" fill="#720000" transform="translate(187.500000, 38.000000) scale(1, -1) translate(-187.500000, -38.000000) " x="0" y="0" width="375" height="76"></rect>
                        <text id="QT" fill="#FFFFFF" font-family="AppleSDGothicNeo-Bold, Apple SD Gothic Neo" font-size="18" font-weight="bold">
                            <tspan x="173" y="45">QT</tspan>
                        </text>
                    </g>
                    <g transform="translate(0.000000, 481.000000)" id="edit_bar">
                        <rect id="Rectangle-Copy-27" fill="#FFFFFF" x="0" y="0" width="375" height="60"></rect>
                        <line x1="0" y1="0.5" x2="375" y2="0.5" id="Path-10" stroke="#EBEBEB"></line>
                        <g id="edit_bar_share_n" transform="translate(174.000000, 16.000000)">
                            <g id="Group-3" transform="translate(2.000000, 1.000000)">
                                <mask id="mask-4" fill="white">
                                    <use xlink:href="#path-3"></use>
                                </mask>
                                <g id="Clip-2"></g>
                                <path d="M16.4877,20.5954 C17.2757,20.5954 17.9157,21.2354 17.9157,22.0234 C17.9157,22.8104 17.2757,23.4514 16.4877,23.4514 C15.6997,23.4514 15.0587,22.8104 15.0587,22.0234 C15.0587,21.2354 15.6997,20.5954 16.4877,20.5954 M1.7997,12.9344 C1.7997,11.4244 3.0287,10.1964 4.5377,10.1964 C6.0467,10.1964 7.2747,11.4244 7.2747,12.9344 C7.2747,14.4434 6.0467,15.6714 4.5377,15.6714 C3.0287,15.6714 1.7997,14.4434 1.7997,12.9344 M18.9797,9.0744 C21.4817,9.0744 23.5167,7.0394 23.5167,4.5374 C23.5167,3.1574 22.9007,1.8684 21.8247,1.0014 C21.4377,0.6914 20.8727,0.7524 20.5597,1.1374 C20.2477,1.5244 20.3087,2.0914 20.6957,2.4034 C21.3447,2.9274 21.7167,3.7034 21.7167,4.5374 C21.7167,6.0464 20.4887,7.2754 18.9797,7.2754 C17.4697,7.2754 16.2417,6.0464 16.2417,4.5374 C16.2417,3.0284 17.4697,1.7994 18.9797,1.7994 C19.4767,1.7994 19.8797,1.3974 19.8797,0.9004 C19.8797,0.4034 19.4767,-0.0006 18.9797,-0.0006 C16.4777,-0.0006 14.4427,2.0354 14.4427,4.5374 C14.4427,4.6854 14.4717,4.8244 14.4857,4.9694 L7.1797,9.2604 C6.4337,8.7224 5.5257,8.3964 4.5377,8.3964 C2.0357,8.3964 -0.0003,10.4324 -0.0003,12.9344 C-0.0003,15.4364 2.0357,17.4714 4.5377,17.4714 C5.5047,17.4714 6.3977,17.1614 7.1347,16.6434 L13.4157,21.0824 C13.3227,21.3824 13.2587,21.6944 13.2587,22.0234 C13.2587,23.8034 14.7077,25.2514 16.4877,25.2514 C18.2677,25.2514 19.7157,23.8034 19.7157,22.0234 C19.7157,20.2424 18.2677,18.7954 16.4877,18.7954 C15.6897,18.7954 14.9687,19.0974 14.4047,19.5774 L8.3807,15.3194 C8.8137,14.6244 9.0747,13.8114 9.0747,12.9344 C9.0747,12.0854 8.8257,11.2994 8.4197,10.6194 L15.0347,6.7344 C15.8107,8.1224 17.2787,9.0744 18.9797,9.0744" id="Fill-1" fill="#2E2520" mask="url(#mask-4)"></path>
                            </g>
                            <rect id="Rectangle" x="0" y="0" width="28" height="28"></rect>
                        </g>
                        <g id="edit_bar_modipy_n" transform="translate(297.000000, 16.000000)">
                            <g id="Group-6" transform="translate(0.000000, 1.000000)">
                                <path d="M24.0576,3.0731 L23.8546,3.5731 L21.3916,2.5711 L21.5956,2.0711 L24.0576,3.0731 Z M23.1746,5.2391 L17.4996,19.2051 L15.7306,20.0311 L15.0376,18.2051 L20.7136,4.2401 L23.1746,5.2391 Z M27.3536,6.6171 L27.3526,6.6171 C27.2596,6.3971 27.0766,6.2211 26.8506,6.1351 L25.0366,5.4401 L26.0636,2.9161 C26.2496,2.4561 26.0276,1.9301 25.5686,1.7431 L21.4366,0.0631 C21.2156,-0.0229 20.9666,-0.0219 20.7496,0.0701 C20.5286,0.1641 20.3566,0.3391 20.2676,0.5591 L13.2386,17.8541 C13.1516,18.0641 13.1486,18.2991 13.2296,18.5141 L14.2656,21.2451 L13.5996,22.8821 C13.4126,23.3411 13.6346,23.8671 14.0976,24.0561 C14.1406,24.0731 14.1916,24.0901 14.2426,24.1001 C14.3076,24.1141 14.3706,24.1211 14.4346,24.1211 C14.7946,24.1211 15.1266,23.9041 15.2666,23.5581 L15.9326,21.9241 L18.5816,20.6861 C18.7886,20.5901 18.9496,20.4201 19.0336,20.2101 L24.3596,7.1081 L25.3486,7.4871 L22.6476,14.1351 C22.5576,14.3571 22.5576,14.6011 22.6516,14.8241 C22.7456,15.0451 22.9196,15.2171 23.1416,15.3071 C23.3626,15.3961 23.6066,15.3971 23.8286,15.3021 C24.0516,15.2091 24.2246,15.0351 24.3136,14.8121 L27.3616,7.3141 C27.4526,7.0911 27.4496,6.8371 27.3536,6.6171 L27.3536,6.6171 Z" id="Fill-1" fill="#000000"></path>
                                <g id="Group-5" transform="translate(0.000000, 24.379700)">
                                    <mask id="mask-6" fill="white">
                                        <use xlink:href="#path-5"></use>
                                    </mask>
                                    <g id="Clip-4"></g>
                                    <path d="M13.9961,0.2002 L0.9001,0.2002 C0.4041,0.2002 0.0001,0.6032 0.0001,1.0992 C0.0001,1.5962 0.4041,2.0002 0.9001,2.0002 L13.9961,2.0002 C14.4921,2.0002 14.8961,1.5962 14.8961,1.0992 C14.8961,0.6032 14.4921,0.2002 13.9961,0.2002" id="Fill-3" fill="#000000" mask="url(#mask-6)"></path>
                                </g>
                            </g>
                            <rect id="Rectangle-Copy" x="0" y="0" width="28" height="28"></rect>
                        </g>
                        <g id="edit_bar_delete_n" transform="translate(50.000000, 16.000000)">
                            <g id="Group-6" transform="translate(3.000000, 2.000000)">
                                <mask id="mask-8" fill="white">
                                    <use xlink:href="#path-7"></use>
                                </mask>
                                <g id="Clip-2"></g>
                                <path d="M4.623,21.7239 L16.209,21.7239 L16.209,4.4079 L4.623,4.4079 L4.623,21.7239 Z M20.32,2.6069 L0.9,2.6069 C0.403,2.6069 0,3.0109 0,3.5079 C0,4.0039 0.403,4.4069 0.9,4.4069 L2.824,4.4069 L2.824,22.6239 C2.824,23.1209 3.227,23.5239 3.723,23.5239 L17.109,23.5239 C17.606,23.5239 18.009,23.1209 18.009,22.6239 L18.009,4.4069 L20.32,4.4069 C20.817,4.4069 21.22,4.0039 21.22,3.5079 C21.22,3.0109 20.817,2.6069 20.32,2.6069 L20.32,2.6069 Z" id="Fill-1" fill="#2E2520" mask="url(#mask-8)"></path>
                                <path d="M8.2103,1.7997 L13.0103,1.7997 C13.5073,1.7997 13.9103,1.3967 13.9103,0.9007 C13.9103,0.4037 13.5073,-0.0003 13.0103,-0.0003 L8.2103,-0.0003 C7.7133,-0.0003 7.3103,0.4037 7.3103,0.9007 C7.3103,1.3967 7.7133,1.7997 8.2103,1.7997" id="Fill-3" fill="#2E2520" mask="url(#mask-8)"></path>
                                <path d="M8.4662,19.1083 C8.9632,19.1083 9.3662,18.7053 9.3662,18.2083 L9.3662,8.4193 C9.3662,7.9213 8.9632,7.5183 8.4662,7.5183 C7.9692,7.5183 7.5662,7.9213 7.5662,8.4193 L7.5662,18.2083 C7.5662,18.7053 7.9692,19.1083 8.4662,19.1083" id="Fill-4" fill="#2E2520" mask="url(#mask-8)"></path>
                                <path d="M12.8128,19.1083 C13.3098,19.1083 13.7128,18.7053 13.7128,18.2083 L13.7128,8.4193 C13.7128,7.9213 13.3098,7.5183 12.8128,7.5183 C12.3158,7.5183 11.9128,7.9213 11.9128,8.4193 L11.9128,18.2083 C11.9128,18.7053 12.3158,19.1083 12.8128,19.1083" id="Fill-5" fill="#2E2520" mask="url(#mask-8)"></path>
                            </g>
                            <rect id="Rectangle" x="0" y="0" width="28" height="28"></rect>
                        </g>
                    </g>
                </g>
                <rect id="Rectangle" stroke="#2E2520" x="0" y="15" width="375" height="542"></rect>
                <line x1="30" y1="25" x2="30" y2="0" id="Path-6" stroke="#2E2520" stroke-width="5" stroke-linecap="round"></line>
                <line x1="170" y1="25" x2="170" y2="0" id="Path-6-Copy-4" stroke="#2E2520" stroke-width="5" stroke-linecap="round"></line>
                <line x1="310" y1="25" x2="310" y2="0" id="Path-6-Copy-8" stroke="#2E2520" stroke-width="5" stroke-linecap="round"></line>
                <line x1="100" y1="25" x2="100" y2="0" id="Path-6-Copy-2" stroke="#2E2520" stroke-width="5" stroke-linecap="round"></line>
                <line x1="240" y1="25" x2="240" y2="0" id="Path-6-Copy-5" stroke="#2E2520" stroke-width="5" stroke-linecap="round"></line>
                <line x1="65" y1="25" x2="65" y2="0" id="Path-6-Copy" stroke="#2E2520" stroke-width="5" stroke-linecap="round"></line>
                <line x1="205" y1="25" x2="205" y2="0" id="Path-6-Copy-6" stroke="#2E2520" stroke-width="5" stroke-linecap="round"></line>
                <line x1="345" y1="25" x2="345" y2="0" id="Path-6-Copy-10" stroke="#2E2520" stroke-width="5" stroke-linecap="round"></line>
                <line x1="135" y1="25" x2="135" y2="0" id="Path-6-Copy-3" stroke="#2E2520" stroke-width="5" stroke-linecap="round"></line>
                <line x1="275" y1="25" x2="275" y2="0" id="Path-6-Copy-7" stroke="#2E2520" stroke-width="5" stroke-linecap="round"></line>
            </g>
        </g>
    </g>
</svg>