<?xml version="1.0" encoding="UTF-8"?>
<svg width="427px" height="427px" viewBox="0 0 427 427" version="1.1" xmlns="http://www.w3.org/2000/svg" xmlns:xlink="http://www.w3.org/1999/xlink">
    <title>stand by to use</title>
    <defs>
        <linearGradient x1="90.9036119%" y1="18.8086939%" x2="5.31376276%" y2="86.3746341%" id="linearGradient-1">
            <stop stop-color="#30E2F7" offset="0%"></stop>
            <stop stop-color="#F2EFF3" offset="54.5608108%"></stop>
            <stop stop-color="#04CAE1" offset="100%"></stop>
        </linearGradient>
        <path d="M32.3922823,1.86162197e-12 C43.208195,1.86162197e-12 51.9977814,8.72882426 52.1816269,19.5667967 L52.1845645,19.9133976 L52.2,19.9133976 L52.2,40.5 L45.9662575,40.5 L45.9662575,19.9133976 L46.0348211,19.9135663 C45.7989017,12.540667 39.8830732,6.6377992 32.6197798,6.6377992 C25.3564863,6.6377992 19.4406578,12.540667 19.2047384,19.9135663 L19.1974274,19.9133976 L19.197,32.414 L17.5752808,32.4148105 L17.5752808,35.3875061 L19.197,36.745 L19.1974274,40.5 L12.6,40.5 L12.6,19.9133976 C12.6,8.91553179 21.4613066,1.86162197e-12 32.3922823,1.86162197e-12 Z" id="path-2"></path>
        <filter x="-13.9%" y="-13.6%" width="148.0%" height="146.9%" filterUnits="objectBoundingBox" id="filter-3">
            <feOffset dx="4" dy="4" in="SourceAlpha" result="shadowOffsetOuter1"></feOffset>
            <feGaussianBlur stdDeviation="2.5" in="shadowOffsetOuter1" result="shadowBlurOuter1"></feGaussianBlur>
            <feColorMatrix values="0 0 0 0 0   0 0 0 0 0   0 0 0 0 0  0 0 0 0.5 0" type="matrix" in="shadowBlurOuter1"></feColorMatrix>
        </filter>
        <linearGradient x1="92.7839949%" y1="30.5959262%" x2="3.25948842%" y2="72.6286159%" id="linearGradient-4">
            <stop stop-color="#30E2F7" offset="0%"></stop>
            <stop stop-color="#F2EFF3" offset="54.5608108%"></stop>
            <stop stop-color="#04CAE1" offset="100%"></stop>
        </linearGradient>
        <path d="M62.9016892,41.2644588 C63.2125915,43.1374728 63.5203407,45.2225836 63.8275061,47.5191979 L63.9,48.0652296 L63.8957196,48.5949831 C63.6135759,66.0429596 49.4190428,80.1 31.95,80.1 C14.4809572,80.1 0.286424144,66.0429596 0.00428038717,48.5949831 L0,48.0652296 C0.333520025,45.5346714 0.667728777,43.2536168 1.00262625,41.2220656 C5.83460018,41.1510617 8.4818142,43.1965028 8.9446397,47.3579371 C9.68603265,54.5543073 10.502586,70.7371263 31.8140426,71.44022 C46.0216802,71.9089491 53.9249255,64.1172856 55.5237784,48.0652296 C55.8492191,42.8141491 58.3085227,40.5472255 62.9016892,41.2644588 Z M22.5589723,29.7 C24.5758361,32.8133343 27.7062658,34.3863721 31.9502614,34.4191134 C36.0656221,34.3871241 39.1335971,32.9070105 41.1546237,29.9787655 L41.3410277,29.7 L59.8806312,29.7 C60.8314584,31.221136 61.7768677,34.704996 62.7168592,40.1515799 L62.9016892,40.1615668 C57.5581013,39.8359442 54.7631844,42.4704984 54.5169386,48.0652296 C54.1475698,56.4573262 48.1289362,71.2389952 32.0859574,70.3405094 C16.0429787,69.4420236 11.047997,60.5648035 9.99459232,47.3579371 C9.14815695,42.2816974 6.20240951,39.930635 1.15734999,40.3047499 C2.1054159,34.7704554 3.05963239,31.235389 4.01936875,29.7 L22.5589723,29.7 Z M32.4938298,46.4363429 C30.1661258,46.4363429 28.2791489,48.3203095 28.2791489,50.6443001 C28.2791489,52.2646701 29.1964804,53.6711277 30.5409325,54.3742442 L30.7268683,54.4657182 L30.726383,59.4763226 C30.726383,60.3213183 31.3733315,61.015211 32.19893,61.0897022 L32.346383,61.0963226 L32.6412766,61.0963226 C33.4862723,61.0963226 34.180165,60.4493741 34.2546562,59.6237756 L34.2612766,59.4763226 L34.2617274,54.4652858 C35.7063231,53.7979149 36.7085106,52.3379575 36.7085106,50.6443001 C36.7085106,48.3203095 34.8215337,46.4363429 32.4938298,46.4363429 Z" id="path-5"></path>
        <filter x="-8.6%" y="-10.9%" width="129.7%" height="137.7%" filterUnits="objectBoundingBox" id="filter-6">
            <feOffset dx="4" dy="4" in="SourceAlpha" result="shadowOffsetOuter1"></feOffset>
            <feGaussianBlur stdDeviation="2.5" in="shadowOffsetOuter1" result="shadowBlurOuter1"></feGaussianBlur>
            <feColorMatrix values="0 0 0 0 0   0 0 0 0 0   0 0 0 0 0  0 0 0 0.5 0" type="matrix" in="shadowBlurOuter1"></feColorMatrix>
        </filter>
    </defs>
    <g id="Page-1" stroke="none" stroke-width="1" fill="none" fill-rule="evenodd">
        <g id="16GRID-app-detail-개발" transform="translate(-504.000000, -2036.000000)">
            <g id="stand-by-to-use" transform="translate(504.000000, 2036.000000)">
                <circle id="cir_5" fill="#23B0F0" opacity="0.1" cx="213.111111" cy="213.7375" r="213"></circle>
                <circle id="cir_4" fill="#23B0F0" opacity="0.2" cx="213.111111" cy="213.7375" r="181"></circle>
                <circle id="cir_3" fill="#23B0F0" opacity="0.5" cx="213.111111" cy="213.7375" r="157"></circle>
                <circle id="cir_2" fill="#23B0F0" cx="213.111111" cy="213.7375" r="141"></circle>
                <circle id="cir_1" fill="#56EAFF" cx="212.111111" cy="213.7375" r="133"></circle>
                <g id="ic/ic_lock" transform="translate(181.111111, 137.737500)">
                    <g id="Combined-Shape">
                        <use fill="black" fill-opacity="1" filter="url(#filter-3)" xlink:href="#path-2"></use>
                        <use fill="url(#linearGradient-1)" fill-rule="evenodd" xlink:href="#path-2"></use>
                    </g>
                    <g id="Combined-Shape">
                        <use fill="black" fill-opacity="1" filter="url(#filter-6)" xlink:href="#path-5"></use>
                        <use fill="url(#linearGradient-4)" fill-rule="evenodd" xlink:href="#path-5"></use>
                    </g>
                </g>
                <path d="M179.228311,248.434108 L179.228311,235.322108 L183.606311,235.322108 L183.606311,233.650108 L172.936311,233.650108 L172.936311,235.322108 L177.314311,235.322108 L177.314311,248.434108 L179.228311,248.434108 Z M189.920311,248.632108 C192.912311,248.632108 194.936311,246.542108 194.936311,243.110108 L194.936311,242.758108 C194.936311,239.326108 193.066311,237.280108 189.942311,237.280108 C186.950311,237.280108 184.948311,239.392108 184.948311,242.824108 L184.948311,243.198108 C184.948311,246.608108 186.774311,248.632108 189.920311,248.632108 Z M189.964311,247.092108 C188.270311,247.092108 186.884311,246.190108 186.884311,243.242108 L186.884311,242.626108 C186.884311,240.184108 187.984311,238.820108 189.898311,238.820108 C191.592311,238.820108 192.978311,239.766108 192.978311,242.714108 L192.978311,243.308108 C192.978311,245.750108 191.878311,247.092108 189.964311,247.092108 Z M200.502311,248.632108 C201.822311,248.632108 202.944311,248.126108 203.846311,247.488108 L203.956311,247.488108 L204.176311,248.434108 L205.760311,248.434108 L205.760311,237.500108 L203.868311,237.500108 L203.868311,246.234108 C203.098311,246.630108 202.174311,247.026108 201.052311,247.026108 C199.468311,247.026108 199.006311,246.454108 199.006311,245.112108 L199.006311,237.500108 L197.158311,237.500108 L197.158311,245.420108 C197.158311,247.532108 198.324311,248.632108 200.502311,248.632108 Z M213.152311,248.632108 C214.670311,248.632108 215.660311,248.236108 216.386311,247.774108 L216.386311,246.278108 C215.814311,246.542108 214.824311,247.048108 213.350311,247.048108 C211.150311,247.048108 210.006311,245.882108 210.006311,243.154108 L210.006311,242.582108 C210.006311,240.184108 211.194311,238.886108 213.130311,238.886108 C214.582311,238.886108 215.264311,239.150108 216.232311,239.568108 L216.232311,238.006108 C215.506311,237.566108 214.670311,237.280108 213.262311,237.280108 C210.380311,237.280108 208.070311,238.996108 208.070311,242.846108 L208.070311,243.220108 C208.070311,246.872108 210.050311,248.632108 213.152311,248.632108 Z M220.346311,248.434108 L220.346311,239.634108 C221.138311,239.260108 222.260311,238.908108 223.228311,238.908108 C224.944311,238.908108 225.362311,239.436108 225.362311,240.690108 L225.362311,248.434108 L227.210311,248.434108 L227.210311,240.294108 C227.210311,238.182108 226.198311,237.280108 224.042311,237.280108 C222.700311,237.280108 221.336311,237.786108 220.456311,238.402108 L220.346311,238.402108 L220.346311,232.682108 L218.476311,232.682108 L218.476311,248.434108 L220.346311,248.434108 Z M239.442311,248.544108 C240.432311,248.544108 240.872311,248.324108 241.334311,248.126108 L241.334311,246.850108 C240.894311,246.960108 240.388311,247.026108 239.948311,247.026108 C238.716311,247.026108 238.364311,246.630108 238.364311,245.596108 L238.364311,239.062108 L241.114311,239.062108 L241.114311,237.500108 L238.364311,237.500108 L238.364311,234.904108 L236.494311,234.904108 L236.494311,237.500108 L234.932311,237.500108 L234.932311,239.062108 L236.494311,239.062108 L236.494311,245.860108 C236.494311,247.796108 237.704311,248.544108 239.442311,248.544108 Z M247.780311,248.632108 C250.772311,248.632108 252.796311,246.542108 252.796311,243.110108 L252.796311,242.758108 C252.796311,239.326108 250.926311,237.280108 247.802311,237.280108 C244.810311,237.280108 242.808311,239.392108 242.808311,242.824108 L242.808311,243.198108 C242.808311,246.608108 244.634311,248.632108 247.780311,248.632108 Z M247.824311,247.092108 C246.130311,247.092108 244.744311,246.190108 244.744311,243.242108 L244.744311,242.626108 C244.744311,240.184108 245.844311,238.820108 247.758311,238.820108 C249.452311,238.820108 250.838311,239.766108 250.838311,242.714108 L250.838311,243.308108 C250.838311,245.750108 249.738311,247.092108 247.824311,247.092108 Z M195.739311,272.676108 C199.853311,272.676108 202.273311,269.838108 202.273311,265.262108 L202.273311,264.844108 C202.273311,260.048108 199.853311,257.408108 195.827311,257.408108 C191.735311,257.408108 189.271311,260.246108 189.271311,264.822108 L189.271311,265.240108 C189.271311,270.058108 191.735311,272.676108 195.739311,272.676108 Z M195.805311,271.092108 C192.549311,271.092108 191.361311,268.650108 191.361311,265.218108 L191.361311,264.492108 C191.361311,261.368108 192.747311,259.014108 195.739311,259.014108 C199.039311,259.014108 200.205311,261.434108 200.205311,264.866108 L200.205311,265.570108 C200.205311,268.694108 198.819311,271.092108 195.805311,271.092108 Z M206.629311,275.712108 L206.629311,271.884108 C207.201311,272.236108 208.125311,272.588108 209.335311,272.588108 C212.371311,272.588108 214.263311,270.872108 214.263311,266.868108 L214.263311,266.582108 C214.263311,262.534108 212.151311,261.280108 209.797311,261.280108 C208.455311,261.280108 207.289311,261.764108 206.651311,262.380108 L206.541311,262.380108 L206.541311,261.500108 L204.759311,261.500108 L204.759311,275.712108 L206.629311,275.712108 Z M209.181311,271.070108 C208.081311,271.070108 207.091311,270.718108 206.629311,270.322108 L206.629311,263.634108 C207.091311,263.282108 208.081311,262.886108 209.291311,262.886108 C211.249311,262.886108 212.349311,263.700108 212.349311,266.648108 L212.349311,267.132108 C212.349311,269.992108 211.161311,271.070108 209.181311,271.070108 Z M221.171311,272.632108 C222.975311,272.632108 224.229311,272.060108 224.867311,271.576108 L224.867311,270.190108 C223.877311,270.718108 222.931311,271.026108 221.479311,271.026108 C219.301311,271.026108 218.025311,270.102108 217.893311,267.506108 L225.197311,267.506108 L225.197311,266.450108 C225.197311,263.018108 223.767311,261.280108 220.775311,261.280108 C218.223311,261.280108 215.957311,262.996108 215.957311,266.802108 L215.957311,267.132108 C215.957311,270.498108 217.717311,272.632108 221.171311,272.632108 Z M223.217311,265.988108 L217.893311,265.988108 C218.069311,263.480108 219.455311,262.798108 220.687311,262.798108 C222.337311,262.798108 223.217311,263.700108 223.217311,265.988108 Z M229.377311,272.434108 L229.377311,263.634108 C230.169311,263.260108 231.291311,262.908108 232.259311,262.908108 C233.975311,262.908108 234.393311,263.436108 234.393311,264.690108 L234.393311,272.434108 L236.241311,272.434108 L236.241311,264.294108 C236.241311,262.182108 235.229311,261.280108 233.073311,261.280108 C231.731311,261.280108 230.323311,261.786108 229.399311,262.446108 L229.289311,262.446108 L229.289311,261.500108 L227.507311,261.500108 L227.507311,272.434108 L229.377311,272.434108 Z" id="TouchtoOpen" fill="#FFFFFF" fill-rule="nonzero"></path>
            </g>
        </g>
    </g>
</svg>