<?xml version="1.0" encoding="UTF-8"?>
<svg width="560px" height="869px" viewBox="0 0 560 869" version="1.1" xmlns="http://www.w3.org/2000/svg" xmlns:xlink="http://www.w3.org/1999/xlink">
    <title>📱 iPhone/white Copy 3</title>
    <defs>
        <linearGradient x1="37.1193141%" y1="0%" x2="62.8806859%" y2="100%" id="linearGradient-1">
            <stop stop-color="#FFFFFF" offset="0%"></stop>
            <stop stop-color="#FEFEFE" offset="100%"></stop>
        </linearGradient>
        <path d="M56.4632092,0.308118736 C56.1605075,0.308118736 55.86116,0.308118736 55.5650978,0.308118736 L54.6866975,0.314377074 L53.8275941,0.322280791 L52.9873731,0.333439357 L52.1656203,0.347906635 C52.0301775,0.350596566 51.8954869,0.353426605 51.7615399,0.356397873 L50.9667123,0.375929211 C50.8357053,0.379469885 50.7054245,0.383154033 50.5758615,0.386982776 L49.807027,0.411699365 L49.0550031,0.439940117 C48.9310437,0.444943581 48.8077674,0.45009613 48.6851657,0.455398885 L47.957581,0.489026873 C47.837643,0.494934943 47.7183622,0.500995464 47.5997302,0.507209557 L46.8956524,0.546345972 C46.6635084,0.560011721 46.4338899,0.574300738 46.206728,0.589222001 L45.5325425,0.635891505 C45.4213835,0.643988871 45.3108213,0.652246543 45.2008474,0.660665643 L44.5479935,0.713126354 C38.4116276,1.23007645 34.130321,2.27879753 30.1054413,4.06710201 L29.6826478,4.25808518 C29.2606633,4.45181791 28.8408985,4.65382626 28.421489,4.86435262 L28.0021288,5.07772729 L27.5825911,5.29683449 C21.3962986,8.56843916 16.5350894,13.3754879 13.226624,19.4928567 L13.115108,19.7003361 C12.9688695,19.9741347 12.8264365,20.2476848 12.6877388,20.5215164 L12.4824847,20.9325412 C12.3475045,21.2067868 12.2162242,21.481579 12.0885733,21.7574478 L11.8998104,22.1721247 C10.3803328,25.5663297 9.40021398,29.1618699 8.82991305,33.9331785 L8.76211971,34.5233631 C8.70731744,35.0201909 8.65672728,35.5296754 8.61021159,36.0528518 L8.5563397,36.6873019 L8.50632644,37.3352938 C8.49830952,37.444443 8.49045117,37.554173 8.48275029,37.6644921 L8.4384259,38.3335422 L8.39782801,39.017128 L8.36090379,39.715647 C8.34920212,39.9510198 8.33810391,40.1889476 8.32760037,40.4294969 L8.29786491,41.1590752 C8.29320339,41.2820044 8.28868833,41.4056055 8.28431864,41.5298868 L8.25983601,42.2838031 L8.23878921,43.0544418 C8.23556479,43.1842972 8.23248133,43.3148659 8.22953773,43.4461562 L8.21354556,44.2426238 L8.20085709,45.0568076 L8.19141947,45.8891051 C8.1901145,46.029353 8.18894278,46.1703721 8.18790321,46.3121708 L8.18324276,47.1723845 L8.18170102,48.0517058 L8.18167848,83.9241475 L3.68571496,83.9245948 C1.69088862,83.9245948 0.0737154562,85.5237505 0.0737154562,87.496409 L0.0737154562,107.256073 L0.0737154562,107.35605 C0.128643392,109.282481 1.72470021,110.827888 3.68577281,110.827888 L8.18167848,110.827562 L8.18167848,130.358096 L3.68572043,130.358514 C1.69088862,130.358514 0.0737154562,131.95767 0.0737154562,133.930329 L0.0737154562,173.43355 L0.0737154562,173.533526 C0.128643392,175.459957 1.72470021,177.005364 3.68577281,177.005364 L8.18167848,177.004896 L8.18167848,187.029666 L3.68576775,187.029834 C1.69088862,187.029834 0.0737154562,188.628989 0.0737154562,190.601648 L0.0737154562,230.104869 L0.0737154562,230.204846 C0.128643392,232.131277 1.72470021,233.676683 3.68577281,233.676683 L8.18167848,233.676466 L8.18209316,574.414759 L8.18525078,575.293068 L8.19161821,576.152089 C8.19294996,576.293675 8.19441773,576.434474 8.19602263,576.574496 L8.20730692,577.405355 L8.2219372,578.217953 C8.22465744,578.351887 8.22751936,578.485076 8.23052411,578.617531 L8.2502755,579.403503 C8.25385607,579.533051 8.25758173,579.66188 8.26145361,579.789999 L8.28644868,580.550268 C8.29537132,580.800898 8.30488794,581.048757 8.31500761,581.293913 L8.34718489,582.021345 C8.35285232,582.141255 8.35867279,582.260507 8.36464742,582.379109 L8.40235434,583.082988 C8.40895018,583.199024 8.41570247,583.314427 8.42261233,583.429206 L8.46597144,584.110455 L8.51316676,584.777129 L8.56425277,585.429638 L8.61928394,586.068392 C8.62878759,586.173727 8.63845789,586.278507 8.64829597,586.382739 L8.709347,587.001628 C9.30863186,592.819953 10.4604267,596.914821 12.3748854,600.867054 L12.5792333,601.28262 C12.6137638,601.351816 12.6485313,601.420985 12.6835369,601.490136 L12.8964376,601.90489 C12.9324003,601.974002 12.9686035,602.043112 13.0050482,602.11223 L13.226624,602.527094 C16.5350894,608.644463 21.3962986,613.451511 27.5825911,616.723116 L27.792408,616.83339 L28.2118052,617.049624 C28.3515862,617.120748 28.4913721,617.190921 28.631232,617.260152 L29.0511028,617.465029 C29.1211413,617.498707 29.1912155,617.532152 29.2613342,617.565365 L29.6826478,617.761865 C33.1991855,619.376305 36.8698741,620.416048 41.773745,621.021363 L42.3681979,621.091924 C42.668453,621.126171 42.9733029,621.158875 43.2829808,621.190064 L43.9088428,621.250435 L44.5479935,621.306824 C44.6556491,621.315893 44.7638756,621.324799 44.8726817,621.333542 L45.5325425,621.384059 C45.6437015,621.392156 45.7554574,621.400093 45.8678188,621.407871 L46.5493219,621.452637 C46.7789576,621.466929 47.0110844,621.480592 47.2457712,621.493637 L47.957581,621.530924 C48.1974571,621.54274 48.4399623,621.553946 48.6851657,621.564552 L49.4289396,621.594575 L50.189317,621.621047 L50.9667123,621.644021 C51.0977194,621.647562 51.2294528,621.650959 51.3619212,621.654214 L52.1656203,621.672044 L52.9873731,621.686511 C53.1258594,621.688645 53.2651153,621.690641 53.4051492,621.692501 L54.2547596,621.702025 L55.1234597,621.711444 L56.0116637,621.711444 L267.641513,621.711444 L268.529718,621.711444 L269.398418,621.702025 L270.248028,621.692501 L271.078963,621.679694 L271.891637,621.663553 C272.159531,621.65761 272.424451,621.651103 272.686465,621.644021 L273.46386,621.621047 L274.224238,621.594575 L274.968011,621.564552 C275.090613,621.559249 275.21254,621.553796 275.333802,621.548192 L276.053447,621.512741 C276.290711,621.500313 276.525381,621.48727 276.757525,621.473605 L277.446449,621.430729 C277.56003,621.423268 277.672997,621.415649 277.785358,621.407871 L278.45233,621.359285 C278.672278,621.342447 278.889873,621.324963 279.105184,621.306824 L279.744334,621.250435 L280.370196,621.190064 C280.679874,621.158875 280.984724,621.126171 281.284979,621.091924 L281.879432,621.021363 C286.096761,620.500792 289.402029,619.658918 292.481559,618.406523 L292.909865,618.229097 C293.47917,617.988952 294.041767,617.734455 294.602074,617.465029 L295.021945,617.260152 C295.161805,617.190921 295.301591,617.120748 295.441372,617.049624 L295.860769,616.83339 C295.930689,616.796872 296.000625,616.760115 296.070586,616.723116 C302.256879,613.451511 307.118088,608.644463 310.426553,602.527094 L310.648129,602.11223 C310.684574,602.043112 310.720777,601.974002 310.75674,601.90489 L310.96964,601.490136 C311.004646,601.420985 311.039413,601.351816 311.073944,601.28262 L311.278292,600.867054 C313.226337,596.845484 314.384724,592.676229 314.974862,586.6938 L315.033893,586.068392 C315.043397,585.963056 315.052734,585.857165 315.061905,585.750709 L315.114957,585.105129 C315.123471,584.99638 315.131822,584.88705 315.14001,584.777129 L315.187206,584.110455 L315.230565,583.429206 C315.237475,583.314427 315.244227,583.199024 315.250823,583.082988 L315.28853,582.379109 L315.322537,581.65963 C315.333262,581.417159 315.343379,581.172019 315.352898,580.924143 L315.379668,580.172237 C315.383834,580.045529 315.387852,579.918119 315.391724,579.789999 L315.413209,579.012697 C315.416501,578.881705 315.419648,578.749986 315.422653,578.617531 L315.438977,577.813911 C315.441415,577.678481 315.443712,577.542299 315.44587,577.405355 L315.457155,576.574495 L315.465147,575.724964 C315.466208,575.581796 315.467134,575.437834 315.467926,575.293068 L315.471084,574.414759 L315.471084,47.6051912 L315.467926,46.7268829 L315.461559,45.8678614 L315.451927,45.0277168 C315.450047,44.889243 315.448028,44.7515387 315.44587,44.6145953 L315.43124,43.8019979 C315.42852,43.6680641 315.425658,43.5348741 315.422653,43.4024195 L315.402902,42.6164474 C315.399321,42.4868999 315.395595,42.3580707 315.391724,42.2299512 L315.366729,41.4696824 C315.357806,41.2190529 315.348289,40.9711939 315.33817,40.7260371 L315.305992,39.9986055 C315.300325,39.8786953 315.294504,39.7594436 315.28853,39.6408418 L315.250823,38.9369625 C315.244227,38.8209265 315.237475,38.7055233 315.230565,38.5907445 L315.187206,37.9094956 L315.14001,37.2428215 C314.591374,29.8781446 313.315018,25.1629208 310.96964,20.5298144 L310.75674,20.1150606 C310.720777,20.0459488 310.684574,19.9768382 310.648129,19.9077203 L310.426553,19.4928567 C307.118088,13.3754879 302.256879,8.56843916 296.070586,5.29683449 L295.651048,5.07772729 L295.231688,4.86435262 C295.021983,4.75908944 294.81219,4.65595576 294.602074,4.55492129 L294.181345,4.3556423 C294.111129,4.32289263 294.04086,4.29037396 293.970529,4.25808518 L293.547736,4.06710201 C291.994274,3.37687923 290.402612,2.79683138 288.680834,2.31500993 L288.207963,2.18603047 C285.588671,1.48993918 282.657817,1.01241325 279.105184,0.713126354 L278.45233,0.660665643 C278.342356,0.652246543 278.231794,0.643988871 278.120635,0.635891505 L277.446449,0.589222001 C277.332868,0.581761369 277.218673,0.574458799 277.103855,0.567313168 L276.407406,0.52631368 C276.172719,0.513268956 275.935472,0.500843013 275.695596,0.489026873 L274.968011,0.455398885 L274.224238,0.425375854 C274.098903,0.420669436 273.972877,0.416110981 273.84615,0.411699365 L273.077316,0.386982776 L272.291256,0.365736487 C272.158788,0.362481638 272.025584,0.359369141 271.891637,0.356397873 L271.078963,0.340256041 C270.942007,0.337845202 270.80429,0.335573348 270.665804,0.333439357 L269.825583,0.322280791 L268.96648,0.314377074 L268.088079,0.308118736 C267.940048,0.308118736 267.791196,0.308118736 267.641513,0.308118736 L56.4632092,0.308118736 Z" id="path-2"></path>
        <filter x="-56.4%" y="-20.6%" width="212.7%" height="157.2%" filterUnits="objectBoundingBox" id="filter-3">
            <feMorphology radius="2.8" operator="dilate" in="SourceAlpha" result="shadowSpreadOuter1"></feMorphology>
            <feOffset dx="0" dy="50" in="shadowSpreadOuter1" result="shadowOffsetOuter1"></feOffset>
            <feGaussianBlur stdDeviation="50" in="shadowOffsetOuter1" result="shadowBlurOuter1"></feGaussianBlur>
            <feComposite in="shadowBlurOuter1" in2="SourceAlpha" operator="out" result="shadowBlurOuter1"></feComposite>
            <feColorMatrix values="0 0 0 0 0   0 0 0 0 0   0 0 0 0 0  0 0 0 0.1 0" type="matrix" in="shadowBlurOuter1"></feColorMatrix>
        </filter>
        <linearGradient x1="37.2034106%" y1="0%" x2="62.7965894%" y2="100%" id="linearGradient-4">
            <stop stop-color="#FFFFFF" offset="0%"></stop>
            <stop stop-color="#FEFEFE" offset="100%"></stop>
        </linearGradient>
        <path d="M55.9734499,1.32863707 L267.189968,1.32863707 C267.847155,1.32863707 268.487587,1.32863707 269.111938,1.33674357 L270.036486,1.34686182 C270.188595,1.34888431 270.339721,1.35107472 270.489872,1.35343285 L271.379184,1.36959252 L272.245635,1.3897674 C272.388167,1.39346394 272.529767,1.39732735 272.670446,1.40135745 L273.503554,1.42753655 C273.640592,1.43223254 273.77673,1.4370948 273.911978,1.44212312 L274.712879,1.47428411 L275.49294,1.51042062 C275.621242,1.51677411 275.748696,1.52329284 275.875313,1.52997659 L276.625061,1.57205778 L277.355231,1.61808968 C284.560726,2.09812916 288.905317,3.16928726 292.661439,4.78691024 L293.035174,4.95049243 C293.097164,4.97805917 293.159012,5.00577729 293.220728,5.03364659 L293.589525,5.20267483 L293.955661,5.37532135 C294.077319,5.43347214 294.198618,5.49222433 294.319642,5.55157625 L294.681971,5.73142959 C294.74225,5.76170447 294.802481,5.79212887 294.862675,5.82270258 L295.223476,6.00793498 L295.583888,6.19674103 C301.590333,9.37323359 306.304226,14.0346073 309.516507,19.974132 L309.707441,20.330529 L309.89476,20.6873099 L310.078456,21.0449741 C310.139082,21.1643981 310.199103,21.2840527 310.258517,21.4040208 L310.434935,21.7649496 C310.464033,21.825289 310.49298,21.8857276 310.521774,21.9462758 L310.692706,22.3109638 L310.85997,22.6787823 C310.887541,22.7403739 310.914959,22.8021169 310.942223,22.8640214 L311.103964,23.2374717 C311.823494,24.9274758 312.430814,26.7504854 312.921809,28.9112688 L313.029002,29.3970862 C313.572923,31.9367297 313.963098,34.9416368 314.193296,38.7217326 L314.235852,39.463127 C314.242611,39.5883338 314.249203,39.7143681 314.255628,39.8412401 L314.292172,40.6126102 L314.324695,41.4045882 C314.32978,41.5383297 314.334697,41.6729505 314.339446,41.8084613 L314.36592,42.6322875 C314.378147,43.0496231 314.388856,43.4751549 314.398043,43.9091636 L314.414385,44.788567 L314.426656,45.6910752 L314.434847,46.6171874 C314.43946,46.929881 314.43946,47.2465918 314.43946,47.5674031 L314.43946,573.968245 C314.43946,574.455644 314.43946,574.933723 314.434847,575.402763 L314.426656,576.328875 L314.414385,577.231384 L314.398043,578.110787 C314.388856,578.544796 314.378147,578.970327 314.36592,579.387663 L314.339446,580.211489 C314.334697,580.347 314.32978,580.481621 314.324695,580.615362 L314.292172,581.40734 L314.255628,582.17871 C314.249203,582.305582 314.242611,582.431617 314.235852,582.556823 L314.193296,583.298218 C313.963098,587.078314 313.572923,590.083221 313.029002,592.622864 L312.921809,593.108682 C312.430814,595.269465 311.823494,597.092475 311.103964,598.782479 L310.942223,599.155929 C310.805902,599.465452 310.665744,599.770934 310.521774,600.073675 L310.347182,600.435732 C310.288376,600.556034 310.228962,600.675982 310.168941,600.795657 L309.987062,601.15395 L309.801553,601.51111 L309.612425,601.867637 C309.580603,601.927033 309.54863,601.986423 309.516507,602.045819 C306.304226,607.985343 301.590333,612.646717 295.583888,615.823209 L295.223476,616.012016 L294.862675,616.197248 C294.802481,616.227822 294.74225,616.258246 294.681971,616.288521 L294.319642,616.468374 L293.955661,616.644629 C293.894832,616.673705 293.833913,616.70263 293.772894,616.731404 L293.40549,616.902243 L293.035174,617.069458 C292.663232,617.234859 292.286163,617.394809 291.901695,617.549265 L291.514676,617.701889 C291.060079,617.877808 290.59438,618.046229 290.11397,618.207081 L289.698503,618.343098 C289.558757,618.387818 289.417725,618.431918 289.275325,618.475397 L288.843932,618.603969 C285.649023,619.53314 281.750661,620.160829 276.252666,620.469428 L275.49294,620.50953 C275.236337,620.522237 274.976345,620.534283 274.712879,620.545666 L273.911978,620.577827 L273.089732,620.606003 L272.245635,620.630183 C272.103104,620.63388 271.95964,620.637409 271.815235,620.640772 L270.937417,620.65894 C270.492772,620.66702 270.039459,620.673593 269.577196,620.678652 L268.640649,620.691313 C268.482541,620.691313 268.323417,620.691313 268.163267,620.691313 L267.189968,620.691313 L56.4632092,620.691313 L55.4899106,620.691313 C55.3297605,620.691313 55.1706366,620.691313 55.0125282,620.691313 L54.0759816,620.678652 C53.6137178,620.673593 53.1604054,620.66702 52.7157601,620.65894 L51.8379418,620.640772 C51.6935367,620.637409 51.5500736,620.63388 51.407542,620.630183 L50.5634456,620.606003 L49.7411993,620.577827 L48.9402982,620.545666 C48.6768326,620.534283 48.4168403,620.522237 48.1602372,620.50953 L47.4005113,620.469428 C41.9025162,620.160829 38.0041545,619.53314 34.8092456,618.603969 L34.3778523,618.475397 C34.2354519,618.431918 34.0944206,618.387818 33.9546745,618.343098 L33.5392072,618.207081 C33.0587968,618.046229 32.5930977,617.877808 32.1385014,617.701889 L31.7514822,617.549265 C31.3670138,617.394809 30.989945,617.234859 30.6180035,617.069458 L30.2476868,616.902243 L29.8802833,616.731404 C29.8192641,616.70263 29.7583453,616.673705 29.6975162,616.644629 L29.3335356,616.468374 C29.2125119,616.409022 29.0917634,616.349071 28.9712057,616.288521 L28.6100216,616.105079 L28.2494781,615.918059 C28.1894129,615.886591 28.1293533,615.854974 28.0692888,615.823209 C22.0628443,612.646717 17.3489514,607.985343 14.1366697,602.045819 L13.9457364,601.689422 L13.758417,601.332641 L13.5747215,600.974976 C13.5444082,600.915264 13.5142462,600.855495 13.4842359,600.795657 L13.3059952,600.435732 C13.2765922,600.37558 13.2473413,600.31534 13.2182426,600.255001 L13.0454791,599.891691 C12.874546,599.527024 12.7091091,599.158035 12.5492134,598.782479 L12.3911665,598.40465 L12.2368238,598.021942 C12.0080929,597.443973 11.7918976,596.847855 11.5883903,596.226004 L11.4546001,595.807541 C11.0149098,594.399402 10.6380434,592.855863 10.3256736,591.093698 L10.2338992,590.558406 C9.87455468,588.390339 9.60832593,585.895466 9.43810302,582.929972 L9.39754909,582.17871 C9.38469893,581.924966 9.37251716,581.667871 9.36100543,581.40734 L9.32848209,580.615362 C9.32339712,580.481621 9.31848007,580.347 9.31373117,580.211489 L9.28725712,579.387663 C9.27910611,579.109439 9.27162933,578.827573 9.26482846,578.54198 L9.24645524,577.673942 L9.23214749,576.783049 C9.23010221,576.632634 9.22822674,576.481247 9.2265213,576.328875 L9.21833057,575.402763 C9.21628153,575.09007 9.21491424,574.773359 9.21423039,574.452547 L9.21369487,232.656088 L3.68577281,232.656165 C2.26085553,232.656165 1.10573184,231.513911 1.10573184,230.104869 L1.10573184,190.601648 C1.10573184,189.192606 2.26085553,188.050352 3.68577281,188.050352 L9.21369487,188.050325 L9.21369487,175.984518 L3.68577281,175.984845 C2.26085553,175.984845 1.10573184,174.842591 1.10573184,173.43355 L1.10573184,133.930329 C1.10573184,132.521287 2.26085553,131.379033 3.68577281,131.379033 L9.21369487,131.378755 L9.21369487,109.807185 L3.68577281,109.807369 C2.26085553,109.807369 1.10573184,108.665115 1.10573184,107.256073 L1.10573184,87.496409 C1.10573184,86.0873672 2.26085553,84.9451131 3.68577281,84.9451131 L9.21369487,84.9448067 L9.2137174,48.0517058 C9.2137174,47.564307 9.21525701,47.0862278 9.21833057,46.6171874 L9.2265213,45.6910752 L9.23879255,44.788567 C9.24117725,44.6400882 9.24373155,44.4925722 9.24645524,44.3460084 L9.26482846,43.4779701 C9.27162933,43.1923777 9.27910611,42.9105113 9.28725712,42.6322875 L9.31373117,41.8084613 C9.31848007,41.6729505 9.32339712,41.5383297 9.32848209,41.4045882 L9.36100543,40.6126102 C9.37251716,40.3520799 9.38469893,40.0949843 9.39754909,39.8412401 L9.43810302,39.0899787 C9.60832593,36.1244841 9.87455468,33.6296111 10.2338992,31.4615442 L10.3256736,30.9262527 C10.6380434,29.1640878 11.0149098,27.6205489 11.4546001,26.2124096 L11.5883903,25.7939466 C11.8371214,25.0339062 12.1048062,24.3123065 12.3911665,23.6153008 L12.5492134,23.2374717 C12.5758627,23.174879 12.6026659,23.1124687 12.6296228,23.0502304 L12.7932072,22.6787823 L12.9604708,22.3109638 L13.1314035,21.9462758 C13.1889914,21.8251794 13.2471892,21.7045214 13.3059952,21.5842188 L13.4842359,21.2242934 L13.6661156,20.8660004 C13.6967316,20.8063931 13.7274988,20.7468331 13.758417,20.6873099 L13.9457364,20.330529 L14.1366697,19.974132 C17.3489514,14.0346073 22.0628443,9.37323359 28.0692888,6.19674103 L28.4297013,6.00793498 L28.790502,5.82270258 L29.1521959,5.64105374 C29.2729655,5.58110248 29.3939682,5.52175015 29.515288,5.46299838 L29.8802833,5.28854642 C29.9413025,5.25977193 30.0024221,5.231148 30.0636525,5.20267483 L30.4324494,5.03364659 C30.4941654,5.00577729 30.5560132,4.97805917 30.6180035,4.95049243 L30.9917383,4.78691024 C34.7478602,3.16928726 39.0924516,2.09812916 46.2979463,1.61808968 L47.0281163,1.57205778 L47.7778639,1.52997659 L48.5476942,1.49185605 C48.6777009,1.48583323 48.8085654,1.47997584 48.9402982,1.47428411 L49.7411993,1.44212312 C49.8764476,1.4370948 50.0125852,1.43223254 50.1496228,1.42753655 L50.982731,1.40135745 L51.8379418,1.37917868 C51.9823468,1.37581613 52.1276939,1.37262067 52.2739934,1.36959252 L53.163305,1.35343285 C53.3134566,1.35107472 53.4645818,1.34888431 53.6166911,1.34686182 L54.5412396,1.33674357 C55.0095024,1.32863707 55.4868111,1.32863707 55.9734499,1.32863707 Z" id="path-5"></path>
        <filter x="-69.8%" y="-23.7%" width="239.7%" height="170.7%" filterUnits="objectBoundingBox" id="filter-6">
            <feMorphology radius="2.8" operator="dilate" in="SourceAlpha" result="shadowSpreadOuter1"></feMorphology>
            <feOffset dx="0" dy="72" in="shadowSpreadOuter1" result="shadowOffsetOuter1"></feOffset>
            <feGaussianBlur stdDeviation="60" in="shadowOffsetOuter1" result="shadowBlurOuter1"></feGaussianBlur>
            <feComposite in="shadowBlurOuter1" in2="SourceAlpha" operator="out" result="shadowBlurOuter1"></feComposite>
            <feColorMatrix values="0 0 0 0 0   0 0 0 0 0   0 0 0 0 0  0 0 0 0.05 0" type="matrix" in="shadowBlurOuter1"></feColorMatrix>
        </filter>
        <linearGradient x1="37.8200478%" y1="0%" x2="62.1799522%" y2="100%" id="linearGradient-7">
            <stop stop-color="#FFFFFF" offset="0%"></stop>
            <stop stop-color="#FEFEFE" offset="100%"></stop>
        </linearGradient>
        <linearGradient x1="0%" y1="49.9998499%" x2="100%" y2="50.0001501%" id="linearGradient-8">
            <stop stop-color="#FFFFFF" offset="0%"></stop>
            <stop stop-color="#FEFEFE" offset="100%"></stop>
        </linearGradient>
        <linearGradient x1="38.1116648%" y1="0%" x2="61.8883352%" y2="100%" id="linearGradient-9">
            <stop stop-color="#FFFFFF" offset="0%"></stop>
            <stop stop-color="#FEFEFE" offset="100%"></stop>
        </linearGradient>
        <linearGradient x1="49.999975%" y1="0%" x2="50.000025%" y2="100%" id="linearGradient-10">
            <stop stop-color="#FFFFFF" offset="0%"></stop>
            <stop stop-color="#FEFEFE" offset="100%"></stop>
        </linearGradient>
        <linearGradient x1="0%" y1="47.6767449%" x2="100%" y2="52.3232551%" id="linearGradient-11">
            <stop stop-color="#FFFFFF" offset="0%"></stop>
            <stop stop-color="#FEFEFE" offset="100%"></stop>
        </linearGradient>
        <linearGradient x1="0%" y1="49.9998499%" x2="100%" y2="50.0001501%" id="linearGradient-12">
            <stop stop-color="#FFFFFF" offset="0%"></stop>
            <stop stop-color="#FEFEFE" offset="100%"></stop>
        </linearGradient>
        <path d="M245.311451,0.00689211432 L31.5366277,0.00689211432 C14.132281,0.00689211432 0.023270202,13.9587095 0.023270202,31.1691484 L0.023270202,561.10974 C0.023270202,578.320179 14.132281,592.271996 31.5366277,592.271996 L245.311451,592.271996 C262.715798,592.271996 276.824808,578.320179 276.824808,561.10974 L276.824808,31.1691484 C276.824808,13.9587095 262.715798,0.00689211432 245.311451,0.00689211432 Z" id="path-13"></path>
        <rect id="path-15" x="0" y="0" width="279" height="599"></rect>
        <filter x="-17.1%" y="-17.1%" width="134.3%" height="134.3%" filterUnits="objectBoundingBox" id="filter-17">
            <feOffset dx="0" dy="2" in="SourceAlpha" result="shadowOffsetOuter1"></feOffset>
            <feGaussianBlur stdDeviation="2" in="shadowOffsetOuter1" result="shadowBlurOuter1"></feGaussianBlur>
            <feColorMatrix values="0 0 0 0 0   0 0 0 0 0   0 0 0 0 0  0 0 0 0.5 0" type="matrix" in="shadowBlurOuter1" result="shadowMatrixOuter1"></feColorMatrix>
            <feMerge>
                <feMergeNode in="shadowMatrixOuter1"></feMergeNode>
                <feMergeNode in="SourceGraphic"></feMergeNode>
            </feMerge>
        </filter>
        <linearGradient x1="66.7590028%" y1="13.3626302%" x2="33.2409972%" y2="88.8346354%" id="linearGradient-18">
            <stop stop-color="#5E5E5E" offset="0%"></stop>
            <stop stop-color="#F2EFF3" offset="45.4391892%"></stop>
            <stop stop-color="#303030" offset="100%"></stop>
        </linearGradient>
        <linearGradient x1="0%" y1="47.2789346%" x2="100%" y2="52.7210654%" id="linearGradient-19">
            <stop stop-color="#FFFFFF" offset="0%"></stop>
            <stop stop-color="#FEFEFE" offset="100%"></stop>
        </linearGradient>
        <ellipse id="path-20" cx="4.42292737" cy="4.37365" rx="4.42292737" ry="4.37365"></ellipse>
        <filter x="-67.8%" y="-68.6%" width="235.7%" height="237.2%" filterUnits="objectBoundingBox" id="filter-21">
            <feMorphology radius="0.5" operator="dilate" in="SourceAlpha" result="shadowSpreadOuter1"></feMorphology>
            <feOffset dx="0" dy="0" in="shadowSpreadOuter1" result="shadowOffsetOuter1"></feOffset>
            <feGaussianBlur stdDeviation="1.5" in="shadowOffsetOuter1" result="shadowBlurOuter1"></feGaussianBlur>
            <feColorMatrix values="0 0 0 0 0.490619685   0 0 0 0 0.490619685   0 0 0 0 0.490619685  0 0 0 0.25 0" type="matrix" in="shadowBlurOuter1"></feColorMatrix>
        </filter>
        <filter x="-79.1%" y="-80.0%" width="258.3%" height="260.0%" filterUnits="objectBoundingBox" id="filter-22">
            <feGaussianBlur stdDeviation="2" in="SourceAlpha" result="shadowBlurInner1"></feGaussianBlur>
            <feOffset dx="2" dy="2" in="shadowBlurInner1" result="shadowOffsetInner1"></feOffset>
            <feComposite in="shadowOffsetInner1" in2="SourceAlpha" operator="arithmetic" k2="-1" k3="1" result="shadowInnerInner1"></feComposite>
            <feColorMatrix values="0 0 0 0 0   0 0 0 0 0   0 0 0 0 0  0 0 0 0.344061368 0" type="matrix" in="shadowInnerInner1"></feColorMatrix>
        </filter>
        <ellipse id="path-23" cx="4.42292737" cy="4.37365" rx="3.31719553" ry="3.2802375"></ellipse>
        <filter x="-90.4%" y="-45.7%" width="280.9%" height="282.9%" filterUnits="objectBoundingBox" id="filter-24">
            <feOffset dx="0" dy="3" in="SourceAlpha" result="shadowOffsetOuter1"></feOffset>
            <feGaussianBlur stdDeviation="1.5" in="shadowOffsetOuter1" result="shadowBlurOuter1"></feGaussianBlur>
            <feColorMatrix values="0 0 0 0 0.490619685   0 0 0 0 0.490619685   0 0 0 0 0.490619685  0 0 0 0.428838315 0" type="matrix" in="shadowBlurOuter1"></feColorMatrix>
        </filter>
        <filter x="-98.0%" y="-53.3%" width="295.9%" height="298.2%" filterUnits="objectBoundingBox" id="filter-25">
            <feGaussianBlur stdDeviation="2.5" in="SourceAlpha" result="shadowBlurInner1"></feGaussianBlur>
            <feOffset dx="-2" dy="-2" in="shadowBlurInner1" result="shadowOffsetInner1"></feOffset>
            <feComposite in="shadowOffsetInner1" in2="SourceAlpha" operator="arithmetic" k2="-1" k3="1" result="shadowInnerInner1"></feComposite>
            <feColorMatrix values="0 0 0 0 0   0 0 0 0 0   0 0 0 0 0  0 0 0 0.344061368 0" type="matrix" in="shadowInnerInner1"></feColorMatrix>
        </filter>
        <rect id="path-26" x="0" y="2.55129583" width="36.8577281" height="3.64470833" rx="1.82235417"></rect>
        <filter x="-16.3%" y="-164.6%" width="132.6%" height="429.2%" filterUnits="objectBoundingBox" id="filter-27">
            <feMorphology radius="0.5" operator="dilate" in="SourceAlpha" result="shadowSpreadOuter1"></feMorphology>
            <feOffset dx="0" dy="0" in="shadowSpreadOuter1" result="shadowOffsetOuter1"></feOffset>
            <feGaussianBlur stdDeviation="1.5" in="shadowOffsetOuter1" result="shadowBlurOuter1"></feGaussianBlur>
            <feColorMatrix values="0 0 0 0 0.490619685   0 0 0 0 0.490619685   0 0 0 0 0.490619685  0 0 0 0.25 0" type="matrix" in="shadowBlurOuter1"></feColorMatrix>
        </filter>
        <filter x="-19.0%" y="-192.1%" width="138.0%" height="484.1%" filterUnits="objectBoundingBox" id="filter-28">
            <feGaussianBlur stdDeviation="2" in="SourceAlpha" result="shadowBlurInner1"></feGaussianBlur>
            <feOffset dx="2" dy="2" in="shadowBlurInner1" result="shadowOffsetInner1"></feOffset>
            <feComposite in="shadowOffsetInner1" in2="SourceAlpha" operator="arithmetic" k2="-1" k3="1" result="shadowInnerInner1"></feComposite>
            <feColorMatrix values="0 0 0 0 0   0 0 0 0 0   0 0 0 0 0  0 0 0 0.344061368 0" type="matrix" in="shadowInnerInner1"></feColorMatrix>
        </filter>
    </defs>
    <g id="Page-1" stroke="none" stroke-width="1" fill="none" fill-rule="evenodd">
        <g id="16GRID-app-detail-개발" transform="translate(-974.000000, -220.000000)">
            <g id="📱-iPhone/white-Copy-3" transform="translate(1096.000000, 273.000000)">
                <g id="iphone-white">
                    <g id="Path">
                        <use fill="black" fill-opacity="1" filter="url(#filter-3)" xlink:href="#path-2"></use>
                        <path stroke-opacity="0.04" stroke="#000000" stroke-width="2.8" d="M268.098054,-1.09184573 L268.979359,-1.08556368 L269.844174,-1.07759576 L270.69202,-1.06631517 L271.927739,-1.04313658 L273.1223,-1.01229433 L273.900643,-0.987239723 L275.027583,-0.943342352 L275.764476,-0.909277673 C276.007323,-0.897315162 276.247509,-0.884734962 276.489681,-0.871266691 L276.489681,-0.871266691 L277.1921,-0.829915756 L278.222504,-0.760418456 L279.222709,-0.681932035 C282.870093,-0.374662871 285.878529,0.118375917 288.567539,0.832995103 C290.857549,1.47023691 292.506457,2.0724794 294.116189,2.78770322 C295.43114,3.3998311 295.645413,3.50554958 295.859747,3.6131365 C303.182053,7.47356285 308.222392,12.4744134 311.657992,18.8268557 C314.649056,24.6973873 315.970974,29.5522179 316.536515,37.1439599 L316.536515,37.1439599 L316.584379,37.8205705 L316.628112,38.5076995 L316.686766,39.5702817 L316.736978,40.6682966 C316.747206,40.9160678 316.756824,41.1665702 316.765973,41.42368 L316.765973,41.42368 L316.791237,42.1930323 L316.8223,43.3705723 L316.845761,44.5970711 L316.861521,45.8574843 L316.867917,46.7218498 L316.871084,47.6051912 L316.871075,574.419792 L316.867877,575.304836 L316.857025,576.593508 L316.845614,577.432165 L316.8223,578.649396 L316.791092,579.832416 L316.751867,580.977866 C316.742243,581.228486 316.732013,581.476339 316.720975,581.725729 L316.720975,581.725729 L316.686525,582.454 L316.648507,583.163693 L316.584148,584.203146 L316.536052,584.88254 L316.45675,585.871044 L316.3681,586.831236 C315.758094,593.015073 314.551427,597.321358 312.538254,601.477379 C308.196473,609.596626 303.140226,614.568076 296.725083,617.960708 C294.615007,619.013003 294.037684,619.272816 293.453985,619.519032 C289.816857,621.001665 286.405113,621.873356 282.044454,622.411603 L282.044454,622.411603 L281.443635,622.482905 C281.137353,622.51784 280.826384,622.551201 280.504617,622.583596 L280.504617,622.583596 L279.873053,622.644517 L279.222709,622.701883 C279.003882,622.720317 278.782734,622.738087 278.554045,622.755585 L278.554045,622.755585 L277.880882,622.804622 L276.839797,622.871185 C276.604673,622.885026 276.36699,622.898237 276.122329,622.911045 L276.122329,622.911045 L275.397459,622.946753 L274.272948,622.993727 L273.505217,623.020436 L272.724288,623.04351 C272.460041,623.050652 272.192863,623.057215 271.919439,623.063277 L271.919439,623.063277 L271.100537,623.079528 L270.263721,623.092413 L269.413596,623.101943 L268.537307,623.111444 L55.11587,623.111444 L54.2390661,623.101937 L53.3820472,623.09231 L52.1345693,623.0717 L51.3223376,623.053654 L50.1406066,623.020199 L49.3724734,622.993435 L48.6246696,622.963244 L48.6246696,622.963244 L47.8843451,622.929007 L47.1680742,622.891479 C46.9302659,622.878261 46.6950518,622.864415 46.4575576,622.849627 L46.4575576,622.849627 L45.7697952,622.80445 L44.7604043,622.729056 L43.7814813,622.644648 L43.1426864,622.583017 C42.8267929,622.551201 42.5158243,622.51784 42.2031765,622.482164 L42.2031765,622.482164 L41.6022361,622.410818 C36.5300411,621.784726 32.7352719,620.703814 29.0985261,619.034187 C20.4437697,614.534111 15.4237448,609.532519 11.9951848,603.193095 C9.11998025,597.361927 7.93432938,593.141354 7.31610944,587.139065 L7.31610944,587.139065 L7.25434532,586.512947 L7.16906034,585.545764 L7.11702753,584.881162 L7.06879846,584.19938 L7.02506511,583.512251 L6.96641104,582.449669 L6.91619882,581.351654 C6.90597122,581.103883 6.89635283,580.85338 6.88720467,580.596271 L6.88720467,580.596271 L6.86194048,579.826918 L6.83087732,578.649383 L6.80743602,577.424368 L6.7960721,576.586264 L6.78525983,575.298101 L6.78209316,574.414761 L6.78168019,235.076533 L3.68577281,235.076683 C2.32913965,235.076683 1.09920501,234.541846 0.197715354,233.675352 C-0.716949699,232.796194 -1.29353318,231.57594 -1.32628454,230.223173 L-1.32628454,230.223173 L-1.32628454,190.601648 C-1.32628454,189.226942 -0.764015968,187.981652 0.147272205,187.080516 C1.05285274,186.185023 2.30353862,185.629834 3.68571553,185.629834 L3.68571553,185.629834 L6.78167848,185.629718 L6.78167848,178.405041 L3.68577281,178.405364 C2.32913965,178.405364 1.09920501,177.870526 0.197715354,177.004032 C-0.716949699,176.124875 -1.29353318,174.90462 -1.32628454,173.551853 L-1.32628454,173.551853 L-1.32628454,133.930329 C-1.32628454,132.555628 -0.764019954,131.310343 0.147254565,130.409208 C1.05283272,129.513706 2.3035135,128.958514 3.68559018,128.958514 L3.68559018,128.958514 L6.78167848,128.958226 L6.78167848,112.227663 L3.68577281,112.227888 C2.32913965,112.227888 1.09920501,111.69305 0.197715354,110.826556 C-0.716949699,109.947399 -1.29353318,108.727144 -1.32628454,107.374377 L-1.32628454,107.374377 L-1.32628454,87.496409 C-1.32628454,86.121709 -0.764020415,84.8764242 0.147252525,83.9752897 C1.0528304,83.0797868 2.30351059,82.5245948 3.68557568,82.5245948 L3.68557568,82.5245948 L6.78167945,82.5242868 L6.78170317,48.0492512 L6.7832633,47.1647997 L6.78797774,46.2977252 L6.80102707,45.0349922 L6.81382769,44.214519 L6.8300131,43.4096757 L6.86057362,42.2383636 L6.88540035,41.474863 L6.9289331,40.3684243 C6.93956087,40.1250299 6.95079065,39.8842879 6.96285568,39.6417452 L6.96285568,39.6417452 L7.00029049,38.9341288 L7.04148814,38.2409954 L7.08622956,37.5656506 L7.16079523,36.5754965 L7.21571251,35.9288667 C7.2631257,35.3955958 7.31470006,34.8762819 7.37126557,34.3635984 L7.37126557,34.3635984 L7.43980787,33.7670232 C8.02991361,28.8300217 9.04999738,25.1116455 10.6220076,21.6000931 C10.9524381,20.8788285 11.0875816,20.5963202 11.2263858,20.3143052 C11.5840925,19.6019601 11.7302587,19.3215204 11.8836122,19.0344398 C15.4397655,12.4577579 20.4958427,7.46092199 26.9280939,4.05924271 C28.2354429,3.39101876 28.6659477,3.18436011 29.0985261,2.98576373 C33.6964623,0.939501809 38.1062754,-0.149158671 44.4358566,-0.682375461 L44.4358566,-0.682375461 L45.095197,-0.7353574 L46.1149659,-0.807767522 C46.345257,-0.822894325 46.5780385,-0.837380549 46.8179528,-0.851496214 L46.8179528,-0.851496214 L47.5275044,-0.890936895 L48.6245634,-0.943302382 L49.7620428,-0.987577744 L50.5397602,-1.01255168 L51.735324,-1.04335665 L52.968782,-1.0664372 L53.8147147,-1.07765997 L54.6767232,-1.08558739 L55.5650978,-1.09188126 L268.098054,-1.09184573 Z" fill="url(#linearGradient-1)" fill-rule="evenodd"></path>
                    </g>
                    <g id="Path">
                        <use fill="black" fill-opacity="1" filter="url(#filter-6)" xlink:href="#path-5"></use>
                        <path stroke-opacity="0.04" stroke="#000000" stroke-width="2.8" d="M267.847652,-0.0710504008 C268.282242,-0.0704345249 268.708992,-0.0686052659 269.127258,-0.063172595 L269.127258,-0.063172595 L270.060183,-0.052937608 L271.411773,-0.0300281173 L272.287651,-0.00960196717 L273.551602,0.0283482831 L274.772312,0.0755359332 L275.563388,0.11218275 L276.707168,0.174454634 L277.448294,0.221186254 C284.873586,0.71586892 289.345768,1.83466285 293.223867,3.50485162 C293.670322,3.70070744 293.733672,3.72915349 293.796908,3.75770902 C302.552248,8.29498416 307.419931,13.1523494 310.750678,19.3131814 L310.750678,19.3131814 L311.151459,20.0688354 C312.906289,23.9239838 313.60159,25.8521652 314.088573,27.7727946 L314.190048,28.1849419 C314.223017,28.3227522 314.255233,28.4612234 314.287007,28.6010551 C314.955494,31.7068006 315.355586,34.7757035 315.590996,38.641506 L315.590996,38.641506 L315.633887,39.3887564 L315.690765,40.5496312 L315.723731,41.3523807 L315.76532,42.5912899 C315.777655,43.0123417 315.788461,43.4416625 315.797801,43.8831522 L315.797801,43.8831522 L315.814255,44.7695332 L315.826601,45.6786938 L315.834694,46.5965355 C315.839408,46.9160251 315.83946,47.2396191 315.83946,47.5674031 L315.83946,47.5674031 L315.83946,573.968245 C315.83946,574.460322 315.839436,574.94299 315.834792,575.415145 L315.834792,575.415145 L315.826526,576.347909 L315.814143,577.257395 L315.797729,578.140415 C315.788461,578.578288 315.777655,579.007609 315.765198,579.432629 L315.765198,579.432629 L315.738558,580.261624 L315.690863,581.468117 L315.653785,582.250763 L315.590708,583.383317 C315.355359,587.24798 314.954026,590.319697 314.397957,592.916057 C313.772991,595.681539 313.139678,597.574964 312.392076,599.330901 C312.079486,600.047305 311.93467,600.362491 311.78609,600.674926 C307.378841,608.945583 302.469937,613.765261 296.238386,617.060801 C293.203819,618.528528 292.817081,618.690271 292.42359,618.848352 C291.538818,619.193814 291.056205,619.36799 290.558465,619.534644 C285.944426,620.905846 281.956486,621.55148 276.326462,621.867481 L276.326462,621.867481 L275.562183,621.907816 C275.302682,621.920667 275.039753,621.932849 274.769052,621.944539 L274.769052,621.944539 L273.959923,621.977006 L273.12982,622.005429 L272.276403,622.029845 L270.962853,622.058709 C270.514902,622.066849 270.058218,622.073471 269.596121,622.078524 L269.596121,622.078524 L268.650112,622.091313 L55.0030618,622.091313 L54.0606599,622.078568 C53.5949587,622.073471 53.1382754,622.066849 52.68679,622.058641 L52.68679,622.058641 L51.7997633,622.040251 L50.5155006,622.005182 L49.6850262,621.9767 L48.8798653,621.944361 C48.613424,621.932849 48.3504953,621.920667 48.086441,621.907584 L48.086441,621.907584 L47.3220539,621.867228 C41.686727,621.550921 37.6925895,620.900533 34.4182841,619.948272 C32.5809212,619.363314 32.1015532,619.188762 31.6332421,619.007535 C30.8146859,618.68179 30.4252566,618.516094 30.0367098,618.343144 L30.0367098,618.343144 L28.7110134,617.722767 C21.1390816,613.748599 16.246055,608.889021 12.9052304,602.71182 C11.5926824,600.093921 11.4248194,599.715436 11.2611013,599.330901 C10.6913061,597.922094 10.4684178,597.304933 10.2578294,596.661444 C9.65964481,594.756496 9.27018071,593.160284 8.9458068,591.330273 L8.9458068,591.330273 L8.85274169,590.787325 C8.48639022,588.576983 8.21394831,586.033563 8.04013834,583.005436 L8.04013834,583.005436 L7.99934088,582.249519 C7.98634065,581.992811 7.97401626,581.732713 7.96218443,581.464784 L7.96218443,581.464784 L7.92944605,580.66757 L7.88785753,579.428661 C7.87963261,579.147914 7.87208778,578.863492 7.86514197,578.571607 L7.86514197,578.571607 L7.84663575,577.696423 L7.83221763,576.797062 L7.81836063,575.411937 C7.81629824,575.097207 7.81492188,574.778433 7.81423039,574.45255 L7.81423039,574.45255 L7.81369706,234.056108 L3.68577281,234.056165 C2.58852476,234.056165 1.59584244,233.615201 0.877019877,232.904387 C0.152488476,232.187928 -0.294268157,231.197767 -0.294268157,230.104869 L-0.294268157,230.104869 L-0.294268157,190.601648 C-0.294268157,189.50875 0.152488476,188.518589 0.877019877,187.80213 C1.59584244,187.091316 2.58852476,186.650352 3.68576602,186.650352 L3.68576602,186.650352 L7.81369487,186.650332 L7.81369487,177.384601 L3.68577281,177.384845 C2.58852476,177.384845 1.59584244,176.943881 0.877019877,176.233068 C0.152488476,175.516608 -0.294268157,174.526448 -0.294268157,173.43355 L-0.294268157,173.43355 L-0.294268157,133.930329 C-0.294268157,132.83743 0.152488476,131.84727 0.877019877,131.130811 C1.59584244,130.419997 2.58852476,129.979033 3.68570255,129.979033 L3.68570255,129.979033 L7.81369487,129.978826 L7.81369487,111.207231 L3.68577281,111.207369 C2.58852476,111.207369 1.59584244,110.766405 0.877019877,110.055592 C0.152488476,109.339132 -0.294268157,108.348972 -0.294268157,107.256073 L-0.294268157,107.256073 L-0.294268157,87.496409 C-0.294268157,86.4035107 0.152488476,85.4133501 0.877019877,84.6968909 C1.59584244,83.986077 2.58852476,83.5451131 3.68569521,83.5451131 L3.68569521,83.5451131 L7.81369573,83.5448843 L7.8137174,48.0517058 C7.8137174,47.56119 7.81526741,47.0800535 7.81838532,46.604806 L7.81838532,46.604806 L7.82665069,45.6720414 L7.83906872,44.7607605 L7.86522524,43.4446411 C7.87208778,43.1564589 7.87963261,42.8720365 7.88797944,42.5873211 L7.88797944,42.5873211 L7.91461986,41.7583179 L7.9623701,40.5508105 C7.97401626,40.2872376 7.98634065,40.0271394 7.99958441,39.7657765 L7.99958441,39.7657765 L8.04040376,39.0097491 C8.21394831,35.9863874 8.48639022,33.4429677 8.85403242,31.2249695 L8.85403242,31.2249695 L8.94716441,30.6818915 C9.27100697,28.8550057 9.66240162,27.2549613 10.1182328,25.79513 C10.5228465,24.5482781 10.8024537,23.7973251 11.1020412,23.0690568 L11.1020412,23.0690568 L11.6985476,21.7023971 C16.2593638,13.0846983 21.1752108,8.25893532 27.4147916,4.95914924 C34.3475191,1.81363883 38.807696,0.713996517 46.2098614,0.220863483 L46.2098614,0.220863483 L46.9496618,0.174257762 L47.7086234,0.131689875 L48.4839295,0.0932981736 L49.6891013,0.043079106 L50.946436,0.00182800339 L51.8107512,-0.0205572493 L53.1412414,-0.0464026761 L54.5170066,-0.0630466836 C54.9931924,-0.0712903495 55.4785768,-0.071362931 55.9734499,-0.071362931 L55.9734499,-0.071362931 Z" fill="url(#linearGradient-4)" fill-rule="evenodd"></path>
                    </g>
                    <path d="M56.9690658,1.89524826 L265.904632,1.89524826 L267.634023,1.91461928 L268.671606,1.93114965 L269.684259,1.95299479 L270.666422,1.98011643 L271.625761,2.01283032 L272.373397,2.04297598 L273.105115,2.07675896 L273.821336,2.11423844 L274.520941,2.15537424 L275.208978,2.20052597 L275.881238,2.24945462 L276.536166,2.30201801 C277.551846,2.3874697 278.516849,2.48733087 279.440497,2.60272176 L279.833841,2.65312907 L280.223591,2.70567007 L280.79237,2.78713984 C285.337498,3.46182269 288.948611,4.56784583 292.611094,6.36602679 L292.900362,6.5094312 L293.15991,6.6404557 L293.584044,6.85916236 L293.795147,6.97011531 C299.916549,10.2074024 304.771593,14.9218434 308.14163,20.9003804 L308.298512,21.1815493 L308.45458,21.467152 L308.568968,21.6800332 L308.789072,22.0975063 C311.218378,26.7660811 312.495345,31.3326713 313.113387,37.8587092 L313.14477,38.1980208 L313.174484,38.5352536 L313.227684,39.1836315 L313.253066,39.5165645 L313.300364,40.1857614 L313.322774,40.5290892 L313.364417,41.2221399 L313.402268,41.930104 L313.436387,42.6533991 L313.466766,43.3906395 L313.480695,43.7680007 L313.505741,44.5314508 L313.527261,45.3116948 L313.549264,46.3097874 L313.566012,47.3385231 L313.575644,48.18084 L313.581925,49.0326233 L313.585551,49.2606097 L313.585551,49.4809933 L313.585551,569.963895 L313.581989,571.290821 L313.575611,572.152017 L313.565961,572.994544 L313.549245,574.020567 L313.527154,575.021938 L313.499726,575.993158 L313.466644,576.941809 L313.436159,577.681115 L313.401995,578.404681 L313.364093,579.112923 L313.322494,579.804733 L313.276834,580.485104 L313.227354,581.149874 L313.174198,581.797506 C312.59994,588.471902 311.377847,593.110203 309.024799,597.771985 L308.902079,598.013143 L308.78688,598.236038 L308.565709,598.655447 L308.453506,598.864199 C305.179745,604.917399 300.412187,609.718352 294.36629,613.050842 L294.081953,613.205976 L293.793133,613.360305 L293.577853,613.473419 L293.155676,613.691071 C288.434501,616.093311 283.81646,617.356051 277.216894,617.967207 L276.873759,617.99824 L276.532727,618.027623 L275.877044,618.08023 L275.54036,618.10533 L274.863623,618.152101 L274.516427,618.174261 L273.815568,618.21544 L273.099627,618.25287 L272.368183,618.286608 L271.622636,618.316649 L271.241023,618.330423 L270.468971,618.35519 L269.679937,618.37647 L268.670599,618.398228 L267.630272,618.414789 L265.904632,618.43411 L56.9589868,618.43411 L55.239675,618.414739 L54.2020922,618.398209 L53.189439,618.376364 L52.2072763,618.349242 L51.2479367,618.316528 L50.5003012,618.286382 L49.7685836,618.252599 L49.0523618,618.21512 L48.3527571,618.173984 L47.6647207,618.128832 L46.9924602,618.079904 L46.337532,618.02734 C39.5879361,617.45948 34.8973756,616.251003 30.1830698,613.924172 L29.9391946,613.802819 L29.7137886,613.688903 L29.2896544,613.470196 L29.0785508,613.359243 C22.9571496,610.121956 18.1021049,605.407515 14.7320679,599.428978 L14.5751859,599.147809 L14.4191183,598.862206 L14.3047303,598.649325 L14.0846259,598.231852 C12.1968123,594.603903 11.024989,591.083171 10.2984594,586.689867 L10.242022,586.341196 L10.1894204,586.001814 L10.1070672,585.439448 C9.98161936,584.551125 9.87192677,583.622248 9.77695062,582.644031 L9.73714454,582.221749 L9.69921434,581.794105 L9.64601425,581.145727 L9.62063219,580.812794 L9.57333387,580.143597 L9.55092428,579.800269 L9.50928093,579.107219 L9.47143001,578.399254 L9.43731165,577.675959 L9.40693241,576.938719 L9.3930028,576.561358 L9.36795679,575.797908 L9.34643718,575.017664 L9.32443425,574.019571 L9.30768628,572.990835 L9.29805447,572.148518 L9.29177273,571.296735 L9.28814741,571.068749 L9.28814741,570.848365 L9.28814741,50.3654639 L9.29170875,49.0385375 L9.29808742,48.1773418 L9.30773668,47.3348139 L9.32445329,46.3087912 L9.34654456,45.3074203 L9.37397177,44.3362002 L9.40705425,43.387549 L9.43753956,42.6482431 L9.47170316,41.9246778 L9.50960493,41.2164358 L9.55120419,40.5246256 L9.59686464,39.8442548 L9.64634457,39.1794842 L9.69950018,38.5318528 C9.78591465,37.5274891 9.88690094,36.5732379 10.0035919,35.6598804 L10.0545672,35.2709184 L10.1077001,34.8855106 L10.1900878,34.323069 C10.8723722,29.8285794 11.9908568,26.2576991 13.8092976,22.6360216 L13.9543178,22.3499764 L14.0868185,22.0933203 L14.3079893,21.6739115 L14.4201924,21.4651599 C17.6939536,15.4119593 22.4615116,10.6110064 28.507408,7.27851612 L28.7917448,7.123382 L29.0805654,6.96905324 L29.295845,6.8559397 L29.7180217,6.63828748 C33.3868469,4.77150672 36.947246,3.61273907 41.3900494,2.89430404 L41.7426484,2.83849542 L42.0858543,2.78647985 L42.6545567,2.70504421 C43.5528878,2.580994 44.4922305,2.47252353 45.4814689,2.37860555 L45.908509,2.33924296 L46.3409712,2.30173535 L46.9966543,2.24912798 L47.3333384,2.22402871 L48.010075,2.17725736 L48.3572711,2.15509745 L49.0581302,2.11391806 L49.7740709,2.07648885 L50.5055152,2.04275062 L51.251062,2.01270984 L51.6326749,1.99893542 L52.4047268,1.97416846 L53.1937616,1.95288861 L54.2030996,1.93113082 L55.243426,1.91456944 L56.9690658,1.89524826 Z" id="Path" stroke-opacity="0.03" stroke="#000000" stroke-width="4.80000019" fill="url(#linearGradient-7)"></path>
                    <polygon id="Path" stroke-opacity="0.03" stroke="#000000" stroke-width="4.80000019" fill="url(#linearGradient-8)" points="266.631017 616.676267 265.880571 616.684279 56.983669 616.684229 56.2408387 616.676267 56.9690658 616.68465 265.894553 616.684707"></polygon>
                    <path d="M267.55426,5.41258886 L265.871113,5.394489 L57.0025855,5.394489 L55.3231105,5.41254116 L54.5135236,5.42471198 L53.7224518,5.44004762 L52.9478243,5.45864255 L52.5696745,5.46908976 L51.8231192,5.49254613 L51.0936616,5.51933325 L50.3808963,5.54949763 L49.6844178,5.58308533 L49.0038199,5.62014196 L48.3371356,5.6608173 L48.0102117,5.68244263 L47.6886393,5.70484218 L47.0506791,5.75278303 L46.7409118,5.77780575 L46.1230937,5.83136263 C42.8513596,6.12819914 40.144158,6.58907738 37.7219665,7.25670983 L37.4635238,7.32903498 L37.2119885,7.40150328 L36.7757249,7.53229619 C36.6177826,7.58081958 36.4607132,7.63036831 36.3058432,7.68049151 L36.0753537,7.75605081 L35.7289602,7.87320135 L35.3106211,8.0205749 C34.7081562,8.23744772 34.1131377,8.47190361 33.5217044,8.72498827 L33.0787414,8.918311 L32.713104,9.08347076 L32.315372,9.26885156 L31.9250318,9.45645351 L31.5358587,9.64900415 L31.1437853,9.84842147 L30.7472289,10.0555093 C25.2290454,12.9737863 20.8704132,17.2035344 17.8345094,22.5828283 L17.6862698,22.8483099 L17.542509,23.1112278 L17.3331028,23.5032868 C17.2416465,23.6767425 17.1522898,23.8492608 17.0656162,24.0196845 L16.937691,24.2736043 L16.7471188,24.6611508 L16.5596438,25.0543877 C16.2849427,25.6398712 16.031207,26.2232759 15.79717,26.8082668 L15.625316,27.2473647 L15.4845376,27.6221673 L15.3354633,28.0358355 L15.2166281,28.3791818 L15.1025675,28.7213608 L14.9904755,29.0708805 L14.8581605,29.5023026 C14.1527873,31.8599973 13.6607836,34.4734765 13.3372256,37.6179809 L13.3019656,37.9695695 L13.2689289,38.3162823 L13.2148894,38.9255998 L13.1648409,39.5454547 L13.1181748,40.1835622 L13.0964363,40.5046631 L13.0553497,41.1626669 L13.017823,41.835965 L12.9838101,42.5249591 L12.9532644,43.2300501 L12.9261389,43.9516389 L12.9023405,44.6917587 L12.8917596,45.0658318 L12.8729761,45.8304176 L12.857445,46.612903 L12.8451175,47.4136884 L12.8359445,48.2331743 L12.8298766,49.0717616 L12.8268589,49.9298488 L12.8268589,570.396478 L12.8298593,571.254376 L12.835913,572.092762 L12.8450692,572.912039 L12.8573772,573.712606 L12.8728856,574.494864 L12.89169,575.260861 L12.9022549,575.634798 L12.9259756,576.373035 L12.9530645,577.094366 L12.9835687,577.79919 L13.0175349,578.487909 L13.055009,579.160924 L13.0961426,579.82018 L13.1180116,580.143462 L13.1406635,580.461451 L13.1891445,581.092304 L13.2144492,581.39862 L13.2686095,582.009555 C13.5687904,585.244837 14.0348613,587.921877 14.7100159,590.317082 L14.7831559,590.572645 L14.8564407,590.821378 L14.9887073,591.252781 C15.0377774,591.408964 15.0878843,591.564283 15.1385723,591.717428 L15.2149829,591.945349 L15.3334534,592.287884 L15.4824873,592.701562 C15.7018036,593.297315 15.9389011,593.885704 16.1948372,594.470548 L16.3903381,594.908575 L16.5573587,595.270139 L16.7448282,595.66344 L16.9345438,596.049431 L17.1292639,596.434268 L17.330928,596.821974 L17.5403491,597.214112 C20.4915059,602.670815 24.7689101,606.980886 30.2088119,609.982966 L30.4772845,610.129554 L30.7431647,610.271713 L31.139641,610.478786 C31.3150511,610.569224 31.4895131,610.657585 31.6618569,610.743293 L31.9186376,610.869793 L32.3105506,611.058242 L32.708218,611.243628 C33.300298,611.515269 33.8902759,611.766177 34.4818578,611.997607 L34.925903,612.167546 L35.3049285,612.306756 L35.7232574,612.454169 L36.0704721,612.571681 L36.4165065,612.684471 L36.7699641,612.795314 L37.206247,612.926155 C39.5905056,613.623669 42.2334305,614.110191 45.4133636,614.430144 L45.7689136,614.465011 L46.1195327,614.49768 L46.7357153,614.551117 L47.362554,614.600608 L48.007851,614.646754 L48.3325697,614.668251 L48.9979871,614.70888 L49.6788713,614.745988 L50.3756281,614.779622 L51.0886633,614.809828 L51.8183822,614.836651 L52.5668408,614.860184 L52.9451286,614.870647 L53.7183289,614.889221 L54.5096304,614.904579 L55.3194381,614.91677 L56.9931272,614.934869 L265.871113,614.934869 L267.550588,614.916817 L268.360175,614.904646 L269.151246,614.889311 L269.925874,614.870716 L270.304024,614.860269 L271.050579,614.836812 L271.780037,614.810025 L272.492802,614.779861 L273.18928,614.746273 L273.869878,614.709216 L274.536563,614.668541 L274.863486,614.646916 L275.185059,614.624516 L275.823019,614.576575 L276.132786,614.551553 L276.750604,614.497996 C280.022339,614.201159 282.72954,613.740281 285.151732,613.072649 L285.410174,613.000323 L285.66171,612.927855 L286.097973,612.797062 C286.255916,612.748539 286.412985,612.69899 286.567855,612.648867 L286.798344,612.573308 L287.144738,612.456157 L287.563077,612.308784 C288.165542,612.091911 288.760561,611.857455 289.351994,611.60437 L289.794957,611.411047 L290.160594,611.245888 L290.558326,611.060507 L290.948666,610.872905 L291.337839,610.680354 L291.729913,610.480937 L292.126469,610.273849 C297.644653,607.355572 302.003285,603.125824 305.039189,597.74653 L305.187428,597.481049 L305.331189,597.218131 L305.540595,596.826072 C305.632052,596.652616 305.721408,596.480098 305.808082,596.309674 L305.936007,596.055754 L306.126579,595.668208 L306.314054,595.274971 C306.588755,594.689487 306.842491,594.106083 307.076528,593.521092 L307.248382,593.081994 L307.389161,592.707191 L307.538235,592.293523 L307.65707,591.950177 L307.771131,591.607998 L307.883223,591.258478 L308.015538,590.827056 C308.720911,588.469361 309.212915,585.855882 309.536473,582.711378 L309.571733,582.359789 L309.604769,582.013076 L309.658809,581.403759 L309.708857,580.783904 L309.755523,580.145796 L309.777262,579.824695 L309.818349,579.166692 L309.855875,578.493393 L309.889888,577.804399 L309.920434,577.099308 L309.947559,576.37772 L309.971358,575.6376 L309.981939,575.263527 L310.000722,574.498941 L310.016253,573.716455 L310.028581,572.91567 L310.037754,572.096184 L310.043822,571.257597 L310.046839,570.39951 L310.046839,49.93288 L310.043839,49.0749828 L310.037785,48.2365964 L310.028629,47.4173199 L310.016321,46.6167528 L310.000813,45.8344947 L309.982008,45.0684976 L309.971443,44.6945608 L309.947723,43.9563231 L309.920634,43.2349927 L309.890129,42.5301686 L309.856163,41.8414497 L309.818689,41.1684346 L309.777556,40.5091781 L309.755687,40.1858966 L309.733035,39.8679069 L309.684554,39.2370544 L309.659249,38.9307384 L309.605089,38.3198036 C309.304908,35.0845211 308.838837,32.4074813 308.163682,30.0122763 L308.090542,29.756713 L308.017257,29.5079802 L307.884991,29.0765771 C307.835921,28.9203945 307.785814,28.765075 307.735126,28.6119305 L307.658715,28.384009 L307.540245,28.0414747 L307.391211,27.6277966 C307.171895,27.0320439 306.934797,26.4436547 306.678861,25.8588108 L306.48336,25.420783 L306.316339,25.0592193 L306.12887,24.6659185 L305.939154,24.2799272 L305.744434,23.89509 L305.54277,23.5073849 L305.333349,23.1152467 C302.382192,17.6585431 298.104788,13.348472 292.664886,10.3463922 L292.396414,10.1998042 L292.130533,10.0576452 L291.734057,9.85057196 C291.558647,9.76013466 291.384185,9.67177348 291.211841,9.58606552 L290.955061,9.45956564 L290.563148,9.27111662 L290.16548,9.08573037 C289.5734,8.81408981 288.983422,8.56318112 288.39184,8.33175161 L287.947795,8.16181226 L287.56877,8.02260234 L287.150441,7.87518892 L286.803226,7.75767773 L286.457192,7.64488787 L286.103734,7.53404478 L285.667451,7.40320391 C283.283193,6.70568953 280.640268,6.21916738 277.460335,5.89921424 L277.104785,5.8643471 L276.754165,5.83167853 L276.137983,5.77824102 L275.511144,5.72875012 L274.865847,5.68260403 L274.541128,5.66110768 L273.875711,5.62047881 L273.194827,5.5833702 L272.49807,5.54973625 L271.785035,5.51953089 L271.055316,5.49270761 L270.306857,5.46917435 L269.92857,5.45871134 L269.155369,5.44013711 L268.364068,5.42477903 L267.55426,5.41258886 Z" id="Path" stroke-opacity="0.03" stroke="#000000" stroke-width="4.80000019" fill="url(#linearGradient-9)"></path>
                    <polygon id="Path" stroke-opacity="0.03" stroke="#000000" stroke-width="4.80000019" fill="url(#linearGradient-10)" points="311.812982 49.0656991 311.816005 49.9298488 311.815643 570.225553 311.81638 569.961581 311.816025 49.2746728"></polygon>
                    <path d="M231.097955,8.89308837 L91.775743,8.89308837 C88.638939,8.89308837 86.0888141,11.376974 86.0259374,14.4642186 L86.0259374,14.5788333 L86.0259374,28.0642542 C86.0259374,35.357857 91.9453951,41.2843 99.2927852,41.4020995 L99.5158659,41.4038866 L223.357832,41.4038866 C230.733611,41.4038866 236.726827,35.5503797 236.845953,28.2848494 L236.847761,28.0642542 L236.847761,14.5788333 C236.847761,11.4769776 234.335889,8.95526447 231.213861,8.89422058 L231.097955,8.89308837 Z" id="Path" stroke-opacity="0.03" stroke="#000000" stroke-width="4.80000019" fill="url(#linearGradient-11)"></path>
                    <polygon id="Path" stroke-opacity="0.03" stroke="#000000" stroke-width="4.80000019" fill="url(#linearGradient-12)" points="266.616273 3.65236222 265.894553 3.64465155 56.9791448 3.64465155 56.242313 3.65272669 56.9931272 3.64507894 265.890029 3.64512894"></polygon>
                    <g id="screen" transform="translate(23.012810, 14.025235)">
                        <mask id="mask-14" fill="white">
                            <use xlink:href="#path-13"></use>
                        </mask>
                        <use id="mask" fill="#979797" fill-rule="nonzero" xlink:href="#path-13"></use>
                        <path d="M31.5366277,0.371362948 L245.311451,0.371362948 C262.512238,0.371362948 276.456231,14.1600012 276.456231,31.1691484 L276.456231,561.10974 C276.456231,578.118887 262.512238,591.907526 245.311451,591.907526 L31.5366277,591.907526 C14.3358406,591.907526 0.391847483,578.118887 0.391847483,561.10974 L0.391847483,31.1691484 C0.391847483,14.1600012 14.3358406,0.371362948 31.5366277,0.371362948 Z" id="Path" fill="#979797" fill-rule="nonzero" mask="url(#mask-14)"></path>
                        <g id="Group" mask="url(#mask-14)">
                            <g transform="translate(-1.012810, -0.025235)">
                                <g id="Group" stroke-width="1" fill="none" fill-rule="evenodd">
                                    <g id="bg">
                                        <mask id="mask-16" fill="white">
                                            <use xlink:href="#path-15"></use>
                                        </mask>
                                        <use fill="#EAEBED" xlink:href="#path-15"></use>
                                    </g>
                                </g>
                                <g id="Group-2" stroke-width="1" fill="none" fill-rule="evenodd" transform="translate(86.000000, 116.000000)">
                                    <path d="M30.8835473,10.8579665 C31.909707,10.1837568 32.9989477,9.99156692 33.2369068,10.4834742 C33.5073433,11.0816731 32.1820172,11.988241 31.4006868,12.2459361 C30.6112371,12.5091931 29.69625,12.4696427 29.275918,12.393014 C29.8436472,11.5612209 30.6799393,10.9963927 30.8835473,10.8579665 M67.4461853,10.8579665 C68.4673484,10.1837568 69.5622102,9.99156692 69.7932991,10.4834742 C70.0805989,11.0816731 68.7427814,11.988241 67.9726932,12.2459361 C67.1813699,12.5091931 66.2532668,12.4696427 65.8373068,12.393014 C66.4012886,11.5612209 67.2419526,10.9963927 67.4461853,10.8579665 M106.072385,15.5094569 C105.010625,16.0131058 104.035679,16.9481005 102.725967,17.1674812 C102.278155,17.244728 101.695436,17.1891103 101.371911,16.8689998 C101.090857,16.5896755 101.001545,16.0681055 101.063376,15.7004109 C101.206402,14.7493489 102.190091,13.0882347 103.673432,11.2534699 C104.132487,10.6836978 104.046922,9.85499466 103.467326,9.4020197 C102.892726,8.94719082 102.052062,9.03247124 101.594881,9.60409721 C101.018408,10.3166213 100.375731,11.1675715 99.8223665,12.0549822 L99.8223665,12.0636338 C99.8117489,12.0766113 99.8117489,12.0846449 99.8017559,12.0945325 C99.3433254,12.8268317 98.9535971,13.5795241 98.7025221,14.2932841 C96.8475652,18.1352286 94.855204,18.9287072 94.5660306,18.9942125 C94.275608,19.0603357 93.6766505,19.0603357 93.2288377,18.6765738 C92.7154456,18.2384302 92.7522949,17.7496128 92.8603446,17.2558515 C93.1907393,15.6077148 94.5435463,13.5035133 95.2973958,12.0766113 C95.420435,11.8417811 95.5391023,11.6236363 95.6477765,11.4184689 C96.6708134,9.4520756 97.7456891,6.9900671 98.1154314,5.55883927 C98.7955822,3.0152582 97.9680341,0.777574271 96.1655406,0.244880665 C96.1524247,0.234375107 96.1486773,0.234375107 96.1274421,0.234375107 C94.869569,-0.148768786 93.5323761,0.188027055 92.2645099,1.18914497 C91.8166971,1.53768232 91.3751299,1.97211805 90.9198223,2.51346329 C90.6069154,1.38566071 89.9036556,0.543980091 88.8899872,0.244880665 C88.8793696,0.234375107 88.8681275,0.234375107 88.8618818,0.234375107 C87.5927665,-0.148768786 86.2568228,0.188027055 84.9877074,1.18914497 C84.413108,1.64150195 83.8378839,2.23413904 83.2239369,3.02143794 C82.9129037,1.57599671 82.0135307,0.454991832 80.7175591,0.120667887 C79.450942,-0.216127954 78.0775244,0.155892406 76.8540023,1.18914497 C75.7841231,2.0969488 74.3301366,4.34699221 73.2858645,6.44995781 C72.9542207,7.10810014 73.1509586,7.88612943 73.783018,8.24455436 C74.4244459,8.60359727 75.0902318,8.20376808 75.4143808,7.56045712 C76.7091033,4.94271917 77.7546245,3.76795056 78.5734287,3.091269 C78.9625325,2.77177644 79.4927878,2.46217145 80.0255415,2.65621529 C80.6981976,2.90216895 80.8499668,3.84272541 80.5901479,5.01872997 C80.2972271,6.31338555 79.3891101,8.52696849 78.5496952,10.4921259 C78.4747475,10.6942034 78.3698206,10.9345953 78.2405357,11.2170094 C73.0735126,15.8487247 67.0826886,17.602535 66.4200256,17.6834896 C64.9279407,17.8552863 64.3527167,17.101976 64.5869284,15.6763099 C64.6475112,15.3444579 64.8423753,14.8550225 64.9279407,14.5664286 C66.2251614,14.7363714 68.1950383,14.6195744 69.2586718,14.0930605 C70.497808,13.4843561 71.4271602,12.5184627 71.7325723,11.4944797 C71.9318084,10.8579665 71.8699765,10.2233072 71.5614416,9.70235508 C70.7007915,8.23528475 68.675953,7.72236632 66.7729046,8.76488849 C65.6599304,9.36617721 64.2758952,10.4154971 63.2709707,12.0444766 C63.2709707,12.0549822 63.259104,12.0549822 63.259104,12.0636338 C63.2322477,12.105656 63.2147599,12.1495322 63.1822825,12.1897005 C63.1548017,12.2459361 63.1160787,12.3132953 63.0773557,12.3744747 C62.8812424,12.7335176 62.6457815,13.1432344 62.5296125,13.4237946 C60.5884656,18.0196674 58.3169241,18.9182016 58.0015189,18.9942125 C57.7029771,19.0603357 57.1083915,19.0603357 56.6693226,18.6765738 C56.1546813,18.2384302 56.1902815,17.7496128 56.2983312,17.2558515 C56.6287259,15.6077148 57.9765364,13.5035133 58.7366315,12.0766113 C58.8640427,11.8417811 58.9808363,11.6236363 59.0857631,11.4184689 C60.1106737,9.4520756 61.1736827,6.9900671 61.5546671,5.56131116 C62.2266987,3.0152582 61.4078944,0.777574271 59.6047763,0.244880665 C59.5829166,0.234375107 59.5741727,0.234375107 59.5666779,0.234375107 C58.3081802,-0.148768786 56.9691136,0.188027055 55.6937526,1.18914497 C55.2546837,1.53768232 54.8174885,1.97211805 54.3459422,2.51346329 C54.0461512,1.38566071 53.3422668,0.543980091 52.3304721,0.244880665 C52.3167317,0.234375107 52.2998684,0.234375107 52.2923737,0.234375107 C51.0320023,-0.148768786 49.6954339,0.188027055 48.4288169,1.18914497 C47.8542174,1.64150195 47.2783688,2.23413904 46.6650464,3.02143794 C46.3508904,1.57599671 45.4552647,0.454991832 44.1561703,0.120667887 C42.8889286,-0.216127954 41.5142619,0.155892406 40.2863678,1.18914497 C39.2239834,2.0969488 37.7718706,4.34699221 36.7132336,6.44995781 C36.3922074,7.10810014 36.5914435,7.88612943 37.224752,8.24455436 C37.8655553,8.60359727 38.5176008,8.20376808 38.8492446,7.56045712 C40.1495882,4.94271917 41.1919865,3.76795056 42.0114153,3.091269 C42.3998945,2.77177644 42.9195323,2.46217145 43.4635281,2.65621529 C44.1261912,2.90216895 44.2923253,3.84272541 44.033131,5.01872997 C43.7395856,6.31338555 42.8333424,8.52696849 41.9901801,10.4921259 C41.9146078,10.6942034 41.8046844,10.9345953 41.6810206,11.2170094 C36.5015062,15.8487247 30.522549,17.602535 29.861135,17.6834896 C28.3690501,17.8552863 27.7938261,17.101976 28.024915,15.6763099 C28.0748802,15.3444579 28.2797374,14.8550225 28.3690501,14.5664286 C29.6650217,14.7363714 31.6261547,14.6195744 32.7010304,14.0930605 C33.9395421,13.4843561 34.8607749,12.5184627 35.1755555,11.4944797 C35.3729179,10.8579665 35.3117105,10.2233072 35.0025511,9.70235508 C34.1425256,8.23528475 32.1133151,7.72236632 30.2021473,8.76488849 C29.0947942,9.36617721 27.7145064,10.4154971 26.7095819,12.0444766 C26.7095819,12.0549822 26.7027117,12.0549822 26.7027117,12.0636338 C26.6714835,12.105656 26.6533711,12.1495322 26.6271394,12.1897005 C26.5840444,12.2459361 26.5578127,12.3132953 26.5178406,12.3744747 C26.3098605,12.7335176 26.0831436,13.1432344 25.9694728,13.4237946 C24.0189575,18.0196674 21.7586581,18.9182016 21.4457512,18.9942125 C21.1422128,19.0603357 20.5463782,19.0603357 20.0998144,18.6765738 C19.592668,18.2384302 19.631391,17.7496128 19.7257002,17.2558515 C20.0698353,15.6077148 21.4188949,13.5035133 22.1783655,12.0766113 C22.303903,11.8423991 22.4194475,11.6236363 22.526248,11.4184689 C23.5467866,9.45331155 24.6172904,6.9900671 24.9914046,5.56131116 C25.6671835,3.0152582 24.8477548,0.777574271 23.0352682,0.244880665 C23.0246506,0.234375107 23.0177804,0.234375107 23.0071628,0.234375107 C21.7436685,-0.148768786 20.3983563,0.188027055 19.1342375,1.18914497 C18.6932949,1.53768232 18.2448575,1.97211805 17.7876762,2.51346329 C17.4885097,1.38566071 16.7827517,0.543980091 15.770957,0.244880665 C15.7509709,0.234375107 15.7397288,0.234375107 15.7309849,0.234375107 C14.4699889,-0.148768786 13.1377925,0.188027055 11.8568105,1.18914497 C11.2928286,1.64150195 10.71698,2.23413904 10.1036576,3.02143794 C9.77763482,1.57599671 8.88325828,0.454991832 7.59665514,0.120667887 C6.33003807,-0.216127954 4.95349763,0.155892406 3.72497901,1.18914497 C2.65072784,2.0969488 1.20610986,4.34699221 0.153718458,6.44995781 C-0.166058632,7.10810014 0.0175633693,7.88612943 0.662738631,8.24455436 C1.30978759,8.60359727 1.9593348,8.20376808 2.29285231,7.56045712 C3.58819935,4.94271917 4.63059772,3.76795056 5.45002651,3.091269 C5.84100397,2.77177644 6.35751892,2.46217145 6.9052621,2.65621529 C7.56792517,2.90216895 7.73468392,3.84272541 7.47049309,5.01872997 C7.1788214,6.31338555 6.271329,8.52696849 5.4325387,10.4921259 C4.62122925,12.4214408 1.68640006,18.7501127 1.64580336,18.8217977 C1.34726146,19.4787041 1.63768402,20.2592053 2.31471207,20.5589227 C2.48584278,20.646057 2.66821565,20.6818995 2.85683417,20.6818995 C3.36398065,20.6818995 3.8505165,20.3939236 4.07785802,19.908814 C4.15280578,19.7376352 6.58236218,14.460755 6.59547804,14.4496315 C10.0043518,7.63770387 11.876172,4.39395824 13.4550714,3.15121248 C13.8067012,2.86879836 14.6392459,2.37812698 15.0764411,2.71739472 C15.5835876,3.11784189 15.3880989,4.26047585 15.2307086,4.86856229 C14.9290439,6.05445443 14.0340428,7.99489286 13.2527124,9.80802863 C13.2527124,9.81977014 13.2452176,9.82594988 13.2452176,9.83830936 C13.2233579,9.87106198 9.24425663,18.7235398 9.21802492,18.7803934 C8.91511107,19.4490413 9.20365993,20.2264526 9.87631604,20.526788 C10.0536924,20.6009449 10.2404372,20.646057 10.4246838,20.646057 C10.9330794,20.646057 11.4183661,20.3519014 11.63509,19.8729715 C11.7631258,19.599827 14.6317511,13.3403681 15.4655449,11.3875702 C15.5317487,11.2460542 15.5935806,11.0909427 15.6622828,10.9444829 C17.9244558,6.43018264 19.4727516,4.22339741 20.7699723,3.19817851 C21.1234759,2.9200902 21.7861389,2.45475576 22.3401278,2.7915516 C22.9315905,3.15121248 22.6355468,4.37418307 22.4993917,4.88710151 C22.1683725,6.12984726 21.1809358,8.33230667 20.2540819,10.1157797 C20.1466568,10.3098235 20.0386071,10.5230246 19.9143188,10.751675 C19.0736548,12.3244188 17.8157816,14.7011469 17.4554078,16.7379893 C17.2018346,18.1939361 17.7195986,19.6177482 18.7926007,20.4588109 C19.4365268,20.9618417 20.2259765,21.2121212 21.0941213,21.2121212 C21.3845439,21.2121212 21.6793384,21.1954359 21.9822522,21.1342565 C23.2270095,20.8957185 24.6816206,19.9879147 26.0494171,18.124723 C26.2011863,18.386744 26.3891803,18.623428 26.5915392,18.8403369 C27.1186717,19.3680867 28.0380309,19.9496003 29.5282421,19.9496003 C29.7755697,19.9496003 30.0366377,19.9403307 30.3083233,19.8995444 C32.4843065,19.6301077 35.8594537,18.3082613 39.7417475,15.5094569 C38.9323117,17.2787166 38.2296765,18.7803934 38.2190589,18.8217977 C37.9074011,19.4787041 38.1971991,20.2592053 38.8748518,20.5589227 C39.0478562,20.646057 39.2339764,20.6818995 39.4275914,20.6818995 C39.9266186,20.6818995 40.4125299,20.3939236 40.6354994,19.908814 C40.7166928,19.7376352 43.1431264,14.460755 43.153744,14.4496315 C46.5657406,7.63770387 48.4419327,4.39395824 50.0177093,3.15121248 C50.3680901,2.86879836 51.1968873,2.37812698 51.6378299,2.71739472 C52.1449764,3.11784189 51.9482386,4.26047585 51.7952202,4.86856229 C51.4891836,6.05445443 50.5998035,7.99489286 49.8247188,9.80802863 C49.8141012,9.81977014 49.8009854,9.82594988 49.8009854,9.83830936 C49.7822484,9.87106198 45.80627,18.7235398 45.7769155,18.7803934 C45.4740016,19.4490413 45.7650487,20.2264526 46.438954,20.526788 C46.6144566,20.6009449 46.8012015,20.646057 46.9860726,20.646057 C47.4907208,20.646057 47.9803795,20.3519014 48.2020999,19.8729715 C48.3182689,19.599827 51.188768,13.3403681 52.0275583,11.3875702 C52.0968849,11.2460542 52.1524712,11.0909427 52.2249207,10.9444829 C54.4827218,6.43018264 56.0491299,4.22339741 57.3319857,3.19817851 C57.6804927,2.9200902 58.3481523,2.45475576 58.9015166,2.7915516 C59.4879828,3.15121248 59.1938128,4.37418307 59.0570332,4.88710151 C58.7241402,6.12984726 57.7423246,8.33230667 56.8160953,10.1157797 C56.7080456,10.3098235 56.5999959,10.5230246 56.475083,10.751675 C55.6375418,12.3244188 54.377795,14.7011469 54.016172,16.7379893 C53.7657216,18.1939361 54.2809875,19.6177482 55.3508667,20.4588109 C55.9954174,20.9618417 56.7879899,21.2121212 57.6630049,21.2121212 C57.9471818,21.2121212 58.2407272,21.1954359 58.5423919,21.1342565 C59.7890229,20.8957185 61.2430094,19.9879147 62.6083076,18.124723 C62.7638242,18.386744 62.9511936,18.623428 63.1548017,18.8403369 C63.6831834,19.3680867 64.5969214,19.9496003 66.0890063,19.9496003 C66.3338357,19.9496003 66.5967774,19.9403307 66.8772069,19.8995444 C69.0538146,19.6301077 72.4170951,18.3082613 76.2987643,15.5094569 C75.4905777,17.2787166 74.788567,18.7803934 74.7773249,18.8217977 C74.4669163,19.4787041 74.7610862,20.2592053 75.4281212,20.5589227 C75.6073713,20.646057 75.8041091,20.6818995 75.9896048,20.6818995 C76.48426,20.6818995 76.9751678,20.3939236 77.1975128,19.908814 C77.276208,19.7376352 79.7026415,14.460755 79.7157574,14.4496315 C83.1258803,7.63770387 84.9995742,4.39395824 86.5772244,3.15121248 C86.9294789,2.86879836 87.7589007,2.37812698 88.1942222,2.71739472 C88.718232,3.11784189 88.5090028,4.26047585 88.3534862,4.86856229 C88.0474495,6.05445443 87.1649397,7.99489286 86.3829848,9.80802863 C86.3761146,9.81977014 86.3761146,9.82594988 86.3667461,9.83830936 C86.3442618,9.87106198 82.3676588,18.7235398 82.3345569,18.7803934 C82.0347659,19.4490413 82.3345569,20.2264526 82.9990937,20.526788 C83.1777191,20.6009449 83.3732079,20.646057 83.5468368,20.646057 C84.0521096,20.646057 84.5430174,20.3519014 84.765987,19.8729715 C84.8846543,19.599827 87.7495322,13.3403681 88.5901962,11.3875702 C88.6526527,11.2460542 88.723853,11.0909427 88.7819375,10.9444829 C91.0441106,6.43018264 92.6073959,4.22339741 93.8921253,3.19817851 C94.2537483,2.9200902 94.9164113,2.45475576 95.4616563,2.7915516 C96.0493716,3.15121248 95.7545771,4.37418307 95.6152992,4.88710151 C95.2973958,6.12984726 94.3024643,8.33230667 93.3768595,10.1157797 C93.2669361,10.3098235 93.1601356,10.5230246 93.0370964,10.751675 C92.2020535,12.3244188 90.9398083,14.7011469 90.5831819,16.7379893 C90.3271104,18.1939361 90.8423763,19.6177482 91.9135046,20.4588109 C92.5574307,20.9618417 93.3568735,21.2121212 94.2250183,21.2121212 C94.5048232,21.2121212 94.802116,21.1954359 95.1037807,21.1342565 C96.3216817,20.9018983 97.7456891,20.026847 99.0810083,18.2384302 C99.1965527,18.4126989 99.3327078,18.5795519 99.4982175,18.7334274 C100.009736,19.2321324 100.878505,19.7728597 102.248176,19.7728597 C102.531728,19.7728597 102.842761,19.766062 103.187521,19.6987028 C104.779536,19.4020753 106.072385,18.5486532 107.197226,17.9207916 C107.837404,17.57658 108.21714,16.7559105 107.866134,16.1088917 C107.517003,15.4711426 106.735048,15.1905824 106.072385,15.5094569" id="Fill-1" fill="#BC9329"></path>
                                    <path d="M105.327078,7.42424242 C106.212687,7.42424242 106.930693,6.71051957 106.930693,5.82727913 C106.930693,4.95816516 106.212687,4.24242424 105.327078,4.24242424 C104.444227,4.24242424 103.722772,4.95816516 103.722772,5.82727913 C103.722772,6.71051957 104.444227,7.42424242 105.327078,7.42424242" id="Fill-3" fill="#BC9329"></path>
                                    <path d="M17.6078401,28.0270609 C17.3383941,27.8041706 16.9744907,27.6918193 16.5203682,27.6918193 L15.1047173,27.6918193 L15.1047173,30.3773764 L16.5203682,30.3773764 C16.9823621,30.3773764 17.34566,30.2541525 17.6145005,30.0101207 C17.879708,29.7630688 18.0141283,29.439908 18.0141283,29.0327858 C18.0141283,28.5857969 17.8778915,28.2505553 17.6078401,28.0270609 M19.029546,30.1097872 C18.8836213,30.4293237 18.6880459,30.696913 18.4361594,30.9077226 C18.1854838,31.1191362 17.8918179,31.2786025 17.5557674,31.3897456 C17.2203223,31.4978686 16.8606573,31.5540442 16.478589,31.5540442 L15.1047173,31.5540442 L15.1047173,33.9393939 L13.9009901,33.9393939 L13.9009901,26.5151515 L16.6245136,26.5151515 C17.0247469,26.5151515 17.3886503,26.5749514 17.7144075,26.6909268 C18.0383481,26.8062983 18.316271,26.9742211 18.5415158,27.1934872 C18.7703935,27.4127534 18.944171,27.6767184 19.0658758,27.9793419 C19.1857641,28.2825694 19.2475248,28.6256635 19.2475248,29.0086242 C19.2475248,29.4235989 19.1736542,29.7950829 19.029546,30.1097872" id="Fill-5" fill="#BC9329"></path>
                                    <polygon id="Fill-7" fill="#BC9329" points="26.6805885 27.6918193 22.6336634 27.6918193 22.6336634 29.6029985 26.2206108 29.6029985 26.2206108 30.7802704 22.6336634 30.7802704 22.6336634 32.7627261 26.7326733 32.7627261 26.7326733 33.9393939 21.3861386 33.9393939 21.3861386 26.5151515 26.6805885 26.5151515"></polygon>
                                    <polygon id="Fill-9" fill="#BC9329" points="35.0733965 26.5151515 36.3564356 26.5151515 36.3564356 33.9393939 35.2755058 33.9393939 31.2242789 28.6576776 31.2242789 33.9393939 29.9405941 33.9393939 29.9405941 26.5151515 31.1371072 26.5151515 35.0733965 31.6500864"></polygon>
                                    <polygon id="Fill-11" fill="#BC9329" points="42.8218592 33.9393939 41.6539662 33.9393939 41.6539662 27.7244374 39.5643564 27.7244374 39.5643564 26.5151515 44.9108911 26.5151515 44.9108911 27.7244374 42.8218592 27.7244374"></polygon>
                                    <polygon id="Fill-13" fill="#BC9329" points="49.4681215 30.8116804 49.4681215 33.9393939 48.1188119 33.9393939 48.1188119 26.5151515 49.4681215 26.5151515 49.4681215 29.6029985 53.1839857 29.6029985 53.1839857 26.5151515 54.5346535 26.5151515 54.5346535 33.9393939 53.1839857 33.9393939 53.1839857 30.8116804"></polygon>
                                    <path d="M63.7283081,29.2497533 C63.6109407,28.9373442 63.4427352,28.6669789 63.2287124,28.4322341 C63.0134343,28.2009929 62.7567325,28.0158832 62.4560964,27.8809926 C62.1548327,27.7420143 61.8303465,27.6766128 61.475734,27.6766128 C61.1217491,27.6766128 60.7953801,27.7420143 60.4997651,27.8728174 C60.2010119,28.007708 59.9487035,28.1893141 59.7365636,28.4164676 C59.525679,28.6482927 59.3593563,28.9180741 59.241989,29.2263956 C59.1208558,29.5388048 59.0606031,29.870484 59.0606031,30.2179297 C59.0606031,30.5647914 59.1208558,30.8964706 59.241989,31.2047921 C59.3593563,31.5172013 59.5275619,31.7916542 59.740957,32.0228953 C59.9562351,32.2547204 60.2129369,32.4392462 60.5142006,32.5741368 C60.8148367,32.7131151 61.1399505,32.7791006 61.4964459,32.7791006 C61.8485479,32.7791006 62.1755446,32.7131151 62.4724149,32.5817281 C62.7692852,32.4474214 63.0215936,32.2658153 63.2337334,32.0374939 C63.444618,31.8068367 63.6109407,31.5364714 63.7283081,31.2281498 C63.8488136,30.9157407 63.9090663,30.5881491 63.9090663,30.2366158 C63.9090663,29.890338 63.8488136,29.5574909 63.7283081,29.2497533 M64.9515643,31.6526759 C64.7664127,32.1040633 64.507828,32.4970565 64.174555,32.8369109 C63.8406543,33.1761814 63.444618,33.4418751 62.988329,33.6427513 C62.5307847,33.8389559 62.0274232,33.9393939 61.475734,33.9393939 C60.9215343,33.9393939 60.4188004,33.8424595 59.9625114,33.6462549 C59.5049671,33.45297 59.1126966,33.1872763 58.7850723,32.8515094 C58.4580756,32.5169105 58.2032567,32.1233334 58.018105,31.671362 C57.8342086,31.2205586 57.7425743,30.7428938 57.7425743,30.2366158 C57.7425743,29.7315057 57.8342086,29.253257 58.018105,28.8024535 C58.2032567,28.3516501 58.4618414,27.957489 58.7957421,27.6182185 C59.1296427,27.278948 59.525679,27.0126704 59.9813404,26.8123781 C60.4395123,26.6155896 60.9428738,26.5151515 61.4964459,26.5151515 C62.0481351,26.5151515 62.5514966,26.611502 63.0090409,26.8082906 C63.4653299,27.0009915 63.8569728,27.2672692 64.1852247,27.603036 C64.5122214,27.9388028 64.7664127,28.33238 64.9515643,28.7825995 C65.1354608,29.2339869 65.2277228,29.7128196 65.2277228,30.2179297 C65.2277228,30.7230397 65.1354608,31.2012885 64.9515643,31.6526759" id="Fill-15" fill="#BC9329"></path>
                                    <path d="M74.8514851,30.6593573 C74.8514851,31.2053362 74.7738927,31.6811348 74.6219957,32.0927006 C74.4674684,32.5024822 74.2504726,32.8480309 73.9729811,33.1228046 C73.6941744,33.3975783 73.3575022,33.6015769 72.9603341,33.7353953 C72.5638237,33.8721874 72.1206263,33.9393939 71.6274541,33.9393939 C71.1401999,33.9393939 70.702263,33.8721874 70.3096979,33.7353953 C69.9158177,33.6015769 69.5817758,33.3975783 69.301654,33.1263731 C69.0241624,32.8551679 68.8091393,32.5173509 68.6585574,32.1164905 C68.5086331,31.7156302 68.4356436,31.2529161 68.4356436,30.7224006 L68.4356436,26.5151515 L69.7422211,26.5151515 L69.7422211,30.671847 C69.7422211,31.354618 69.9098997,31.8732385 70.2485446,32.2271137 C70.5858744,32.5839627 71.0514289,32.7611977 71.6491536,32.7611977 C72.2376725,32.7611977 72.6999392,32.5881259 73.0385841,32.2503089 C73.3752564,31.9089234 73.5449076,31.3980347 73.5449076,30.7224006 L73.5449076,26.5151515 L74.8514851,26.5151515 L74.8514851,30.6593573 Z" id="Fill-17" fill="#BC9329"></path>
                                    <path d="M78.5320653,28.8732192 C78.5781666,28.9783485 78.6624834,29.0758427 78.7850157,29.1645272 C78.9069415,29.2532117 79.0749685,29.3348484 79.2890968,29.4129612 C79.5038317,29.4863755 79.7761931,29.563901 80.1067878,29.6490616 C80.4689254,29.7459685 80.7916344,29.8510978 81.0718816,29.9667988 C81.3521288,30.0836743 81.5868814,30.2275664 81.7712865,30.3943637 C81.9556916,30.5646849 82.0958152,30.7584987 82.1922639,30.9834401 C82.288106,31.2083816 82.3366337,31.4685619 82.3366337,31.7710289 C82.3366337,32.1157825 82.2765807,32.4229479 82.1546549,32.690176 C82.0333358,32.9579914 81.8653088,33.1870441 81.6493607,33.3691116 C81.4346258,33.5558776 81.1743963,33.6991823 80.871705,33.791978 C80.5690137,33.8888849 80.2372059,33.9393939 79.8762814,33.9393939 C79.341264,33.9393939 78.8305104,33.842487 78.3440207,33.6521972 C77.8557111,33.4660185 77.4050105,33.1752978 76.990099,32.783559 L77.7210468,31.8755708 C78.0577075,32.1780378 78.3961879,32.4106143 78.7389145,32.5697766 C79.0810344,32.73305 79.4698623,32.8140994 79.9047914,32.8140994 C80.2814874,32.8140994 80.5793259,32.73305 80.8001267,32.5662527 C81.020321,32.3994554 81.1301148,32.1780378 81.1301148,31.8955395 C81.1301148,31.767505 81.1082773,31.6471055 81.0664222,31.5460874 C81.0221407,31.4415454 80.9438899,31.3481624 80.8280301,31.2630018 C80.7121703,31.1772539 80.5538488,31.0962045 80.3530657,31.018679 C80.1504627,30.9440901 79.8878068,30.8630407 79.566311,30.7819913 C79.195681,30.6933068 78.8669062,30.5917014 78.580593,30.4830482 C78.2918534,30.3749823 78.0516415,30.2346142 77.8557111,30.071928 C77.6603873,29.905718 77.5123779,29.7077931 77.4104698,29.4716926 C77.3085618,29.2379415 77.2563945,28.9554432 77.2563945,28.6171501 C77.2563945,28.2994129 77.3164475,28.0122161 77.4329139,27.7567343 C77.5505935,27.4959667 77.7125545,27.2751365 77.9175839,27.0889578 C78.1232198,26.9068903 78.3719241,26.7629982 78.6606636,26.6625675 C78.9506164,26.5615494 79.2654395,26.5151515 79.6075595,26.5151515 C80.1170999,26.5151515 80.5714401,26.5885658 80.9778593,26.7436169 C81.3824586,26.8992552 81.7634007,27.1236093 82.1176526,27.4190285 L81.467382,28.3804623 C81.1501324,28.140838 80.8377356,27.9546593 80.5271586,27.8266248 C80.219008,27.7021141 79.9047914,27.6363349 79.5875419,27.6363349 C79.2326834,27.6363349 78.9572889,27.7214955 78.7589321,27.8877055 C78.5605753,28.058614 78.4623068,28.2647614 78.4623068,28.504973 C78.4623068,28.6482777 78.4865706,28.7722011 78.5320653,28.8732192" id="Fill-19" fill="#BC9329"></path>
                                    <polygon id="Fill-21" fill="#BC9329" points="90.8390043 27.6918193 86.7920792 27.6918193 86.7920792 29.6029985 90.3796542 29.6029985 90.3796542 30.7802704 86.7920792 30.7802704 86.7920792 32.7627261 90.8910891 32.7627261 90.8910891 33.9393939 85.5445545 33.9393939 85.5445545 26.5151515 90.8390043 26.5151515"></polygon>
                                </g>
                                <circle id="cir_2" fill="#23B0F0" fill-rule="evenodd" cx="137.5" cy="374.5" r="108.5"></circle>
                                <circle id="cir_1" fill="#56EAFF" fill-rule="evenodd" cx="137" cy="375" r="102"></circle>
                                <path d="M85.4475,407.37 L85.4475,398.43 L88.4325,398.43 L88.4325,397.29 L81.1575,397.29 L81.1575,398.43 L84.1425,398.43 L84.1425,407.37 L85.4475,407.37 Z M92.7375,407.505 C94.7775,407.505 96.1575,406.08 96.1575,403.74 L96.1575,403.5 C96.1575,401.16 94.8825,399.765 92.7525,399.765 C90.7125,399.765 89.3475,401.205 89.3475,403.545 L89.3475,403.8 C89.3475,406.125 90.5925,407.505 92.7375,407.505 Z M92.7675,406.455 C91.6125,406.455 90.6675,405.84 90.6675,403.83 L90.6675,403.41 C90.6675,401.745 91.4175,400.815 92.7225,400.815 C93.8775,400.815 94.8225,401.46 94.8225,403.47 L94.8225,403.875 C94.8225,405.54 94.0725,406.455 92.7675,406.455 Z M99.9525,407.505 C100.8525,407.505 101.6175,407.16 102.2325,406.725 L102.3075,406.725 L102.4575,407.37 L103.5375,407.37 L103.5375,399.915 L102.2475,399.915 L102.2475,405.87 C101.7225,406.14 101.0925,406.41 100.3275,406.41 C99.2475,406.41 98.9325,406.02 98.9325,405.105 L98.9325,399.915 L97.6725,399.915 L97.6725,405.315 C97.6725,406.755 98.4675,407.505 99.9525,407.505 Z M108.5775,407.505 C109.6125,407.505 110.2875,407.235 110.7825,406.92 L110.7825,405.9 C110.3925,406.08 109.7175,406.425 108.7125,406.425 C107.2125,406.425 106.4325,405.63 106.4325,403.77 L106.4325,403.38 C106.4325,401.745 107.2425,400.86 108.5625,400.86 C109.5525,400.86 110.0175,401.04 110.6775,401.325 L110.6775,400.26 C110.1825,399.96 109.6125,399.765 108.6525,399.765 C106.6875,399.765 105.1125,400.935 105.1125,403.56 L105.1125,403.815 C105.1125,406.305 106.4625,407.505 108.5775,407.505 Z M113.4825,407.37 L113.4825,401.37 C114.0225,401.115 114.7875,400.875 115.4475,400.875 C116.6175,400.875 116.9025,401.235 116.9025,402.09 L116.9025,407.37 L118.1625,407.37 L118.1625,401.82 C118.1625,400.38 117.4725,399.765 116.0025,399.765 C115.0875,399.765 114.1575,400.11 113.5575,400.53 L113.4825,400.53 L113.4825,396.63 L112.2075,396.63 L112.2075,407.37 L113.4825,407.37 Z M126.5025,407.445 C127.1775,407.445 127.4775,407.295 127.7925,407.16 L127.7925,406.29 C127.4925,406.365 127.1475,406.41 126.8475,406.41 C126.0075,406.41 125.7675,406.14 125.7675,405.435 L125.7675,400.98 L127.6425,400.98 L127.6425,399.915 L125.7675,399.915 L125.7675,398.145 L124.4925,398.145 L124.4925,399.915 L123.4275,399.915 L123.4275,400.98 L124.4925,400.98 L124.4925,405.615 C124.4925,406.935 125.3175,407.445 126.5025,407.445 Z M132.1875,407.505 C134.2275,407.505 135.6075,406.08 135.6075,403.74 L135.6075,403.5 C135.6075,401.16 134.3325,399.765 132.2025,399.765 C130.1625,399.765 128.7975,401.205 128.7975,403.545 L128.7975,403.8 C128.7975,406.125 130.0425,407.505 132.1875,407.505 Z M132.2175,406.455 C131.0625,406.455 130.1175,405.84 130.1175,403.83 L130.1175,403.41 C130.1175,401.745 130.8675,400.815 132.1725,400.815 C133.3275,400.815 134.2725,401.46 134.2725,403.47 L134.2725,403.875 C134.2725,405.54 133.5225,406.455 132.2175,406.455 Z M143.7375,409.575 C146.2875,409.575 147.3225,408.705 147.3225,407.37 C147.3225,405.93 146.3175,405.48 144.9525,405.48 L142.9125,405.48 C142.4325,405.48 142.2075,405.375 142.2075,405 C142.2075,404.775 142.3275,404.58 142.5225,404.43 C142.8975,404.55 143.3025,404.61 143.7525,404.61 C145.3425,404.61 146.5875,403.86 146.5875,402.27 L146.5875,402.12 C146.5875,401.61 146.4375,401.19 146.1225,400.86 L147.3975,400.86 L147.3975,399.9 L144.8625,399.9 C144.5175,399.81 144.1575,399.765 143.7675,399.765 C142.1175,399.765 140.9325,400.65 140.9325,402.18 L140.9325,402.33 C140.9325,403.17 141.2925,403.77 141.8625,404.13 C141.2625,404.565 141.0075,405.015 141.0075,405.48 C141.0075,405.99 141.3225,406.215 141.7575,406.38 L141.7575,406.455 C140.9925,406.68 140.3625,407.16 140.3625,407.955 C140.3625,409.065 141.4725,409.575 143.7375,409.575 Z M143.7525,403.65 C142.8075,403.65 142.2075,403.23 142.2075,402.3 L142.2075,402.075 C142.2075,401.235 142.7775,400.725 143.7525,400.725 C144.6975,400.725 145.3275,401.16 145.3275,402.105 L145.3275,402.33 C145.3275,403.23 144.7425,403.65 143.7525,403.65 Z M143.7075,408.57 C142.3125,408.57 141.7125,408.45 141.7125,407.775 C141.7125,407.175 142.1025,406.86 142.6125,406.68 L144.7125,406.68 C145.6725,406.68 145.9875,406.965 145.9875,407.565 C145.9875,408.315 145.3875,408.57 143.7075,408.57 Z M151.7025,407.505 C152.9325,407.505 153.7875,407.115 154.2225,406.785 L154.2225,405.84 C153.5475,406.2 152.9025,406.41 151.9125,406.41 C150.4275,406.41 149.5575,405.78 149.4675,404.01 L154.4475,404.01 L154.4475,403.29 C154.4475,400.95 153.4725,399.765 151.4325,399.765 C149.6925,399.765 148.1475,400.935 148.1475,403.53 L148.1475,403.755 C148.1475,406.05 149.3475,407.505 151.7025,407.505 Z M153.0975,402.975 L149.4675,402.975 C149.5875,401.265 150.5325,400.8 151.3725,400.8 C152.4975,400.8 153.0975,401.415 153.0975,402.975 Z M158.4975,407.445 C159.1725,407.445 159.4725,407.295 159.7875,407.16 L159.7875,406.29 C159.4875,406.365 159.1425,406.41 158.8425,406.41 C158.0025,406.41 157.7625,406.14 157.7625,405.435 L157.7625,400.98 L159.6375,400.98 L159.6375,399.915 L157.7625,399.915 L157.7625,398.145 L156.4875,398.145 L156.4875,399.915 L155.4225,399.915 L155.4225,400.98 L156.4875,400.98 L156.4875,405.615 C156.4875,406.935 157.3125,407.445 158.4975,407.445 Z M168.0975,408.045 L171.1125,399.915 L169.8675,399.915 L167.9325,405.195 L167.8725,405.195 L165.7725,399.915 L164.3925,399.915 L167.2575,406.89 L166.9125,407.865 C166.6875,408.405 166.1325,408.555 165.4425,408.555 C165.1725,408.555 164.9025,408.525 164.7225,408.495 L164.7225,409.395 C164.9325,409.5 165.3225,409.605 165.6825,409.605 C166.9275,409.605 167.5875,409.47 168.0975,408.045 Z M175.2825,407.505 C177.3225,407.505 178.7025,406.08 178.7025,403.74 L178.7025,403.5 C178.7025,401.16 177.4275,399.765 175.2975,399.765 C173.2575,399.765 171.8925,401.205 171.8925,403.545 L171.8925,403.8 C171.8925,406.125 173.1375,407.505 175.2825,407.505 Z M175.3125,406.455 C174.1575,406.455 173.2125,405.84 173.2125,403.83 L173.2125,403.41 C173.2125,401.745 173.9625,400.815 175.2675,400.815 C176.4225,400.815 177.3675,401.46 177.3675,403.47 L177.3675,403.875 C177.3675,405.54 176.6175,406.455 175.3125,406.455 Z M182.4975,407.505 C183.3975,407.505 184.1625,407.16 184.7775,406.725 L184.8525,406.725 L185.0025,407.37 L186.0825,407.37 L186.0825,399.915 L184.7925,399.915 L184.7925,405.87 C184.2675,406.14 183.6375,406.41 182.8725,406.41 C181.7925,406.41 181.4775,406.02 181.4775,405.105 L181.4775,399.915 L180.2175,399.915 L180.2175,405.315 C180.2175,406.755 181.0125,407.505 182.4975,407.505 Z M189.3975,407.37 L189.3975,401.55 C189.9225,401.205 190.6275,400.98 191.3325,400.98 C191.4525,400.98 191.6925,400.995 191.9025,401.025 L191.9025,399.885 C191.8275,399.855 191.6175,399.825 191.4375,399.825 C190.6275,399.825 189.8175,400.245 189.4125,400.74 L189.3375,400.74 L189.3375,399.915 L188.1225,399.915 L188.1225,407.37 L189.3975,407.37 Z M104.28,427.37 L104.28,419.045 L104.31,419.045 L107.1,427.37 L108.33,427.37 L111.12,419.045 L111.165,419.045 L111.165,427.37 L112.5,427.37 L112.5,417.29 L110.565,417.29 L107.82,425.63 L107.775,425.63 L105,417.29 L103.065,417.29 L103.065,427.37 L104.28,427.37 Z M117.66,427.505 C119.7,427.505 121.08,426.08 121.08,423.74 L121.08,423.5 C121.08,421.16 119.805,419.765 117.675,419.765 C115.635,419.765 114.27,421.205 114.27,423.545 L114.27,423.8 C114.27,426.125 115.515,427.505 117.66,427.505 Z M117.69,426.455 C116.535,426.455 115.59,425.84 115.59,423.83 L115.59,423.41 C115.59,421.745 116.34,420.815 117.645,420.815 C118.8,420.815 119.745,421.46 119.745,423.47 L119.745,423.875 C119.745,425.54 118.995,426.455 117.69,426.455 Z M125.385,427.55 C127.845,427.55 129.12,426.095 129.12,423.62 L129.12,423.395 C129.12,420.62 127.62,419.765 126.225,419.765 C125.235,419.765 124.56,420.02 123.99,420.365 L123.915,420.365 L123.915,416.63 L122.64,416.63 L122.64,427.16 C123.27,427.385 124.53,427.55 125.385,427.55 Z M125.475,426.47 C124.725,426.47 124.23,426.35 123.915,426.23 L123.915,421.28 C124.26,421.13 124.935,420.86 125.625,420.86 C127.125,420.86 127.815,421.52 127.815,423.485 L127.815,423.815 C127.815,425.9 126.69,426.47 125.475,426.47 Z M132.075,418.445 L132.075,417.11 L130.77,417.11 L130.77,418.445 L132.075,418.445 Z M132.06,427.37 L132.06,419.915 L130.77,419.915 L130.77,427.37 L132.06,427.37 Z M135.465,427.37 L135.465,416.63 L134.175,416.63 L134.175,427.37 L135.465,427.37 Z M140.64,427.505 C141.87,427.505 142.725,427.115 143.16,426.785 L143.16,425.84 C142.485,426.2 141.84,426.41 140.85,426.41 C139.365,426.41 138.495,425.78 138.405,424.01 L143.385,424.01 L143.385,423.29 C143.385,420.95 142.41,419.765 140.37,419.765 C138.63,419.765 137.085,420.935 137.085,423.53 L137.085,423.755 C137.085,426.05 138.285,427.505 140.64,427.505 Z M142.035,422.975 L138.405,422.975 C138.525,421.265 139.47,420.8 140.31,420.8 C141.435,420.8 142.035,421.415 142.035,422.975 Z M156.315,427.37 L152.04,422.075 L156.12,417.29 L154.71,417.29 L150.555,422.225 L154.755,427.37 L156.315,427.37 Z M150.435,427.37 L150.435,417.29 L149.115,417.29 L149.115,427.37 L150.435,427.37 Z M160.71,427.505 C161.94,427.505 162.795,427.115 163.23,426.785 L163.23,425.84 C162.555,426.2 161.91,426.41 160.92,426.41 C159.435,426.41 158.565,425.78 158.475,424.01 L163.455,424.01 L163.455,423.29 C163.455,420.95 162.48,419.765 160.44,419.765 C158.7,419.765 157.155,420.935 157.155,423.53 L157.155,423.755 C157.155,426.05 158.355,427.505 160.71,427.505 Z M162.105,422.975 L158.475,422.975 C158.595,421.265 159.54,420.8 160.38,420.8 C161.505,420.8 162.105,421.415 162.105,422.975 Z M167.925,428.045 L170.94,419.915 L169.695,419.915 L167.76,425.195 L167.7,425.195 L165.6,419.915 L164.22,419.915 L167.085,426.89 L166.74,427.865 C166.515,428.405 165.96,428.555 165.27,428.555 C165,428.555 164.73,428.525 164.55,428.495 L164.55,429.395 C164.76,429.5 165.15,429.605 165.51,429.605 C166.755,429.605 167.415,429.47 167.925,428.045 Z" id="TouchtogetyourMobileKey" fill="#FFFFFF" fill-rule="nonzero"></path>
                                <g id="Group" stroke-width="1" fill="none" fill-rule="evenodd" transform="translate(102.000000, 310.000000)">
                                    <g id="ic/ic_key01" filter="url(#filter-17)" fill="url(#linearGradient-18)">
                                        <path d="M35,0.897435897 C36.2126306,0.897435897 37.2380158,1.69912904 37.575054,2.80141383 C47.2619139,3.63324257 54.7435897,9.0933248 54.7435897,15.7051282 C54.7435897,22.5886172 46.6344224,28.2237896 36.3689676,28.6871563 L36.3692132,30.8217692 L37.7159244,30.8223822 C39.450665,30.8223822 40.8569501,32.2286673 40.8569501,33.9634078 C40.8569501,35.6981484 39.450665,37.1044335 37.7159244,37.1044335 L36.3692132,37.1037692 L36.3697706,69.0537373 L31.8825911,69.0537373 L31.8822132,63.2427692 L28.7644615,63.2427692 L28.7651822,69.1025641 L27.1592443,69.1025641 L27.1592443,50.8413549 L28.7651822,50.8413549 L28.7644615,56.6027692 L31.8822132,56.6027692 L31.8822132,37.1037692 L31.4338731,37.1044335 C29.6991326,37.1044335 28.2928475,35.6981484 28.2928475,33.9634078 C28.2928475,32.2286673 29.6991326,30.8223822 31.4338731,30.8223822 L31.8822132,30.8217692 L31.8818559,28.556579 C22.4593732,27.5712731 15.2564103,22.1926089 15.2564103,15.7051282 C15.2564103,9.0933248 22.7380861,3.63324257 32.4259689,2.8018951 C32.7619842,1.69912904 33.7873694,0.897435897 35,0.897435897 Z M26.3562753,50.8413549 L26.3562753,69.1025641 L21.5384615,69.1025641 L21.5384615,64.1222343 L23.9473684,64.1222343 L23.9473684,55.8216847 L21.5384615,55.8216847 L21.5384615,50.8413549 L26.3562753,50.8413549 Z M40.5278055,8.26168929 C37.9525181,8.26168929 35.7160832,9.76549904 34.5929197,11.9721553 C33.468066,9.76549904 31.2316311,8.26168929 28.6563437,8.26168929 C24.9505369,8.26168929 21.9463869,11.3756063 21.9463869,15.2168175 C21.9463869,19.0580287 24.9505369,22.1719457 28.6563437,22.1719457 C31.2316311,22.1719457 33.468066,20.668136 34.5912295,18.4614797 C35.7160832,20.668136 37.9525181,22.1719457 40.5278055,22.1719457 C44.2336123,22.1719457 47.2377622,19.0580287 47.2377622,15.2168175 C47.2377622,11.3756063 44.2336123,8.26168929 40.5278055,8.26168929 Z" id="ic_key01" transform="translate(35.000000, 35.000000) scale(-1, 1) translate(-35.000000, -35.000000) "></path>
                                    </g>
                                </g>
                            </g>
                        </g>
                    </g>
                    <path d="M231.097955,7.1436283 C235.207761,7.1436283 238.547439,10.4042006 238.616932,14.4520835 L238.616932,14.5788333 L238.616932,28.0642542 C238.616932,36.3143951 231.921152,43.0180766 223.610169,43.1513252 L223.357832,43.1533467 L99.5158659,43.1533467 C91.1727716,43.1533467 84.3935606,36.5321666 84.2588107,28.3137799 L84.2567664,28.0642542 L84.2567664,14.5788333 C84.2567664,10.5148165 87.5540752,7.21234711 91.6475651,7.14468689 L91.775743,7.1436283 L231.097955,7.1436283 Z" id="Path" fill="url(#linearGradient-19)"></path>
                    <g id="sensor-camera" opacity="0.6" transform="translate(141.165099, 20.774838)">
                        <g id="Group" opacity="0.75" transform="translate(55.286592, 0.000000)">
                            <g id="Oval">
                                <use fill="black" fill-opacity="1" filter="url(#filter-21)" xlink:href="#path-20"></use>
                                <use fill="#9092A5" fill-rule="evenodd" xlink:href="#path-20"></use>
                                <use fill="black" fill-opacity="1" filter="url(#filter-22)" xlink:href="#path-20"></use>
                            </g>
                            <g id="Oval">
                                <use fill="black" fill-opacity="1" filter="url(#filter-24)" xlink:href="#path-23"></use>
                                <use fill="#9092A5" fill-rule="evenodd" xlink:href="#path-23"></use>
                                <use fill="black" fill-opacity="1" filter="url(#filter-25)" xlink:href="#path-23"></use>
                            </g>
                        </g>
                        <g id="Rectangle-2">
                            <use fill="black" fill-opacity="1" filter="url(#filter-27)" xlink:href="#path-26"></use>
                            <use fill="#9092A5" fill-rule="evenodd" xlink:href="#path-26"></use>
                            <use fill="black" fill-opacity="1" filter="url(#filter-28)" xlink:href="#path-26"></use>
                        </g>
                    </g>
                </g>
                <rect id="Rectangle" fill="#FFFFFF" x="81" y="7" width="165" height="7"></rect>
            </g>
        </g>
    </g>
</svg>