<?xml version="1.0" encoding="UTF-8"?>
<svg width="90px" height="117px" viewBox="0 0 90 117" version="1.1" xmlns="http://www.w3.org/2000/svg" xmlns:xlink="http://www.w3.org/1999/xlink">
    <title>Group</title>
    <g id="Page-1" stroke="none" stroke-width="1" fill="none" fill-rule="evenodd">
        <g id="16GRID-app-detail-개발" transform="translate(-504.000000, -375.000000)" fill="#BC9329">
            <g id="Group" transform="translate(504.000000, 375.000000)">
                <path d="M88.4247739,84.0979899 L86.8160804,84.0979899 L86.8160804,44.8706533 C86.8160804,21.7411055 67.9992965,2.92386935 44.870201,2.92386935 C21.7406533,2.92386935 2.92296482,21.7424623 2.92296482,44.8738191 L2.92296482,84.0979899 L1.31472362,84.0979899 L1.31472362,44.8706533 C1.31472362,20.8542211 20.8533166,1.31562814 44.8697487,1.31562814 C68.8861809,1.31562814 88.4247739,20.8555779 88.4247739,44.8738191 L88.4247739,84.0979899 Z M4.2381407,84.0979899 L4.2381407,44.8738191 C4.2381407,22.4678894 22.4656281,4.23949749 44.870201,4.23949749 C67.2738693,4.23949749 85.5009045,22.4665327 85.5009045,44.8706533 L85.5009045,84.0979899 L4.2381407,84.0979899 Z M4.2381407,112.239045 L85.5009045,112.239045 L85.5009045,85.4140704 L4.2381407,85.4140704 L4.2381407,112.239045 Z M88.4247739,115.16201 L1.31472362,115.16201 L1.31472362,85.4136181 L2.92296482,85.4136181 L2.92296482,113.554673 L86.8160804,113.554673 L86.8160804,85.4136181 L88.4247739,85.4136181 L88.4247739,115.16201 Z M44.8697487,1.28540394e-14 C20.1283417,1.28540394e-14 -1.28540394e-14,20.1301508 -1.28540394e-14,44.8738191 L-1.28540394e-14,116.477638 L89.7399497,116.477638 L89.7399497,44.8706533 C89.7399497,20.128794 69.6111558,1.28540394e-14 44.8697487,1.28540394e-14 L44.8697487,1.28540394e-14 Z" id="Fill-23"></path>
                <polygon id="Fill-25" points="16.2365427 69.9687588 16.6639296 69.9687588 16.6639296 75.1566482 14.6821206 75.1566482 14.6821206 71.8605678 15.1185528 71.8605678 15.1185528 71.4155427 12.4470452 71.4155427 12.4470452 71.8605678 12.8658392 71.8605678 12.8658392 75.1566482 11.1662412 75.1566482 11.1662412 69.9687588 11.5854874 69.9687588 11.5854874 69.538206 8.59830151 69.538206 8.59830151 69.9687588 9.03428141 69.9687588 9.03428141 77.3935327 9.5159397 77.3935327 9.5159397 77.0407688 18.3146834 77.0407688 18.3146834 77.3935327 18.7877487 77.3935327 18.7877487 69.9687588 19.206995 69.9687588 19.206995 69.538206 16.2365427 69.538206"></polygon>
                <path d="M15.2865226,61.5564724 L15.2865226,64.2510452 L11.0682814,62.9286332 L15.2865226,61.5564724 Z M18.7874774,60.962201 L18.7874774,58.0048643 L18.331598,58.0048643 L18.331598,58.3992362 L9.48988945,61.1878794 L9.48988945,60.8984322 L9.03401005,60.8984322 L9.03401005,64.7453668 L9.48988945,64.7453668 L9.48988945,64.4554673 L18.331598,67.2382312 L18.331598,67.6316985 L18.7874774,67.6316985 L18.7874774,64.9208442 L18.331598,64.9208442 L18.331598,65.2084824 L16.7604422,64.6956181 L16.7604422,61.1340603 L18.331598,60.6691357 L18.331598,60.962201 L18.7874774,60.962201 Z" id="Fill-27"></path>
                <polygon id="Fill-29" points="11.5772111 55.621402 11.1579648 55.621402 11.1579648 52.9250201 18.3317337 52.9182362 18.3317337 53.271 18.7876131 53.271 18.7876131 50.3986884 18.3317337 50.3986884 18.3317337 50.7519045 11.1579648 50.7519045 11.1579648 48.0690905 11.5939447 48.0690905 11.5939447 47.6385377 8.6148995 47.6385377 8.6148995 48.0690905 9.03414573 48.0690905 9.03414573 55.6241156 8.6148995 55.6304472 8.6148995 56.0659749 11.5772111 56.0659749"></polygon>
                <path d="M18.3823417,31.7551206 C19.0743015,32.0979347 19.6043518,32.5506482 19.9571156,33.100598 C20.3211859,33.6650201 20.3890251,34.159794 20.1651558,34.6134121 L19.0299799,36.9095427 L14.3056583,34.5826583 L15.3567136,32.4565779 C15.6217387,31.9188392 15.9907839,31.589593 16.4851055,31.449392 C17.0214874,31.2965276 17.6600804,31.399191 18.3823417,31.7551206 M19.5134472,29.7959246 L19.5134472,29.7950201 C18.1747538,29.1333618 16.8912362,28.9786884 15.7022412,29.3355226 C14.5828945,29.6670302 13.7471156,30.3775327 13.2188744,31.4471307 L11.0701809,35.7933618 L11.5016382,36.0068291 L11.655407,35.6970302 L19.5428442,39.5959749 L19.3895276,39.9057739 L19.8137487,40.1160754 L22.0945025,35.5034623 C22.5824925,34.5157236 22.5811357,33.4556231 22.0908844,32.3534623 C21.6047035,31.2612513 20.7372663,30.400598 19.5134472,29.7959246" id="Fill-31"></path>
                <path d="M25.5231407,21.1457487 C25.7117337,21.3578593 25.7818342,21.5907739 25.7375126,21.857608 C25.6904774,22.1380101 25.5466583,22.3817789 25.2974623,22.6033869 L23.2030402,24.4635377 L21.8919347,22.9887136 L24.2762563,20.8707739 C24.4169095,20.746402 24.5932915,20.7007236 24.815804,20.7387136 C25.0541457,20.777608 25.2644472,20.8861508 25.4580151,21.0715779 L25.5656533,20.9594171 L25.4657035,21.0815276 L25.5231407,21.1457487 Z M26.6565075,28.3520804 L24.5055528,25.9302211 L25.6963568,24.8719296 L29.2321357,26.0640905 L29.0471608,26.227809 L29.3492714,26.5697186 L31.5766583,24.5910754 L31.2736432,24.2509749 L30.9557035,24.5327337 L27.2869598,23.2953467 L27.3516332,23.2012764 C27.7604774,22.6061005 27.9382161,21.9824322 27.8807789,21.3483618 C27.8287688,20.7658492 27.5786683,20.2186131 27.1377136,19.7224824 C26.5886683,19.1037889 26.0034422,18.7202714 25.3996734,18.584593 C24.8777638,18.4624824 24.3296231,18.527608 23.7724372,18.7731859 C23.3382663,18.9631357 22.875603,19.2742915 22.3971106,19.6994171 L18.5976633,23.0732864 L18.8997739,23.4156482 L19.1593719,23.184995 L25.0310804,29.7956985 L24.7728392,30.0258995 L25.075402,30.366 L27.223191,28.4583618 L26.9201759,28.1182613 L26.6565075,28.3520804 Z" id="Fill-33"></path>
                <polygon id="Fill-35" points="30.2051759 15.1104573 33.8115075 23.1837739 33.4949246 23.3253317 33.6817085 23.7409598 36.3179397 22.5632714 36.131608 22.147191 35.8154774 22.2887487 32.209598 14.2154322 32.5243719 14.0738744 32.339397 13.6582462 29.7036181 14.8359347 29.8899497 15.2520151"></polygon>
                <polygon id="Fill-37" points="37.9430955 12.1941407 38.7096784 21.0028342 38.3578191 21.0326834 38.3976181 21.487206 41.0772663 21.2542915 41.0370151 20.7997688 40.685608 20.8309749 40.1591759 14.7774573 45.0182714 20.4533367 44.8124925 20.4709749 44.8527437 20.9254975 47.4405829 20.7007236 47.4003317 20.246201 47.0561608 20.2765025 46.2895779 11.467809 46.6337487 11.4375075 46.5953065 10.9838894 43.9093266 11.216804 43.9473166 11.6713266 44.2928442 11.6414774 44.7410352 16.8673568 40.5639497 11.966201 40.7624925 11.9490151 40.7240503 11.4944925 37.5518894 11.7699196 37.5921407 12.2244422"></polygon>
                <polygon id="Fill-39" points="58.0247638 14.2602513 58.1699397 14.3145226 58.1708442 14.3154271 53.8861206 16.4116583 55.120794 13.1576382 55.4437085 13.280201 55.6056181 12.8541709 52.9205427 11.8356784 52.7586332 12.2621608 53.0878794 12.3869849 49.9518995 20.6538693 49.6217487 20.5281407 49.4602915 20.9541709 52.1458191 21.9735678 52.3077286 21.5479899 51.9843618 21.4249749 52.8160704 19.2324121 55.003206 18.1614573 55.5775779 22.7876382 55.3433065 22.698995 55.181397 23.1259296 58.0849146 24.2276382 58.2468241 23.801608 57.852 23.651005 57.0121508 17.1633166 60.7867236 15.3076884 61.1657186 15.4515075 61.3271759 15.0250251 58.1862211 13.8337688"></polygon>
                <polygon id="Fill-41" points="70.2532764 33.829191 69.9023216 34.0725075 66.9490553 29.8072312 68.5785528 28.6792915 70.4554372 31.3887889 70.096794 31.6375327 70.3491558 32.0025075 72.5457889 30.4824573 72.2925226 30.1170302 71.9478995 30.3558241 70.0719196 27.6454221 71.469407 26.6780352 74.4222211 30.9433116 74.0780503 31.1821055 74.3227236 31.5357739 76.779407 29.8352714 76.5338291 29.4811508 76.1751859 29.7298945 71.9492563 23.6248191 71.5530754 23.8984372 71.7538794 24.1892412 64.5195075 29.1980352 64.3182513 28.9067789 63.9302111 29.1772312 68.1561407 35.281402 67.8119698 35.5197437 68.0557387 35.8743166 70.4997588 34.1819548"></polygon>
                <polygon id="Fill-43" points="71.3581055 43.6282915 70.9153417 43.7386432 71.5485075 46.2572864 71.9912714 46.1469347 71.9066985 45.8113568 80.4811206 43.6563317 80.5652412 43.9914573 81.008005 43.8792965 80.3504171 41.2647739 79.9090101 41.3769347 79.9931307 41.7120603 74.9047387 42.9838191 79.0804673 38.0822111 79.1293116 38.2748744 79.5720754 38.1645226 78.7955427 35.0782915 78.3536834 35.1886432 78.4391608 35.5305528 69.8647387 37.6860302 69.7783568 37.3441206 69.335593 37.4549246 69.9913719 40.0635678 70.4341357 39.9509548 70.348206 39.6094975 76.2398141 38.128794 71.4078543 43.8268342"></polygon>
                <path d="M81.0982764,54.9209397 L81.0982764,52.0549598 L80.642397,52.0549598 L80.642397,52.4009397 L74.8272211,52.4009397 C74.2347588,52.4009397 73.8268191,52.3281256 73.6142563,52.1843065 C73.4188794,52.051794 73.3234523,51.8270201 73.3234523,51.4977739 C73.3234523,51.3503367 73.3533015,51.164005 73.4116432,50.9455628 C73.4880754,50.6701357 73.5794322,50.4286281 73.6825477,50.2269196 L74.1605879,49.2871206 L74.6001859,49.431392 L74.7770201,48.9945075 L72.021392,48.1003869 L71.7830503,48.4924975 L72.1995829,48.6489799 L71.6568693,49.8976734 C71.5252613,50.203402 71.4180754,50.4955628 71.3380251,50.7655628 C71.2575226,51.0405377 71.2159146,51.3033015 71.2159146,51.5470704 C71.2159146,52.5501859 71.5858643,53.3285276 72.3149095,53.8599347 C72.954407,54.3293819 73.8168693,54.5677236 74.8787789,54.5677236 L80.642397,54.5677236 L80.642397,54.9209397 L81.0982764,54.9209397 Z" id="Fill-45"></path>
                <path d="M74.1041005,59.8640201 C74.6938492,59.3859799 75.423799,59.1435678 76.2726935,59.1435678 C77.1075678,59.1435678 77.8135477,59.3968342 78.3716382,59.8979397 C78.9328945,60.4008543 79.205608,60.9896985 79.205608,61.6988442 C79.205608,62.4174874 78.9473668,63.0081407 78.4164121,63.5042714 C77.8610352,64.0243719 77.1396784,64.2884925 76.2726935,64.2884925 C75.323397,64.2884925 74.5631457,64.0469849 74.013196,63.5716583 C73.462794,63.0945226 73.194603,62.4817085 73.194603,61.6988442 C73.194603,60.959397 73.492191,60.3596985 74.1041005,59.8640201 M76.2726935,56.8845226 C74.7010854,56.8845226 73.4284221,57.3951256 72.4899799,58.401407 C71.6447035,59.308191 71.2159598,60.4166834 71.2159598,61.6988442 C71.2159598,62.9760302 71.6709347,64.0967337 72.5682211,65.0311055 C73.5292764,66.0319598 74.7757085,66.5398492 76.2726935,66.5398492 C77.6846533,66.5398492 78.8881206,66.0319598 79.8491759,65.0311055 C80.7577688,64.0836181 81.2181709,62.9620101 81.2181709,61.6988442 C81.2181709,60.4347739 80.7663618,59.320402 79.8749548,58.3864824 C78.9247538,57.3896985 77.7131457,56.8845226 76.2726935,56.8845226" id="Fill-47"></path>
                <polygon id="Fill-49" points="80.6424874 68.8491859 75.0018844 71.9118995 71.8007789 71.9118995 71.8007789 71.5595879 71.3444472 71.5595879 71.3444472 74.3545628 71.8007789 74.3545628 71.8007789 74.0022513 75.0955025 74.0022513 80.6424874 77.030593 80.6424874 77.4466734 81.0983668 77.4466734 81.0983668 74.4676281 80.6424874 74.4676281 80.6424874 74.7159196 77.4278141 72.9819497 80.6424874 71.3334573 80.6424874 71.5880804 81.0983668 71.5880804 81.0983668 68.4326533 80.6424874 68.4326533"></polygon>
                <path d="M31.1562814,95.341794 C31.790804,94.9202864 32.4646734,94.7999849 32.6121106,95.1075226 C32.778995,95.481995 31.9590452,96.0482261 31.4760302,96.2096834 C30.9875879,96.3738543 30.4213568,96.3498844 30.1613065,96.3014925 C30.5127136,95.7818442 31.0301005,95.4281759 31.1562814,95.341794 M53.7734171,95.341794 C54.4052261,94.9202864 55.0822613,94.7999849 55.2251759,95.1075226 C55.4029146,95.481995 54.5757286,96.0482261 54.0990452,96.2096834 C53.6096985,96.3738543 53.0353266,96.3498844 52.7784422,96.3014925 C53.1271357,95.7818442 53.6472362,95.4281759 53.7734171,95.341794 M77.6672864,98.2502864 C77.010603,98.564608 76.4072864,99.1493819 75.5977387,99.2868693 C75.3200503,99.334809 74.9600503,99.2999849 74.7601508,99.1000854 C74.5855779,98.9255126 74.530402,98.5994322 74.5688442,98.3692312 C74.6570352,97.7749598 75.2657789,96.7365678 76.1834171,95.5891809 C76.4674372,95.2332513 76.4140704,94.7145075 76.0558794,94.431392 C75.700402,94.1473719 75.1807538,94.2007387 74.8976382,94.5580251 C74.5412563,95.0035025 74.1432663,95.5353618 73.8013568,96.0902864 L73.8013568,96.0957136 C73.7945729,96.1038543 73.7945729,96.1088291 73.7882412,96.1147085 C73.5051256,96.5728492 73.2640704,97.0436533 73.1084925,97.4895829 C71.9611055,99.891995 70.7282412,100.387221 70.5500503,100.428377 C70.3700503,100.469985 69.999196,100.469985 69.7228643,100.230739 C69.4049246,99.9562161 69.4275377,99.6504874 69.4944724,99.341593 C69.6988945,98.3108894 70.5355779,96.9957136 71.0018593,96.1038543 C71.0782915,95.9568693 71.1520101,95.821191 71.2189447,95.6922965 C71.8516583,94.4630503 72.5164824,92.9235528 72.7453266,92.0289799 C73.1663819,90.4388291 72.6539698,89.0395327 71.539598,88.7066683 C71.5305528,88.6998844 71.5287437,88.6998844 71.5151759,88.6998844 C70.7372864,88.4606382 69.9101005,88.6709397 69.1263317,89.2968693 C68.8486432,89.5148593 68.5759296,89.7866683 68.2941709,90.1249598 C68.100603,89.4198844 67.6655276,88.8939045 67.0382412,88.7066683 C67.0319095,88.6998844 67.0251256,88.6998844 67.0210553,88.6998844 C66.2359296,88.4606382 65.4096482,88.6709397 64.6245226,89.2968693 C64.2690452,89.5799849 63.9135678,89.9503869 63.5336683,90.4428995 C63.341005,89.5388291 62.7851759,88.8378241 61.9828643,88.6293317 C61.1995477,88.4181256 60.3497487,88.6510402 59.5931156,89.2968693 C58.9314573,89.8649095 58.0323618,91.2714422 57.3860804,92.5861658 C57.1807538,92.9972714 57.3024121,93.4843568 57.6931658,93.7082261 C58.0902513,93.9320955 58.5022613,93.6824472 58.7026131,93.2803869 C59.5035678,91.6436533 60.1503015,90.9091809 60.6568342,90.4863166 C60.8978894,90.2864171 61.2253266,90.0928492 61.5545729,90.2140553 C61.9711055,90.3682764 62.0651759,90.9562161 61.9041709,91.691593 C61.7232663,92.5006884 61.1615578,93.8841558 60.6423618,95.113402 C60.5957789,95.2395829 60.5306533,95.3897337 60.450603,95.5665678 C57.2544724,98.462397 53.5486432,99.5586784 53.1388945,99.6093317 C52.2153769,99.7169698 51.8598995,99.2457136 52.0046231,98.3543065 C52.0421608,98.1467186 52.1624623,97.8405377 52.2153769,97.6605377 C53.0181407,97.7668191 54.2369849,97.6935528 54.8945729,97.3647588 C55.6611558,96.9839548 56.2359799,96.3797337 56.4254774,95.7397839 C56.5484925,95.341794 56.5100503,94.9451608 56.319196,94.6190804 C55.7864322,93.7023467 54.5341206,93.3816935 53.3568844,94.033402 C52.6680905,94.4092312 51.8119598,95.0654623 51.191005,96.0839548 C51.191005,96.0902864 51.1833166,96.0902864 51.1833166,96.0957136 C51.1665829,96.1219447 51.1557286,96.1495327 51.1358291,96.1748593 C51.1186432,96.2096834 51.0951256,96.2517437 51.0711558,96.2901859 C50.9499497,96.5145075 50.8043216,96.7704874 50.7319598,96.9464171 C49.531206,99.8191809 48.1260302,100.381342 47.9311055,100.428377 C47.7465829,100.469985 47.3784422,100.469985 47.1070854,100.230739 C46.7886935,99.9562161 46.810402,99.6504874 46.8777889,99.341593 C47.0817588,98.3108894 47.9152764,96.9957136 48.3856281,96.1038543 C48.4647739,95.9568693 48.5371357,95.821191 48.601809,95.6922965 C49.2358794,94.4630503 49.8934673,92.9235528 50.1290955,92.0303367 C50.5447236,90.4388291 50.038191,89.0395327 48.9229146,88.7066683 C48.9093467,88.6998844 48.9039196,88.6998844 48.899397,88.6998844 C48.120603,88.4606382 47.2920603,88.6709397 46.5033166,89.2968693 C46.2319598,89.5148593 45.9615075,89.7866683 45.6702513,90.1249598 C45.4843719,89.4198844 45.0488442,88.8939045 44.4229146,88.7066683 C44.4147739,88.6998844 44.4039196,88.6998844 44.3998492,88.6998844 C43.6196985,88.4606382 42.7929648,88.6709397 42.0096482,89.2968693 C41.6537186,89.5799849 41.2982412,89.9503869 40.9183417,90.4428995 C40.7238693,89.5388291 40.1703015,88.8378241 39.3661809,88.6293317 C38.5824121,88.4181256 37.7326131,88.6510402 36.9728141,89.2968693 C36.3152261,89.8649095 35.4170352,91.2714422 34.7621608,92.5861658 C34.5640704,92.9972714 34.6866332,93.4843568 35.0787437,93.7082261 C35.4749246,93.9320955 35.8783417,93.6824472 36.0836683,93.2803869 C36.8877889,91.6436533 37.5327136,90.9091809 38.0396985,90.4863166 C38.2798492,90.2864171 38.601407,90.0928492 38.9378894,90.2140553 C39.3480905,90.3682764 39.4503015,90.9562161 39.290201,91.691593 C39.1088442,92.5006884 38.5480402,93.8841558 38.0265829,95.113402 C37.98,95.2395829 37.9121608,95.3897337 37.8352764,95.5665678 C34.6314573,98.462397 30.9328643,99.5586784 30.5240201,99.6093317 C29.6005025,99.7169698 29.2445729,99.2457136 29.3874874,98.3543065 C29.4186935,98.1467186 29.5453266,97.8405377 29.6005025,97.6605377 C30.4023618,97.7668191 31.6157789,97.6935528 32.280603,97.3647588 C33.0462814,96.9839548 33.6165829,96.3797337 33.8110553,95.7397839 C33.9331658,95.341794 33.8956281,94.9451608 33.7038693,94.6190804 C33.1720101,93.7023467 31.9169849,93.3816935 30.7347739,94.033402 C30.049598,94.4092312 29.1957286,95.0654623 28.5743216,96.0839548 C28.5743216,96.0902864 28.569799,96.0902864 28.569799,96.0957136 C28.550804,96.1219447 28.5390452,96.1495327 28.5232161,96.1748593 C28.4965327,96.2096834 28.4802513,96.2517437 28.4553769,96.2901859 C28.3269347,96.5145075 28.1867337,96.7704874 28.1161809,96.9464171 C26.9095477,99.8191809 25.511608,100.381342 25.3175879,100.428377 C25.1303518,100.469985 24.7617588,100.469985 24.4854271,100.230739 C24.1715578,99.9562161 24.1955276,99.6504874 24.2538693,99.341593 C24.4664322,98.3108894 25.3013065,96.9957136 25.771206,96.1038543 C25.8485427,95.9573216 25.9204523,95.821191 25.9860302,95.6922965 C26.6178392,94.4639548 27.2799497,92.9235528 27.5115075,92.0303367 C27.929397,90.4388291 27.4224121,89.0395327 26.3012563,88.7066683 C26.2944724,88.6998844 26.290402,88.6998844 26.2840704,88.6998844 C25.5025628,88.4606382 24.670402,88.6709397 23.8884422,89.2968693 C23.6157286,89.5148593 23.3375879,89.7866683 23.0553769,90.1249598 C22.8699497,89.4198844 22.4335176,88.8939045 21.8075879,88.7066683 C21.7949246,88.6998844 21.7881407,88.6998844 21.7827136,88.6998844 C21.0025628,88.4606382 20.1785427,88.6709397 19.3861809,89.2968693 C19.0374874,89.5799849 18.6811055,89.9503869 18.3016583,90.4428995 C18.100402,89.5388291 17.5472864,88.8378241 16.7508543,88.6293317 C15.9675377,88.4181256 15.1159296,88.6510402 14.3556784,89.2968693 C13.6917588,89.8649095 12.7980905,91.2714422 12.1468342,92.5861658 C11.949196,92.9972714 12.0627136,93.4843568 12.4620603,93.7082261 C12.8618593,93.9320955 13.2639196,93.6824472 13.4701508,93.2803869 C14.2715578,91.6436533 14.9160302,90.9091809 15.4230151,90.4863166 C15.6649749,90.2864171 15.9847236,90.0928492 16.3234673,90.2140553 C16.7332161,90.3682764 16.8358794,90.9562161 16.6730653,91.691593 C16.4926131,92.5006884 15.9309045,93.8841558 15.4121608,95.113402 C14.910603,96.3191307 13.0947739,100.275513 13.0698995,100.320739 C12.8853769,100.731392 13.0649246,101.219382 13.4832663,101.40707 C13.5895477,101.461342 13.7026131,101.483955 13.8188442,101.483955 C14.1327136,101.483955 14.4334673,101.303503 14.5741206,101.000487 C14.6207035,100.893302 16.1235678,97.5940553 16.1317085,97.5872714 C18.240603,93.3283266 19.398392,91.3003869 20.3748241,90.5238543 C20.5928141,90.3470201 21.1074874,90.0403869 21.3779397,90.2524975 C21.691809,90.502598 21.5710553,91.2171709 21.4733668,91.5975226 C21.2870352,92.3387789 20.7334673,93.552196 20.2495477,94.6855628 C20.2495477,94.692799 20.2450251,94.6964171 20.2450251,94.7041055 C20.2314573,94.7253618 17.769799,100.259231 17.7535176,100.29496 C17.5667337,100.712849 17.7449246,101.19903 18.1614573,101.386266 C18.2709045,101.432849 18.3866834,101.461342 18.5006533,101.461342 C18.8149749,101.461342 19.1152764,101.277724 19.2491457,100.978327 C19.3282915,100.807372 21.1029648,96.8939548 21.618995,95.6733015 C21.6596985,95.584206 21.6976884,95.4874221 21.7406533,95.3960653 C23.1394975,92.5739548 24.0973869,91.1941055 24.8996985,90.5532513 C25.118593,90.3791307 25.5283417,90.0883266 25.8711558,90.2990804 C26.2370352,90.5238543 26.0538693,91.2886281 25.9697487,91.6092814 C25.7648744,92.3858141 25.1543216,93.7629497 24.5808543,94.8782261 C24.5143719,94.9994322 24.4474372,95.132397 24.3705528,95.2757638 C23.8504523,96.2585276 23.0725628,97.744206 22.849598,99.0182261 C22.6926633,99.9286281 23.0128643,100.818226 23.6763317,101.344206 C24.0752261,101.65898 24.5632161,101.81501 25.1005025,101.81501 C25.2800503,101.81501 25.4623116,101.804608 25.65,101.766618 C26.4197487,101.617372 27.3197487,101.050236 28.1654774,99.8852111 C28.26,100.04893 28.3762312,100.196819 28.5010553,100.332497 C28.8271357,100.662648 29.3956281,101.025814 30.3177889,101.025814 C30.4706533,101.025814 30.6316583,101.020387 30.8003518,100.994608 C32.1462814,100.826367 34.2343719,100.000085 36.6354271,98.2502864 C36.1352261,99.3560653 35.7001508,100.29496 35.6938191,100.320739 C35.5007035,100.731392 35.6802513,101.219382 36.0994975,101.40707 C36.2066834,101.461342 36.3215578,101.483955 36.441407,101.483955 C36.7498492,101.483955 37.050603,101.303503 37.1885427,101.000487 C37.239196,100.893302 38.739799,97.5940553 38.7461307,97.5872714 C40.8572864,93.3283266 42.0177889,91.3003869 42.9919598,90.5238543 C43.2090452,90.3470201 43.7219095,90.0403869 43.9950754,90.2524975 C44.3084925,90.502598 44.1863819,91.2171709 44.0923116,91.5975226 C43.9028141,92.3387789 43.3528643,93.552196 42.8730151,94.6855628 C42.8662312,94.692799 42.8585427,94.6964171 42.8585427,94.7041055 C42.8467839,94.7253618 40.3873869,100.259231 40.3688442,100.29496 C40.1820603,100.712849 40.361608,101.19903 40.778593,101.386266 C40.8875879,101.432849 41.0029146,101.461342 41.1168844,101.461342 C41.4289447,101.461342 41.7319598,101.277724 41.868995,100.978327 C41.9409045,100.807372 43.7164824,96.8939548 44.2356784,95.6733015 C44.2786432,95.584206 44.3125628,95.4874221 44.3573367,95.3960653 C45.7543719,92.5739548 46.7235678,91.1941055 47.5168342,90.5532513 C47.7325628,90.3791307 48.1450251,90.0883266 48.4882915,90.2990804 C48.8505528,90.5238543 48.6687437,91.2886281 48.5841709,91.6092814 C48.378392,92.3858141 47.7705528,93.7629497 47.1979899,94.8782261 C47.130603,94.9994322 47.0641206,95.132397 46.9863317,95.2757638 C46.4684925,96.2585276 45.6892462,97.744206 45.4658291,99.0182261 C45.3107035,99.9286281 45.6295477,100.818226 46.291206,101.344206 C46.6901005,101.65898 47.1803518,101.81501 47.7217085,101.81501 C47.8976382,101.81501 48.0785427,101.804608 48.2657789,101.766618 C49.0368844,101.617372 49.9364322,101.050236 50.780804,99.8852111 C50.8766834,100.04893 50.9929146,100.196819 51.1186432,100.332497 C51.4451759,100.662648 52.0109548,101.025814 52.9340201,101.025814 C53.0850754,101.025814 53.2478894,101.020387 53.4215578,100.994608 C54.7679397,100.826367 56.8483417,100.000085 59.2498492,98.2502864 C58.7496482,99.3560653 58.3154774,100.29496 58.3086935,100.320739 C58.1164824,100.731392 58.2982915,101.219382 58.711206,101.40707 C58.8220101,101.461342 58.9432161,101.483955 59.0580905,101.483955 C59.3642714,101.483955 59.6677387,101.303503 59.8056784,101.000487 C59.8545226,100.893302 61.3551256,97.5940553 61.3632663,97.5872714 C63.4735176,93.3283266 64.6322111,91.3003869 65.6077387,90.5238543 C65.8261809,90.3470201 66.3390452,90.0403869 66.6081407,90.2524975 C66.9319598,90.502598 66.8026131,91.2171709 66.7062814,91.5975226 C66.5172362,92.3387789 65.9713568,93.552196 65.4878894,94.6855628 C65.4833668,94.692799 65.4833668,94.6964171 65.4774874,94.7041055 C65.4634673,94.7253618 63.0036181,100.259231 62.9832663,100.29496 C62.7978392,100.712849 62.9832663,101.19903 63.3943719,101.386266 C63.5047236,101.432849 63.6259296,101.461342 63.7331156,101.461342 C64.0460804,101.461342 64.3495477,101.277724 64.4874874,100.978327 C64.5607538,100.807372 66.3331658,96.8939548 66.8528141,95.6733015 C66.8917085,95.584206 66.9360302,95.4874221 66.9713065,95.3960653 C68.3710553,92.5739548 69.3379899,91.1941055 70.1326131,90.5532513 C70.3564824,90.3791307 70.7666834,90.0883266 71.1040704,90.2990804 C71.4672362,90.5238543 71.2849749,91.2886281 71.198593,91.6092814 C71.0018593,92.3858141 70.3863317,93.7629497 69.8142211,94.8782261 C69.7459296,94.9994322 69.6803518,95.132397 69.6039196,95.2757638 C69.0874372,96.2585276 68.3068342,97.744206 68.0861307,99.0182261 C67.9273869,99.9286281 68.2462312,100.818226 68.908794,101.344206 C69.3072362,101.65898 69.8020101,101.81501 70.338392,101.81501 C70.5120603,101.81501 70.6956784,101.804608 70.8824623,101.766618 C71.6359296,101.62099 72.5164824,101.074206 73.3427638,99.9562161 C73.4142211,100.064759 73.4983417,100.169683 73.601005,100.266015 C73.9171357,100.577171 74.4544221,100.91501 75.3015075,100.91501 C75.4774372,100.91501 75.6696482,100.91094 75.8826633,100.868879 C76.8676884,100.683905 77.6672864,100.150236 78.3633166,99.7576734 C78.7590452,99.542397 78.9942211,99.0290804 78.7766834,98.6247588 C78.5609548,98.2263166 78.0774874,98.0503869 77.6672864,98.2502864" id="Fill-51"></path>
                <path d="M77.4022161,93.3684422 C77.8983467,93.3684422 78.2999548,92.9586935 78.2999548,92.4517085 C78.2999548,91.9519598 77.8983467,91.5413065 77.4022161,91.5413065 C76.9074422,91.5413065 76.5031206,91.9519598 76.5031206,92.4517085 C76.5031206,92.9586935 76.9074422,93.3684422 77.4022161,93.3684422" id="Fill-53"></path>
                <path d="M22.6565276,105.53002 C22.4846683,105.387558 22.252206,105.315648 21.9623065,105.315648 L21.059593,105.315648 L21.059593,107.032884 L21.9623065,107.032884 C22.2571809,107.032884 22.489191,106.953739 22.660598,106.798613 C22.830196,106.640322 22.9156734,106.433638 22.9156734,106.173136 C22.9156734,105.887307 22.8288392,105.672935 22.6565276,105.53002 M23.5633116,106.86193 C23.470598,107.065899 23.3457739,107.237307 23.1847688,107.372533 C23.0251206,107.507759 22.8374322,107.60997 22.6235126,107.680975 C22.4091407,107.750171 22.1798442,107.785447 21.9356231,107.785447 L21.059593,107.785447 L21.059593,109.311377 L20.291201,109.311377 L20.291201,104.562633 L22.0287889,104.562633 C22.2843166,104.562633 22.5163266,104.601075 22.7243668,104.675246 C22.9310503,104.749417 23.1083367,104.856603 23.2521558,104.996804 C23.3982362,105.137457 23.5090402,105.305698 23.5868291,105.499719 C23.6632613,105.693286 23.702608,105.913085 23.702608,106.157759 C23.702608,106.423236 23.6555729,106.660673 23.5633116,106.86193" id="Fill-55"></path>
                <polygon id="Fill-57" points="28.8254171 105.315829 26.3334573 105.315829 26.3334573 106.538291 28.5418492 106.538291 28.5418492 107.290854 26.3334573 107.290854 26.3334573 108.558995 28.8570754 108.558995 28.8570754 109.311558 25.5655176 109.311558 25.5655176 104.562814 28.8254171 104.562814"></polygon>
                <polygon id="Fill-59" points="33.922402 104.562814 34.6903417 104.562814 34.6903417 109.311558 34.043608 109.311558 31.6194874 105.933166 31.6194874 109.311558 30.8510955 109.311558 30.8510955 104.562814 31.5670251 104.562814 33.922402 107.847588"></polygon>
                <polygon id="Fill-61" points="38.756397 109.311558 37.9753417 109.311558 37.9753417 105.336181 36.5787588 105.336181 36.5787588 104.562814 40.1529799 104.562814 40.1529799 105.336181 38.756397 105.336181"></polygon>
                <polygon id="Fill-63" points="42.8108744 107.311251 42.8108744 109.311603 42.0429347 109.311603 42.0429347 104.562859 42.8108744 104.562859 42.8108744 106.538337 44.9247437 106.538337 44.9247437 104.562859 45.6935879 104.562859 45.6935879 109.311603 44.9247437 109.311603 44.9247437 107.311251"></polygon>
                <path d="M51.3846181,106.290588 C51.311804,106.083905 51.2086884,105.904809 51.0770804,105.749683 C50.9445678,105.596819 50.7862764,105.474256 50.6013015,105.385161 C50.4158744,105.292899 50.2159749,105.249482 49.9979849,105.249482 C49.779995,105.249482 49.579191,105.292899 49.3969296,105.379281 C49.2133116,105.469281 49.0572814,105.588678 48.9270302,105.739281 C48.7972312,105.892598 48.6954724,106.071241 48.6226583,106.275211 C48.5484874,106.481894 48.511402,106.701693 48.511402,106.93099 C48.511402,107.160739 48.5484874,107.380085 48.6226583,107.584055 C48.6954724,107.790739 48.7985879,107.972095 48.930196,108.125412 C49.0627085,108.278729 49.221,108.400839 49.4059749,108.490387 C49.5909497,108.581744 49.7913015,108.625613 50.0106482,108.625613 C50.2272814,108.625613 50.4289899,108.581744 50.6117035,108.495362 C50.7939648,108.406266 50.9495427,108.285965 51.079794,108.135362 C51.2100452,107.982497 51.311804,107.803854 51.3846181,107.599884 C51.4587889,107.393201 51.4958744,107.176116 51.4958744,106.943653 C51.4958744,106.714357 51.4587889,106.494558 51.3846181,106.290588 M52.1376332,107.880739 C52.0236633,108.179231 51.8644673,108.438829 51.6591407,108.663603 C51.4533618,108.887925 51.2100452,109.064307 50.929191,109.197271 C50.6474322,109.32707 50.3376332,109.393101 49.9979849,109.393101 C49.6569799,109.393101 49.3471809,109.329784 49.0667789,109.199533 C48.7845678,109.071543 48.5430603,108.896065 48.3413518,108.674005 C48.1400955,108.451945 47.9831608,108.191894 47.8696432,107.89295 C47.7565779,107.594457 47.7000452,107.278327 47.7000452,106.943653 C47.7000452,106.609432 47.7565779,106.293302 47.8696432,105.994809 C47.9831608,105.696317 48.142809,105.435814 48.3481357,105.21104 C48.5539146,104.986719 48.7972312,104.810789 49.0780854,104.678276 C49.3598442,104.547573 49.6696432,104.481543 50.0106482,104.481543 C50.3502965,104.481543 50.6600955,104.545312 50.9418543,104.675563 C51.2227085,104.803101 51.4637638,104.97903 51.6654724,105.20109 C51.8667286,105.423151 52.0236633,105.683653 52.1376332,105.981693 C52.2506985,106.280638 52.3072312,106.597221 52.3072312,106.93099 C52.3072312,107.265211 52.2506985,107.581342 52.1376332,107.880739" id="Fill-65"></path>
                <path d="M58.016397,107.255171 C58.016397,107.609744 57.9707186,107.918638 57.8816231,108.186377 C57.7907186,108.451854 57.6631809,108.676628 57.4999146,108.854819 C57.3366482,109.033915 57.1385578,109.166427 56.905191,109.253261 C56.6718241,109.342357 56.4117739,109.385322 56.1218744,109.385322 C55.8360452,109.385322 55.5782563,109.342357 55.347603,109.253261 C55.1164975,109.166427 54.9202161,109.033915 54.755593,108.857533 C54.5923266,108.681603 54.4656935,108.462256 54.3779548,108.201754 C54.2897638,107.941704 54.246799,107.64095 54.246799,107.296327 L54.246799,104.562859 L55.0142864,104.562859 L55.0142864,107.262859 C55.0142864,107.706528 55.1128794,108.043462 55.3118744,108.273211 C55.5099648,108.505673 55.7835829,108.620548 56.1345377,108.620548 C56.4805176,108.620548 56.7518744,108.508387 56.9513216,108.288588 C57.1489598,108.066528 57.2484573,107.73502 57.2484573,107.296327 L57.2484573,104.562859 L58.016397,104.562859 L58.016397,107.255171 Z" id="Fill-67"></path>
                <path d="M60.8410402,106.048085 C60.8704372,106.117281 60.9242563,106.18105 61.0020452,106.239844 C61.0798342,106.298186 61.1870201,106.351553 61.3231508,106.402658 C61.4601859,106.451503 61.633402,106.502156 61.8441558,106.558688 C62.0752613,106.622457 62.2801357,106.691201 62.4592312,106.767633 C62.6374221,106.844518 62.7866683,106.938588 62.9042563,107.048487 C63.021392,107.160648 63.1109397,107.288186 63.171995,107.436075 C63.2335025,107.583965 63.2642563,107.75492 63.2642563,107.954367 C63.2642563,108.181402 63.2258141,108.383111 63.1480251,108.55904 C63.0711407,108.73497 62.9639548,108.885573 62.8264673,109.005422 C62.6898844,109.128437 62.5243568,109.22296 62.3312412,109.283563 C62.1385779,109.347332 61.9269196,109.380347 61.6971709,109.380347 C61.3566181,109.380347 61.0309899,109.31703 60.721191,109.191754 C60.4100352,109.069191 60.1228492,108.877884 59.8591809,108.620095 L60.3245578,108.023111 C60.5389296,108.222106 60.7546583,108.375422 60.9726482,108.479894 C61.1906382,108.58708 61.4380251,108.640447 61.7152613,108.640447 C61.9549598,108.640447 62.1449095,108.58708 62.2855628,108.477181 C62.4257638,108.367734 62.4958643,108.222106 62.4958643,108.036226 C62.4958643,107.952106 62.4818442,107.872508 62.4551608,107.806477 C62.4271206,107.737281 62.3769196,107.676226 62.303201,107.620146 C62.2294824,107.563613 62.1286281,107.510246 62.0006382,107.459141 C61.8717437,107.410749 61.7048593,107.357382 61.4999849,107.303563 C61.2634523,107.244769 61.0540553,107.178739 60.871794,107.107281 C60.6881759,107.035824 60.5353116,106.943563 60.4100352,106.836377 C60.2861156,106.72693 60.191593,106.597131 60.1269196,106.441101 C60.061794,106.287784 60.0287789,106.101905 60.0287789,105.879844 C60.0287789,105.670447 60.0667688,105.481854 60.1404874,105.313161 C60.2160151,105.142206 60.3195829,104.99703 60.4498342,104.874015 C60.5805377,104.754618 60.7392814,104.660095 60.9228995,104.593613 C61.1078744,104.527583 61.3077739,104.496829 61.5266683,104.496829 C61.8504874,104.496829 62.1403869,104.545221 62.3986281,104.64698 C62.6564171,104.749643 62.8988291,104.89708 63.1249598,105.091553 L62.7102362,105.723814 C62.5089799,105.565975 62.3099849,105.443412 62.1118945,105.359744 C61.9156131,105.277432 61.7152613,105.234015 61.5135528,105.234015 C61.2874221,105.234015 61.1119447,105.290095 60.9853116,105.399543 C60.8595829,105.512156 60.7962663,105.647382 60.7962663,105.806126 C60.7962663,105.900196 60.8120955,105.982055 60.8410402,106.048085" id="Fill-69"></path>
                <polygon id="Fill-71" points="68.5062814 105.315829 66.0147739 105.315829 66.0147739 106.538291 68.2236181 106.538291 68.2236181 107.290854 66.0147739 107.290854 66.0147739 108.558995 68.538392 108.558995 68.538392 109.311558 65.2468342 109.311558 65.2468342 104.562814 68.5062814 104.562814"></polygon>
                <path d="M50.7530352,72.0834422 C48.8598693,74.125402 43.9297688,75.0697236 41.3726834,73.845 C41.0728342,73.7007286 40.9222312,73.2828392 40.5219799,72.7532412 C44.3815779,73.4388693 47.9232362,74.4347487 50.7833367,71.2820352 C50.8448442,71.4086683 50.9054472,71.5353015 50.9665025,71.6619347 C50.8973065,71.8034925 50.8579598,71.9699246 50.7530352,72.0834422 L50.7530352,72.0834422 Z M40.6626332,71.2114824 C40.6219296,69.2803266 40.8489648,67.3812814 41.346,65.5595729 C41.437809,65.2235427 41.3604724,64.7812312 41.115799,64.2457538 C40.8634372,63.6917337 40.5889146,63.1399749 40.3229849,62.6049497 C39.9489648,61.8519347 39.5613769,61.0731407 39.2371055,60.2893719 C38.2371558,57.8738442 38.5121307,55.4203266 39.2325829,52.4797236 C39.4921809,51.4205276 39.8358995,50.0280151 40.1990653,48.6454523 C40.6594673,46.8888693 41.0515779,44.8016834 40.4695176,42.6380653 C40.324794,42.0994221 40.2863518,41.5255025 40.2420302,40.8597739 C40.2397688,40.8244975 40.2375075,40.7892211 40.234794,40.7534925 C41.2157487,42.2482161 41.7019296,44.7107789 41.605598,46.5682161 C41.5454472,47.7336935 41.2654975,48.5893719 40.8390151,48.9159045 C40.7340905,48.996407 40.6938392,49.1352513 40.7408744,49.2587186 C40.7879095,49.3821859 40.9073065,49.4599749 41.0420804,49.4513819 C41.3989146,49.4269598 41.7607236,49.4011809 42.1275075,49.375402 C43.1179598,49.3048492 44.1423317,49.2320352 45.1644422,49.1813819 C45.2517286,49.1768593 45.3426332,49.1736935 45.4335377,49.1736935 C45.7718291,49.1736935 46.0264523,49.216206 46.2118794,49.3034925 C46.3869045,49.385804 46.545196,49.5698744 46.7120804,49.7652513 C46.7315276,49.7874121 46.7505226,49.8095729 46.7699698,49.8321859 C46.7419296,49.8615829 46.714794,49.8909799 46.687206,49.9208291 C46.5424824,50.0768593 46.3624824,50.2713317 46.2471558,50.285804 C43.4856482,50.635402 41.6702714,52.2671608 40.5323819,55.4203266 C40.4577588,55.6279146 40.4600201,55.8608291 40.5400704,56.1538945 C40.5739899,56.2778141 40.6829849,56.366005 40.8118794,56.3741457 C40.9385126,56.3804774 41.0592663,56.3067588 41.1076583,56.1882663 C42.0949447,53.766407 43.2179095,52.0862563 45.5398191,51.3965578 C43.8836382,53.3448995 42.7475578,55.0526382 42.2224824,57.1285176 C41.5413769,59.8194724 41.8276583,62.1142462 43.0985126,64.1435427 C43.1550452,64.233995 43.2527337,64.2846482 43.3531357,64.2846482 L43.3590151,64.2846482 C43.524995,64.2846482 43.6593166,64.1503266 43.6593166,63.9857035 C43.6593166,63.9232915 43.6403216,63.8649497 43.6077588,63.8174623 C42.3206231,60.7321357 41.7607236,56.8381658 46.9789146,51.2644975 L46.9789146,53.6415829 C46.9789146,53.7881156 47.0861005,53.913392 47.2312764,53.9364573 L47.4877085,53.9767085 C47.6392161,54.0006784 47.7875578,53.9043467 47.8250955,53.754196 C47.8418291,53.6886181 47.865799,53.6216834 47.8888643,53.5542965 C47.9544422,53.3688693 48.0281608,53.1590201 47.9960503,52.9342462 L47.9268543,52.4448995 C47.6989146,50.834397 47.4637387,49.1687186 47.1607236,47.5410302 C47.0553467,46.9743467 46.9033869,46.4126382 46.756402,45.8694724 C46.5854472,45.2367588 46.4086131,44.5823367 46.3109246,43.9360553 C46.2598191,43.5986683 46.3656482,43.2142462 46.4773568,42.8072111 C46.5121809,42.6810302 46.5474573,42.5525879 46.5786633,42.4227889 L46.6397186,42.4146482 C46.9694171,43.2517839 47.2932362,44.0902764 47.616603,44.9292211 C48.4446935,47.0756533 49.3012764,49.2953518 50.2428844,51.4390704 C50.8095678,52.7298241 50.5395678,53.9111307 50.2537387,55.1616332 C50.1854472,55.4605779 50.1167035,55.7608794 50.0588141,56.0643467 C49.9425829,56.6771608 49.8154975,57.2895226 49.6884121,57.9023367 C49.3284121,59.6385678 48.9557487,61.4344975 48.8331859,63.2272613 C48.6875578,65.3687186 48.9643417,67.505201 49.6694171,69.7339447 C49.5563518,70.3137437 49.2655477,70.9170603 48.8806734,71.3286181 C47.7920804,72.4922864 43.4625829,72.6569095 41.8882613,71.7817839 C41.6010754,71.7112312 41.3161508,71.5873116 41.0561005,71.4525377 C40.9249447,71.3846985 40.7883618,71.3037437 40.6626332,71.2114824 L40.6626332,71.2114824 Z M45.5000201,43.0315327 C45.3304221,44.034196 45.5800704,45.0929397 45.8220302,46.116407 C45.9061508,46.4736935 45.9934372,46.843191 46.0585628,47.1968593 C46.1268543,47.5659045 46.2761005,47.9073618 46.4208241,48.2379648 C46.4239899,48.2456533 46.4271558,48.2524372 46.4303216,48.2592211 L43.4793166,48.2592211 C43.4802211,48.2560553 43.4811256,48.2533417 43.4820302,48.2497236 C43.5299698,48.0371608 43.5684121,47.8693719 43.625397,47.7142462 C44.7135377,44.7740955 44.8609749,41.6783668 44.0763015,38.2502261 C43.8773065,37.3809799 43.7253467,36.6501256 43.6321809,35.9084171 C43.604593,35.6886181 43.6421307,35.4448492 43.6896181,35.1359548 C43.6923317,35.1174121 43.6954975,35.0988693 43.6982111,35.0803266 C44.3707236,35.6008794 44.7886131,36.2783668 45.0287638,37.2222362 C45.4828342,39.0055025 45.8536884,40.9434422 45.5000201,43.0315327 L45.5000201,43.0315327 Z M46.6419799,36.6207286 C48.0136884,38.906005 48.4505729,41.0931407 47.9946935,43.4494221 C47.9820302,43.4281658 47.9698191,43.4073618 47.9585126,43.3865578 C46.9481608,41.5372613 46.3855477,39.8702261 46.187005,38.1389698 C46.0793668,37.2014322 45.7157487,36.2978141 45.3638894,35.423593 C45.2327337,35.0970603 45.1015779,34.7714322 44.9844422,34.4444472 L44.9604724,34.3788693 C44.6836884,33.6100251 44.4385628,32.9302764 44.7858995,32.0090201 C44.8410754,32.114397 44.8948945,32.2161558 44.947809,32.315201 C45.224593,32.8402764 45.4642915,33.2929899 45.6465528,33.7570101 C45.7826834,34.1034422 45.8853467,34.483794 45.9848442,34.8514824 C46.147206,35.4543467 46.3154472,36.0771106 46.6419799,36.6207286 L46.6419799,36.6207286 Z M50.7448945,50.4820854 C50.1736884,48.9394221 49.5825829,47.3438442 49.0511759,45.7600251 C48.8924322,45.2865075 48.7305226,44.6058543 48.8603216,44.0554523 C49.5350955,41.1971608 48.9883116,38.4908291 47.1883116,35.7826884 C46.6795176,35.0170101 46.4104221,34.4073618 46.5967538,33.7443467 C51.1700201,38.7020352 52.6529849,44.5687688 51.0094673,51.1975628 L50.7448945,50.4820854 Z M52.2165528,70.8505779 C51.8000201,70.4770101 51.2867035,70.2603769 50.7720302,70.0455528 C50.7697688,70.0292714 50.7697688,70.0134422 50.764794,69.9971608 C49.5369045,66.3469598 49.3677588,62.7718342 50.2478593,59.0669095 C50.6567035,57.3428894 51.0528844,55.585402 51.4350452,53.885804 C51.6010251,53.1463568 51.7679095,52.4069095 51.9356985,51.6674623 C53.5335377,44.6361558 52.2382613,38.8132915 47.974794,33.8669095 C47.2561508,33.0329397 46.4072563,32.2039447 45.3037387,31.2587186 C45.0794171,31.0669598 44.8546432,30.9697236 44.6348442,30.9697236 C44.1830352,30.9697236 43.8293668,31.3835427 43.7547437,31.9990704 C43.6864523,32.5653015 43.7013769,33.1405779 43.7163015,33.696407 C43.7194673,33.8194221 43.7226332,33.9419849 43.7248945,34.0645477 L43.7235377,34.0645477 C43.3160503,34.0645477 43.0763518,34.2400251 42.9465528,34.3874623 C42.7023317,34.6646985 42.6118794,35.1020352 42.6837889,35.6524372 C42.8230854,36.7116332 43.0329347,37.773995 43.2355477,38.8019849 L43.3639899,39.4568593 C43.9148442,42.2866583 43.6534372,45.1024372 42.5879095,47.8259548 C42.5671055,47.8793216 42.536804,47.9317839 42.5006231,47.9846985 C42.4336884,47.1715327 42.4183116,46.3809799 42.4029347,45.6112312 C42.3911759,44.9984171 42.3785126,44.3643467 42.3396181,43.7442965 C42.2170553,41.773794 41.4726332,40.2971608 40.0642915,39.2307286 C39.9815276,39.1678643 39.8716281,39.1524874 39.7757487,39.1895729 C39.6785126,39.226206 39.6075075,39.3107789 39.5880603,39.4120854 C39.4198191,40.285402 39.2294171,41.2749497 39.4505729,42.1708794 C39.9706734,44.2680151 39.895598,46.4176131 39.2212764,48.743593 C39.0761005,49.2424372 38.9508241,49.7530402 38.8296181,50.2464573 C38.725598,50.6706784 38.6215779,51.0953518 38.5044422,51.5155025 C37.6953467,54.4226382 37.0092663,58.2442462 38.9051457,62.0265075 C39.0896683,62.394196 39.2827839,62.7573618 39.4763518,63.1214322 C39.7427337,63.6225377 40.0181608,64.1403769 40.2628342,64.6586683 C40.4048442,64.9589698 40.4636382,65.2723869 40.4129849,65.4582663 C39.9295176,67.224799 39.7038392,69.0125879 39.7273568,70.8998744 C39.7205729,70.9821859 39.7137889,71.0658543 39.7119799,71.0938945 C39.6902714,71.3869598 39.6554472,71.6786683 39.606603,71.9690201 C39.6106734,72.1815829 39.6079598,72.3923367 39.5921307,72.5967588 C39.4686633,74.1597739 39.6798693,74.6798744 41.2926332,75.0529899 C45.3806231,76.0013819 49.0792161,75.5075126 52.0573568,72.4542965 C52.7077085,71.7876633 52.8207739,71.2426884 52.2165528,70.8505779 L52.2165528,70.8505779 Z" id="Fill-73"></path>
                <path d="M44.8250653,32.4136583 C44.6685829,33.1133065 44.8734573,33.6822513 45.1059196,34.3267236 L45.1294372,34.3923015 C45.2465729,34.7174774 45.3768241,35.0417487 45.5075276,35.3664724 C45.8625528,36.2492864 46.2302412,37.162402 46.3401407,38.1216482 C46.5246633,39.7285327 47.0275779,41.281598 47.9176281,42.9825528 C48.2346633,40.8288844 47.782402,38.820392 46.5097387,36.6997387 C46.1718995,36.1375779 46.0009447,35.5039598 45.8354171,34.891598 C45.7363719,34.5248141 45.6355176,34.1503417 45.503005,33.8129548 C45.3266231,33.3652161 45.0941608,32.9229045 44.8250653,32.4136583 M47.9945126,43.6035075 C47.9406935,43.6035075 47.8900402,43.5754673 47.862,43.5279799 C47.8479799,43.5049146 47.8348643,43.4823015 47.8226533,43.4596884 C46.802804,41.5927538 46.2343116,39.9076281 46.0335075,38.1564724 C45.9281307,37.2388342 45.5685829,36.3451658 45.220794,35.4808945 C45.0887337,35.1525528 44.9571256,34.8251156 44.8386332,34.4958693 L44.8155678,34.4307437 C44.5369749,33.6582814 44.2737588,32.9292362 44.6414472,31.9546131 C44.6631558,31.8980804 44.7156181,31.8591859 44.7766734,31.8551156 C44.8368241,31.8514975 44.8947136,31.8840603 44.9227538,31.9378794 L45.0842111,32.243608 C45.3646131,32.7750151 45.6056683,33.2304422 45.790191,33.700794 C45.9290352,34.0540101 46.032603,34.4370754 46.1325528,34.8070251 C46.2935578,35.4040101 46.4590854,36.0163719 46.7747638,36.5418995 C48.1745126,38.8742111 48.6104925,41.0785327 48.1460201,43.4786834 C48.1342613,43.5410955 48.0845126,43.5899397 48.021196,43.600794 C48.0121508,43.602603 48.0035578,43.6035075 47.9945126,43.6035075 M43.673608,48.1057688 L46.1949648,48.1057688 C46.0742111,47.8226533 45.9643116,47.5354673 45.9068744,47.2252161 C45.8426533,46.8778794 45.7571759,46.5142613 45.6739598,46.1628543 C45.4265729,45.113608 45.1728543,44.0399397 45.3478794,43.0056181 C45.6970251,40.9460201 45.3288844,39.0270754 44.8788844,37.2600905 C44.6735578,36.4523518 44.331196,35.8463216 43.810191,35.3746131 C43.7816985,35.5790352 43.7672261,35.7436583 43.7857688,35.8892864 C43.8780302,36.6242111 44.0290854,37.350995 44.2267236,38.2161709 C45.0181809,41.6741608 44.8689347,44.7983819 43.770392,47.7679296 C43.7328543,47.8692362 43.7039095,47.9791357 43.673608,48.1057688 M46.4301407,48.4133065 L43.4795879,48.4133065 C43.4321005,48.4133065 43.3877789,48.391598 43.3583819,48.3549648 C43.3289849,48.3178794 43.3181307,48.2699397 43.3289849,48.223809 C43.3787337,48.0071759 43.4198894,47.8267236 43.4804925,47.661196 C44.5577789,44.7495377 44.703407,41.6827538 43.9259698,38.2844623 C43.7256181,37.4106935 43.573206,36.6753166 43.4791357,35.9277286 C43.4488342,35.6857688 43.4877286,35.433407 43.5370251,35.1127538 C43.5451658,35.0589347 43.5858693,34.9856683 43.6369749,34.9653166 C43.6876281,34.9449648 43.7495879,34.9250653 43.793005,34.9585327 C44.4885829,35.4971759 44.9286332,36.2040603 45.1787337,37.1845628 C45.6364221,38.9841106 46.0108945,40.940588 45.6527035,43.0571759 C45.4876281,44.0295377 45.7341106,45.0729045 45.9724523,46.0814472 C46.0588342,46.4477789 46.1452161,46.8150151 46.2103417,47.1691357 C46.2754673,47.520995 46.4210955,47.8543116 46.5626533,48.1767739 C46.5834573,48.2242613 46.5834573,48.2898392 46.5549648,48.3332563 C46.5264724,48.3762211 46.4821508,48.4133065 46.4301407,48.4133065 M46.6951658,34.0811457 C46.6630553,34.5899397 46.913608,35.090593 47.3170251,35.6979799 C49.1414472,38.443206 49.6959196,41.1884322 49.0107437,44.090593 C48.8890854,44.6057186 49.0455678,45.2560704 49.1975276,45.7114975 C49.7271256,47.2898894 50.3164221,48.8809447 50.8867236,50.4195377 L50.9771759,50.6646633 C52.3900402,44.3972261 50.9504925,38.8217487 46.6951658,34.0811457 M51.0092864,51.3516482 C50.9450653,51.3516482 50.8871759,51.311397 50.8645628,51.250794 L50.6004422,50.5353166 C50.0260704,48.9854171 49.4354171,47.3921005 48.9049146,45.8091859 C48.7398392,45.3162211 48.571598,44.6057186 48.7099899,44.0204925 C49.3748141,41.2051658 48.8348141,38.5381809 47.0592362,35.8675779 C46.5450151,35.0933065 46.243809,34.4289347 46.4482312,33.7030553 C46.4631558,33.6487839 46.5061206,33.6076281 46.5608442,33.5945126 C46.6155678,33.581397 46.6725528,33.5990352 46.7105427,33.640191 C51.3186332,38.6354171 52.8156181,44.5550653 51.1594372,51.2345126 C51.1431558,51.3000905 51.0861709,51.3471256 51.0183317,51.351196 C51.0156181,51.351196 51.0124523,51.3516482 51.0092864,51.3516482 M40.8157688,71.1312965 C40.9089347,71.1950653 41.0129548,71.2570251 41.1269246,71.3162714 C41.4249648,71.4700402 41.6863719,71.573608 41.9251658,71.632402 C41.9387337,71.6360201 41.951397,71.640995 41.963608,71.6477789 C42.5673769,71.9833568 43.673608,72.1832563 44.9227538,72.1832563 C46.6856683,72.1832563 48.230593,71.7974774 48.7674271,71.2240101 C49.1192864,70.8477286 49.3951658,70.2964221 49.5100402,69.7428543 C48.8045126,67.4987337 48.5331558,65.363608 48.6792362,63.2167236 C48.8027035,61.4135578 49.1762714,59.6126533 49.5371759,57.870995 C49.6642613,57.2595377 49.7908945,56.6476281 49.9071256,56.0357186 C49.9654673,55.7304422 50.0346633,55.4283317 50.103407,55.1275779 C50.3833568,53.9019497 50.6474774,52.7450653 50.1011457,51.5008945 C49.1581809,49.3535578 48.3011457,47.1325025 47.472603,44.9847136 C47.1940101,44.2629045 46.9158693,43.5410955 46.6336583,42.8215477 C46.6323015,42.8265226 46.6309447,42.8319497 46.6295879,42.8373769 C46.5192362,43.2389849 46.4174774,43.6080302 46.463608,43.9133065 C46.5599397,44.550995 46.7358693,45.2008945 46.9054673,45.8290854 C47.0529045,46.373608 47.2053166,46.9366734 47.3125025,47.5128543 C47.6150653,49.1391859 47.8502412,50.8012462 48.0777286,52.4076784 L48.1491859,52.9128543 C48.1862714,53.1742613 48.102603,53.4135075 48.0352161,53.6052663 C48.0098894,53.6767236 47.9890854,53.7346131 47.9750653,53.791598 C47.9185327,54.0154673 47.6978291,54.1660704 47.4635578,54.1289849 L47.2075779,54.0887337 C46.9855176,54.0534573 46.8245126,53.8653166 46.8245126,53.6414472 L46.8245126,51.6591859 C41.932402,57.0361206 42.512201,60.7835578 43.7450653,63.7454171 C43.7898392,63.8173266 43.813809,63.9000905 43.813809,63.9855678 C43.813809,64.2352161 43.6098392,64.4382814 43.3592864,64.4382814 C43.1951156,64.4382814 43.0508442,64.3586834 42.9676281,64.2248141 C41.6732563,62.1584322 41.3806432,59.8243116 42.072603,57.0908442 C42.5167236,55.3369749 43.3941106,53.7549648 45.0656683,51.723407 C43.1295377,52.4927035 42.1264221,54.0977789 41.250392,56.2460201 C41.1816482,56.4147136 41.0120503,56.5282312 40.8279799,56.5282312 C40.6077286,56.5155678 40.442201,56.3816985 40.3910955,56.1944623 C40.3024523,55.8697387 40.3010955,55.6069749 40.3874774,55.3677286 C41.5461709,52.1539598 43.4022513,50.490995 46.2279799,50.1332563 C46.2940101,50.1165226 46.4694874,49.9288342 46.5631055,49.8279799 C46.4188342,49.660191 46.2822513,49.5068744 46.1456683,49.4426533 C45.9810452,49.3653166 45.7485829,49.3273266 45.433809,49.3273266 C45.3447136,49.3273266 45.2574271,49.3304925 45.1719497,49.3350151 C44.1516482,49.3852161 43.1286332,49.4580302 42.1390854,49.5285829 C41.7718492,49.5548141 41.4095879,49.580593 41.0523015,49.6045628 C41.0491357,49.6050151 41.0251658,49.6059196 41.0215477,49.6059196 C40.8306935,49.6059196 40.663809,49.4910452 40.5964221,49.3133065 C40.5249648,49.1251658 40.5846633,48.9162211 40.7452161,48.7936583 C41.1300905,48.4987839 41.3942111,47.6639095 41.4516482,46.5599397 C41.5416482,44.8169246 41.1346131,42.8088844 40.4367739,41.4168241 C40.4720503,41.8428543 40.5199899,42.2313467 40.6185829,42.5981307 C41.2101407,44.7965729 40.8139598,46.9086332 40.3485829,48.6846633 C39.9876784,50.0577286 39.6430553,51.4538593 39.3825528,52.5162211 C38.6688844,55.4274271 38.3957186,57.8533568 39.3798392,60.2304422 C39.7018492,61.0092362 40.0876281,61.7853166 40.4607437,62.5356181 C40.7271256,63.0715477 41.0021005,63.6242111 41.2562714,64.1823015 C41.5167739,64.7512462 41.5968241,65.2288342 41.4950653,65.6001407 C41.0106935,67.3734573 40.7827538,69.2345126 40.8157688,71.1312965 M44.9227538,72.4912462 C43.6161709,72.4912462 42.4909447,72.2854673 41.8310955,71.9263719 C41.5742111,71.860794 41.2965226,71.7504422 40.9849146,71.5894372 C40.8302412,71.5098392 40.691397,71.4239095 40.5710955,71.3357186 C40.5326533,71.3072261 40.5095879,71.2629045 40.5086834,71.2145126 C40.4670754,69.2616482 40.6986332,67.3454171 41.1970251,65.5196382 C41.2793367,65.2193367 41.2047136,64.8118492 40.9754171,64.3098392 C40.7235075,63.7562714 40.4494372,63.2058693 40.1848643,62.6735578 C39.8090352,61.9173769 39.4205427,61.1363216 39.0944623,60.3480302 C38.0782312,57.8940603 38.3545628,55.4129548 39.0822513,52.4429548 C39.3427538,51.3792362 39.6887337,49.982201 40.0491859,48.6068744 C40.5050653,46.8697387 40.8931055,44.8069749 40.3205427,42.6772764 C40.1717487,42.1255176 40.1328543,41.5443618 40.0880804,40.8723015 L40.082201,40.781397 C40.0772261,40.7112965 40.120191,40.6384824 40.1866734,40.6163216 C40.2527035,40.5941608 40.3255176,40.6104422 40.3639598,40.6687839 C41.2924523,42.0843618 41.8663719,44.5134573 41.7600905,46.5757688 C41.6963216,47.8041106 41.4023518,48.6783317 40.9333568,49.0378794 C40.8813467,49.0772261 40.8623518,49.1441608 40.8854171,49.2038593 C40.9071256,49.262201 40.9595879,49.2979296 41.0215477,49.2979296 C41.3878794,49.2735075 41.7501407,49.2477286 42.1164724,49.2219497 C43.1082814,49.1509447 44.1331055,49.0781307 45.1565729,49.0274774 C45.2470251,49.0229548 45.3397387,49.0197889 45.433809,49.0197889 C45.7947136,49.0197889 46.0710452,49.0672764 46.2777286,49.1645126 C46.4839598,49.2617487 46.6598894,49.4670754 46.8299397,49.6656181 L46.8756181,49.7185327 C46.9271759,49.7782312 46.9366734,49.8813467 46.8819497,49.9387839 L46.8186332,50.0061709 C46.5879799,50.2544623 46.4256181,50.4186332 46.2668744,50.4385327 C43.5695879,50.7799899 41.7931055,52.3791859 40.6782814,55.472201 C40.6140603,55.6485829 40.6176784,55.8525528 40.6891357,56.1135075 C40.7054171,56.1741106 40.7583317,56.2161709 40.8207437,56.2202412 C40.900794,56.2206935 40.942402,56.1845126 40.9641106,56.1302412 C41.9491357,53.7160704 43.0965226,51.962201 45.4957688,51.2489849 C45.561799,51.2295377 45.6318995,51.2553166 45.6689849,51.3123015 C45.7065226,51.3692864 45.702,51.4443618 45.6576784,51.4959196 C43.7857688,53.6975276 42.8342111,55.3401407 42.372,57.1663719 C41.7017487,59.8143618 41.9821508,62.0702412 43.2294874,64.0624523 C43.2561709,64.1049648 43.3023015,64.1302915 43.3529548,64.1302915 C43.4397889,64.1302915 43.5049146,64.0656181 43.5049146,63.9855678 C43.5049146,63.9561709 43.4963216,63.9281307 43.4800402,63.9037085 C43.4741608,63.8955678 43.4691859,63.8860704 43.4651156,63.8765729 C42.1689347,60.7690854 41.5592864,56.8276281 46.8661206,51.1594372 C46.9095377,51.1133065 46.9773769,51.0979296 47.0357186,51.1214472 C47.0949648,51.1445126 47.133407,51.2014975 47.133407,51.2648141 L47.133407,53.6414472 C47.133407,53.7129045 47.1849648,53.7735075 47.2559698,53.7848141 L47.5114975,53.8250653 C47.5933568,53.8255176 47.6598392,53.7807437 47.6752161,53.7165226 C47.6919497,53.6509447 47.7150151,53.5840101 47.7385327,53.5170754 C47.8054673,53.3266734 47.8696884,53.1435075 47.8434573,52.9558191 L47.7742613,52.4664724 C47.5449648,50.8469246 47.3102412,49.1889347 47.0090352,47.5689347 C46.9036583,47.0049648 46.7530553,46.4482312 46.6074271,45.9095879 C46.4351156,45.272804 46.2573769,44.6143116 46.1578794,43.9589849 C46.1022513,43.5894874 46.2121508,43.1896884 46.3283819,42.7663719 C46.3645628,42.6352161 46.3984824,42.5112965 46.4283317,42.3864724 C46.4432563,42.3240603 46.4957186,42.2774774 46.5599397,42.2697889 L46.620995,42.2621005 C46.6906432,42.2539598 46.7580302,42.2933065 46.783809,42.3584322 C47.1130553,43.1955678 47.4368744,44.0349648 47.7611457,44.8743618 C48.5883317,47.0185327 49.4440101,49.2359698 50.3842613,51.3774271 C50.9712965,52.7143116 50.6958693,53.9195879 50.4041608,55.1954171 C50.3363216,55.493005 50.2684824,55.7914975 50.210593,56.0931558 C50.0943618,56.7064221 49.9668241,57.3201407 49.8392864,57.9329548 C49.4806432,59.6646633 49.1093367,61.4551658 48.9876784,63.2375276 C48.8429548,65.3572764 49.1138593,67.4670754 49.8166734,69.6876784 C49.8243618,69.7121005 49.8257186,69.7378794 49.8207437,69.763206 C49.7004422,70.3841608 49.3910955,71.0082814 48.9935578,71.433407 C48.263608,72.2140101 46.3442111,72.4912462 44.9227538,72.4912462 M40.8641608,72.9715477 C40.9143618,73.0466231 40.9595879,73.1185327 41.0025528,73.1868241 C41.1671759,73.4455176 41.2861206,73.6323015 41.4398894,73.7060201 C42.1639598,74.0533568 43.1272764,74.2365226 44.2244623,74.2365226 C46.7286332,74.2365226 49.4268241,73.2867739 50.6393367,71.9788342 C50.6922513,71.9223015 50.7270754,71.8354673 50.7637085,71.7436583 C50.7741106,71.7169749 50.7849648,71.6902915 50.7962714,71.6645126 L50.742,71.5523518 C49.3929045,72.9597889 47.7819497,73.6169246 45.6925025,73.6169246 C44.3425025,73.6169246 42.9423015,73.3568744 41.4606935,73.0814472 C41.262603,73.0448141 41.0640603,73.0077286 40.8641608,72.9715477 M44.2244623,74.5445126 C43.0811457,74.5445126 42.0716985,74.3504925 41.3055678,73.9837085 C41.0726533,73.8710955 40.9265729,73.6422513 40.7420503,73.3514472 C40.6457186,73.200392 40.5371759,73.0294372 40.3983317,72.8462714 C40.3603417,72.7956181 40.3571759,72.7268744 40.390191,72.6730553 C40.4236583,72.6192362 40.4860704,72.5902915 40.5489347,72.6020503 C40.8741106,72.6599397 41.1970251,72.7200905 41.5172261,72.7788844 C42.9848141,73.051598 44.370995,73.3084824 45.6925025,73.3084824 C47.7692864,73.3084824 49.350392,72.6318995 50.6687337,71.1783317 C50.7035578,71.1403417 50.7546633,71.1222513 50.8053166,71.1294874 C50.8559698,71.1367236 50.9002915,71.1683819 50.9224523,71.2145126 L51.1060704,71.5957688 C51.1259698,71.6382814 51.1259698,71.6875779 51.1051658,71.7296382 C51.0848141,71.770794 51.0676281,71.8146633 51.0504422,71.8576281 C51.0065729,71.9666231 50.9577286,72.0896382 50.8663719,72.1877789 C49.5801407,73.5753166 46.8489347,74.5445126 44.2244623,74.5445126 M39.8823015,39.3237588 C39.8646633,39.3237588 39.8474774,39.3269246 39.831196,39.3332563 C39.7841608,39.3508945 39.7488844,39.3925025 39.7398392,39.4413467 C39.5743116,40.3006432 39.3875276,41.2716482 39.6005427,42.1341106 C40.1274271,44.2579296 40.0518995,46.4337588 39.3694372,48.7864221 C39.2269749,49.2766734 39.1035075,49.7800402 38.9836583,50.2666734 L38.9723518,50.312804 C38.8701407,50.7288844 38.7679296,51.1449648 38.6535075,51.5569749 C37.8516482,54.4374271 37.170995,58.222402 39.0433568,61.9576281 C39.2274271,62.3239598 39.4200905,62.6866734 39.6127538,63.0493869 C39.8795879,63.551397 40.1559196,64.0710452 40.402402,64.593407 C40.561598,64.9294372 40.6226533,65.2767739 40.561598,65.4988342 C40.0808442,67.2563216 39.8583317,69.0228543 39.8818492,70.8974774 L39.8660201,71.1055176 C39.8438593,71.402201 39.8081307,71.7020503 39.7588342,71.9942111 C39.7660704,72.2072261 39.7610955,72.4170754 39.7461709,72.6083819 C39.6267739,74.1221005 39.8004422,74.5499397 41.3272764,74.903608 C42.5569749,75.1889849 43.7256181,75.3337085 44.800191,75.3337085 C47.6489849,75.3337085 49.9867236,74.3568241 51.9468241,72.3469749 C52.3122513,71.9720503 52.4836583,71.6577286 52.4560704,71.4116985 C52.4375276,71.2506935 52.3316985,71.1091357 52.1322513,70.9797889 C51.7125528,70.6053166 51.2037588,70.3927538 50.712603,70.1874271 C50.6633065,70.1666231 50.6280302,70.1223015 50.6198894,70.0698392 C50.6198894,70.0693869 50.6158191,70.0372764 50.6158191,70.0368241 C49.3806935,66.3685327 49.2106432,62.7653668 50.0975276,59.0310452 C50.5077286,57.3025025 50.9025528,55.5486332 51.2847136,53.852201 C51.4506935,53.1127538 51.6171256,52.3733065 51.7853668,51.6338593 C53.3714472,44.6527538 52.0870251,38.8742111 47.8579296,33.9671759 C47.1442613,33.1390854 46.3003417,32.3155176 45.2027035,31.3757186 C45.0077789,31.2083819 44.8164724,31.123809 44.6346633,31.123809 C44.2647136,31.123809 43.9725528,31.4829045 43.9083317,32.0174774 C43.8409447,32.5737588 43.8558693,33.1427035 43.870794,33.692201 L43.8793869,34.0616985 C43.8802915,34.1028543 43.8644623,34.1426533 43.8350653,34.1725025 C43.8065729,34.2018995 43.7663216,34.2186332 43.7251658,34.2186332 C43.3737588,34.2186332 43.1711457,34.3656181 43.0630553,34.4886332 C42.8482312,34.7319497 42.7708945,35.1272261 42.8369246,35.6328543 C42.9748643,36.6834573 43.183809,37.740392 43.3850653,38.7629548 L43.5153166,39.4268744 C44.0720503,42.2865226 43.8079296,45.1312462 42.732,47.8818995 C42.7080302,47.9420503 42.6745628,48.0044623 42.6284322,48.071397 C42.5913467,48.1252161 42.5244121,48.1500905 42.4610955,48.1333568 C42.3982312,48.1170754 42.3521005,48.062804 42.3471256,47.9976784 C42.2792864,47.1759196 42.2634573,46.3817487 42.2485327,45.613809 C42.2367739,44.9978291 42.2245628,44.3682814 42.1856683,43.7541106 C42.0658191,41.8306432 41.3412965,40.3910955 39.9709447,39.3531558 C39.9456181,39.3341608 39.9144121,39.3237588 39.8823015,39.3237588 M44.8006432,75.6412462 L44.800191,75.6412462 C43.7021005,75.6412462 42.510392,75.493809 41.2571759,75.2034573 C39.5557688,74.8095377 39.3106432,74.2039598 39.4381809,72.5844121 C39.452201,72.4030553 39.4567236,72.2031558 39.452201,71.971598 C39.5019497,71.6604422 39.5367739,71.3705427 39.5580302,71.0824523 L39.573407,70.8875276 C39.5494372,68.9970754 39.7751156,67.203407 40.2640101,65.4174271 C40.2965729,65.2966734 40.2667236,65.0289347 40.1233568,64.7245628 C39.8795879,64.2080804 39.6050653,63.6925025 39.3400402,63.1936583 C39.1455678,62.8282312 38.952,62.4637085 38.7670251,62.0946633 C36.8476281,58.2662714 37.5391357,54.4080302 38.3554673,51.4746633 C38.4694372,51.0653668 38.571196,50.6524523 38.6725025,50.2395377 L38.8335075,50.2304925 L38.683809,50.193407 C38.8041106,49.703608 38.9284824,49.1970754 39.0727538,48.7004925 C39.7393869,46.4016482 39.8140101,44.2778291 39.3011457,42.2078291 C39.071397,41.2802412 39.2649648,40.2735075 39.4359196,39.3857186 C39.4662211,39.2278794 39.5725025,39.1016985 39.720392,39.0456181 C39.8642111,38.9904422 40.0347136,39.0148643 40.1577286,39.1080302 C41.6040603,40.203407 42.3679296,41.7166734 42.4941106,43.7346633 C42.533005,44.3556181 42.5452161,44.9883317 42.5574271,45.6002412 C42.5682814,46.1646633 42.5795879,46.7390352 42.610794,47.3242613 C43.5248141,44.7671759 43.7274271,42.1327538 43.2127538,39.4861206 L43.0838593,38.8316985 C42.8794372,37.7951156 42.6700402,36.733206 42.5307437,35.6726533 C42.4525025,35.0770251 42.5560704,34.5971759 42.830593,34.2860201 C42.9631055,34.1349648 43.1946633,33.9581307 43.5668744,33.9187839 L43.5618995,33.7003417 C43.5469749,33.1395377 43.531598,32.5597387 43.6012462,31.9808442 C43.6858191,31.2839095 44.100995,30.8162714 44.6346633,30.8162714 C44.8924523,30.8162714 45.151598,30.9257186 45.4039598,31.1418995 C46.513809,32.0925528 47.3681307,32.9265226 48.092201,33.7663719 C52.3891357,38.7525528 53.6961709,44.6192864 52.0865729,51.7016985 C51.9183317,52.4406935 51.7518995,53.1801407 51.5859196,53.9195879 C51.2037588,55.6169246 50.8084824,57.3716985 50.3982814,59.1025025 C49.5258693,62.7739598 49.6923015,66.3169749 50.9066231,69.9346131 C51.3982312,70.140392 51.9011457,70.3606432 52.3199397,70.7369246 C52.5786332,70.902 52.7337588,71.1222513 52.7627035,71.3777789 C52.801598,71.7237588 52.6071256,72.1113467 52.1679799,72.5613467 C50.1468241,74.633608 47.7367236,75.6412462 44.8006432,75.6412462" id="Fill-75"></path>
            </g>
        </g>
    </g>
</svg>